<?xml version="1.0" encoding="UTF-8" standalone="no"?>
<!-- Created with Inkscape (http://www.inkscape.org/) -->

<svg
   width="150"
   height="150"
   viewBox="0 0 39.6875 39.6875"
   version="1.1"
   id="svg944"
   inkscape:version="1.1.1 (3bf5ae0d25, 2021-09-20)"
   sodipodi:docname="bv.svg"
   xmlns:inkscape="http://www.inkscape.org/namespaces/inkscape"
   xmlns:sodipodi="http://sodipodi.sourceforge.net/DTD/sodipodi-0.dtd"
   xmlns="http://www.w3.org/2000/svg"
   xmlns:svg="http://www.w3.org/2000/svg">
  <sodipodi:namedview
     id="namedview946"
     pagecolor="#ffffff"
     bordercolor="#666666"
     borderopacity="1.0"
     inkscape:pageshadow="2"
     inkscape:pageopacity="0.0"
     inkscape:pagecheckerboard="0"
     inkscape:document-units="mm"
     showgrid="false"
     units="px"
     inkscape:zoom="2.096401"
     inkscape:cx="156.22011"
     inkscape:cy="178.16248"
     inkscape:window-width="1920"
     inkscape:window-height="1017"
     inkscape:window-x="-8"
     inkscape:window-y="-8"
     inkscape:window-maximized="1"
     inkscape:current-layer="svg944" />
  <defs
     id="defs941" />
  <path
     d="m 20.826464,18.12164 0.461066,0.649389 -0.688353,0.5325 0.175342,0.298722 0.688353,-0.298722 0.285733,0.474056 0.922133,0.116903 0.285731,0.357164 -0.629906,0.29872 -0.175342,0.532502 -0.62991,-0.116903 -0.116902,0.474056 0.577959,0.175341 -0.2273,0.41561 0.116902,1.772837 0.577957,0.05844 0.116903,0.766283 0.461069,0.590944 -0.05844,0.532501 0.86369,0.64939 0.285732,0.824726 -0.05844,0.889665 -0.571463,1.065002 0.40262,0.474055 0.227277,0.233781 0.519511,0.415609 -0.227276,0.532499 h -0.688354 l -0.175341,0.649393 0.344176,0.64939 v 0.357165 l -0.28573,0.5325 -0.922137,0.298718 0.285734,0.649393 -0.461068,1.29878 0.175342,0.298721 -0.805244,0.116902 -0.40262,0.64939 -0.402623,-0.175341 -0.805244,0.532499 -0.285732,0.357166 -0.285733,0.23378 h -0.344177 l -0.285732,0.532499 -0.571463,-0.116902 -0.461068,0.474056 -0.227276,0.357165 -0.629909,0.05844 v 0.474055 l -0.402623,0.175342 -0.805244,-0.649393 0.402623,-0.415609 -0.116902,-0.824726 -1.324758,0.233781 -0.175341,0.415609 -0.344177,-0.357163 -0.402622,0.415609 -0.05844,-0.590946 -0.805247,0.05844 -0.05844,-0.474056 -0.402623,-0.05844 -0.805243,-0.298718 -0.05844,-0.766281 L 10.8973,35.161646 10.611568,34.096647 10.1505,33.797926 9.5205911,32.616037 9.0010803,32.732939 8.5984574,33.622604 7.2737,32.499159 V 31.018547 L 7.7347673,31.13545 7.9620438,29.304169 7.0983563,28.654776 7.2152592,28.122277 7.7867222,27.946935 6.9814782,27.180655 7.3256549,26.706599 7.150313,25.881873 7.4360462,25.764971 7.150313,25.23247 l 0.5195134,0.175342 0.4610672,-0.474055 0.2857324,0.5325 0.62991,-0.357166 0.6883526,0.357166 0.8052444,-0.5325 0.116902,-1.006555 -0.62991,-0.05844 -0.2272759,-0.474056 0.2272759,-0.64939 -0.1753406,-0.707836 0.5195136,0.233781 0.175341,-0.590946 0.863691,-0.707834 -0.05844,-1.006557 0.285732,0.05844 -0.05844,0.415608 0.344177,0.05844 v 0.233781 l 0.571463,-0.116903 0.175342,0.357166 0.519511,-0.649393 0.461067,0.415612 -0.05844,0.357163 0.688354,0.233781 0.344175,-0.357163 -0.116902,-0.233781 0.805246,-0.649392 1.090977,-0.175342 0.28573,-0.292227 1.72738,-0.05844 0.402622,-0.298721 -0.05844,-0.948108 1.207867,-0.05844 0.402623,0.649391 z M 26.002107,2.8674521 26.346283,3.8740075 25.65793,3.6986656 25.196863,4.1142745 24.852687,3.9389334 l 0.116902,-0.7078361 0.889665,0.194829 -0.14287,-0.3117071 z m 1.837776,-0.05844 0.344176,0.2987193 V 3.6986771 L 27.55415,3.523336 V 2.8155025 h 0.285733 z M 20.716067,1.62712 l 0.7468,0.5324994 0.05844,0.6493927 -0.344177,0.6493899 h -0.461066 l 0.175341,0.474056 -0.461069,0.4740551 0.285732,0.2337811 -0.922133,0.8312178 -1.324758,0.2337811 -0.863689,-0.8896649 0.05844,-0.7662805 0.519513,0.3571654 -0.05844,-0.7078361 0.577957,-0.474056 -0.227276,-0.4156089 0.571463,-0.05844 -0.05844,-0.3571654 0.7468,-0.7078335 0.344176,0.116903 v 0.5909429 h 0.227277 l 0.116902,-0.64939 z m 10.000616,-1.36372004 0.746799,1.24033554 0.461068,0.05844 -0.116903,1.0649989 -0.7468,-0.2402599 0.285733,0.5324995 -0.577958,0.2987184 -0.175341,0.474056 -0.227276,-0.175342 -0.227277,0.2922254 -0.19483,-0.1169029 -0.09091,0.71433 -0.40262,0.474056 -0.688356,-0.474056 v -0.298721 l -0.629907,0.3571655 0.577957,-1.0065555 0.571463,0.05844 0.116903,-0.4156116 0.974086,-0.4740551 0.05844,-0.7078344 0.227276,-0.05844 L 30.430954,1.6855457 30.65823,0.7958781 30.372497,0.38026916 Z"
     title="Brava"
     id="CV-BR"
     style="stroke-width:0.64939" />
  <path
     style="fill:#00ff00;stroke-width:0"
     d="m 16.47595,38.724682 c -0.01886,-0.127777 -0.0091,-0.54443 0.02172,-0.925894 0.05047,-0.62497 -0.04571,-0.674186 -0.972447,-0.497593 -0.565652,0.107787 -1.077107,0.236222 -1.136568,0.285407 -0.254872,0.210832 -2.477323,-1.183633 -2.65236,-1.664209 -0.20099,-0.551822 -0.577402,-1.192624 -1.538181,-2.61859 C 9.5904437,32.401912 8.9128886,32.195325 8.6741887,32.839157 8.5680859,33.125344 8.3877283,33.090261 7.982876,32.704681 7.4895353,32.234828 7.4756623,32.038189 7.8432328,30.725357 8.2193508,29.381995 8.2048589,29.233721 7.6583887,28.834131 7.163806,28.472484 7.1389641,28.355104 7.5086495,28.126625 c 0.3007801,-0.185891 0.348498,-0.40595 0.1484829,-0.684739 -0.7632049,-1.063783 -0.1485921,-2.054277 1.2079148,-1.946645 1.2468018,0.09893 1.6047048,-0.0938 1.8936638,-1.019727 0.161921,-0.518851 0.09343,-0.69697 -0.268014,-0.69697 -0.5861622,0 -0.6166997,-0.402097 -0.09832,-1.294551 0.948287,-1.632578 2.327471,-2.157701 3.284927,-1.250733 0.344431,0.326269 0.547498,0.259479 1.133479,-0.372803 0.504485,-0.544349 1.188401,-0.833232 2.331688,-0.984894 1.204502,-0.159783 1.656175,-0.361305 1.767971,-0.788813 0.199885,-0.764366 0.864567,-0.727676 1.42952,0.07891 0.251602,0.359211 0.60799,0.560076 0.791977,0.446366 0.183985,-0.113709 0.33452,-0.05912 0.33452,0.121302 0,0.180425 0.284284,0.328045 0.631742,0.328045 0.524789,0 0.564121,0.07316 0.232323,0.432134 -0.21968,0.237673 -0.494333,0.374794 -0.610338,0.304712 -0.326968,-0.197531 -0.678939,0.545888 -0.364163,0.769168 0.153286,0.10873 0.324513,0.68557 0.380507,1.281867 0.05599,0.596297 0.208437,1.153873 0.338764,1.239058 0.130326,0.08518 0.342738,0.503367 0.472025,0.929293 0.129288,0.425927 0.509473,1.035811 0.844857,1.355299 0.586815,0.559004 0.616263,1.202691 0.109772,2.399376 -0.125303,0.296054 -0.0054,0.709243 0.292056,1.006735 0.458838,0.458838 0.460428,0.548746 0.01754,0.991639 -0.317187,0.317186 -0.419565,0.755938 -0.293548,1.258031 0.153726,0.612492 0.05898,0.806157 -0.460884,0.942106 -0.359914,0.09412 -0.57593,0.298074 -0.480037,0.453232 0.443832,0.718136 -0.250593,2.087858 -1.314449,2.592692 -0.602519,0.285913 -1.365234,0.750808 -1.694925,1.033098 -0.329691,0.28229 -0.723146,0.513256 -0.874343,0.513256 -0.151196,0 -0.635617,0.313636 -1.076489,0.69697 -0.853319,0.74195 -1.086013,0.836716 -1.140927,0.464646 z"
     id="path986" />
  <path
     style="fill:#00ff00;stroke-width:0"
     d="M 18.053629,5.2387468 17.635593,4.7933586 17.647722,4.499329 c 0.0067,-0.1617166 0.02447,-0.3162335 0.03955,-0.3433705 0.01999,-0.035959 0.08643,-0.0071 0.24503,0.1064819 0.119681,0.085698 0.229279,0.1558212 0.243552,0.1558212 0.01428,0 0.01428,-0.1611742 1.4e-5,-0.3581652 l -0.02593,-0.3581652 0.290057,-0.2304613 0.290056,-0.2304613 -0.09609,-0.189635 c -0.05286,-0.1042986 -0.08586,-0.1998846 -0.07332,-0.2124125 0.01253,-0.012528 0.128958,-0.030454 0.258735,-0.039848 l 0.235957,-0.017065 -0.01811,-0.1884524 -0.0181,-0.1884505 0.359321,-0.3476111 0.359323,-0.347611 0.148024,0.051124 0.148026,0.051124 0.0113,0.2963078 0.0113,0.2963088 h 0.131148 c 0.143373,0 0.12346,0.045992 0.237955,-0.5496257 0.01478,-0.076881 0.05533,-0.1159805 0.154075,-0.1485681 0.127033,-0.041926 0.14758,-0.034956 0.394279,0.1337344 0.484237,0.3311161 0.47084,0.3134882 0.499068,0.6566687 l 0.02511,0.3051724 -0.170675,0.3235568 -0.170674,0.3235558 -0.222643,4.803e-4 c -0.122454,2.637e-4 -0.222643,0.01726 -0.222643,0.03777 0,0.02051 0.03576,0.1280183 0.07947,0.2389121 l 0.07947,0.2016249 -0.237529,0.2396596 -0.23753,0.2396597 0.139792,0.1152284 0.139792,0.1152275 -0.379101,0.3451738 c -0.208505,0.1898463 -0.413732,0.3743263 -0.456061,0.4099559 -0.04858,0.040896 -0.315004,0.1065192 -0.722513,0.1779701 l -0.64555,0.1131889 z"
     id="path1025" />
  <path
     style="fill:#00ff00;stroke-width:0"
     d="m 25.028762,4.0050366 c -0.06388,-0.033908 -0.122454,-0.067088 -0.130146,-0.073738 -0.0152,-0.013149 0.07344,-0.6746501 0.0904,-0.6746501 0.0057,0 0.199304,0.042707 0.430268,0.094913 0.230963,0.052207 0.428015,0.086834 0.437892,0.076952 0.0099,-0.00987 -0.01275,-0.08235 -0.05028,-0.161049 l -0.06823,-0.1430899 0.129055,-0.1057273 0.129056,-0.1057272 0.149236,0.4453261 c 0.08208,0.2449301 0.142437,0.4521246 0.134128,0.4604342 -0.0083,0.00835 -0.150525,-0.019586 -0.316035,-0.061983 L 25.663174,3.6796038 25.52021,3.792981 c -0.07863,0.062355 -0.176159,0.1501458 -0.216728,0.1950847 -0.08722,0.096611 -0.120731,0.09868 -0.274723,0.016967 z"
     id="path1064" />
  <path
     style="fill:#00ff00;stroke-width:0"
     d="m 29.101057,4.6099209 c -0.311709,-0.2174876 -0.33576,-0.2438362 -0.33576,-0.3678457 0,-0.073472 -0.01024,-0.1335781 -0.02275,-0.1335781 -0.01251,0 -0.134482,0.062489 -0.271045,0.1388548 -0.136562,0.076366 -0.248295,0.1309553 -0.248295,0.1213006 0,-0.00966 0.110523,-0.2071768 0.245606,-0.4389388 l 0.245605,-0.4213855 0.293053,0.012031 0.293053,0.012031 0.05983,-0.2056292 0.05983,-0.2056301 0.48001,-0.2389795 0.48001,-0.2389796 0.02504,-0.1826705 c 0.01377,-0.1004692 0.02504,-0.2590846 0.02504,-0.3524775 0,-0.1576972 0.0083,-0.1714637 0.116161,-0.1930391 0.142835,-0.028563 0.145861,-0.062897 0.01401,-0.1589474 L 30.458292,1.681624 30.568288,1.2306324 30.678283,0.77963897 30.551545,0.59983452 c -0.13538,-0.19206333 -0.127145,-0.23281768 0.05418,-0.26820749 0.112756,-0.0220104 0.121781,-0.0110185 0.472334,0.57536074 0.371192,0.62089893 0.395014,0.64431043 0.656747,0.64543093 0.06796,2.903e-4 0.132676,0.01528 0.143821,0.033313 0.0207,0.033508 -0.07131,0.9650304 -0.09796,0.9916853 -0.0081,0.00808 -0.170717,-0.035471 -0.361402,-0.096792 -0.190685,-0.061326 -0.35359,-0.1046041 -0.36201,-0.096184 -0.0084,0.00843 0.04591,0.1306029 0.120738,0.2715175 l 0.136048,0.2562088 -0.281265,0.1391744 c -0.238048,0.117789 -0.288915,0.1606156 -0.331048,0.2787217 -0.02738,0.076748 -0.06482,0.1799287 -0.08321,0.229283 l -0.03343,0.089732 -0.112391,-0.080033 -0.112391,-0.080033 -0.112828,0.1406439 c -0.10189,0.1270096 -0.121342,0.1360872 -0.200655,0.093641 -0.0483,-0.025855 -0.09626,-0.038578 -0.106563,-0.02827 -0.01031,0.010308 -0.04,0.1741647 -0.06598,0.3641327 -0.04525,0.330863 -0.05523,0.3546465 -0.237017,0.5652096 -0.104375,0.1208975 -0.192175,0.219813 -0.195113,0.219813 -0.0029,0 -0.156431,-0.10542 -0.341099,-0.2342676 z"
     id="path1103" />
  <path
     style="fill:#00ff00;stroke-width:0"
     d="M 27.787603,3.5726797 27.564959,3.5117892 V 3.1712545 2.8307225 h 0.135411 c 0.101198,0 0.17457,0.035382 0.290403,0.1400276 0.152273,0.1375683 0.154995,0.1447068 0.154995,0.406566 0,0.3037349 0.01271,0.2968042 -0.358165,0.1953671 z"
     id="path1142" />
</svg>
