<?xml version="1.0" encoding="UTF-8" standalone="no"?>
<!-- Created with Inkscape (http://www.inkscape.org/) -->

<svg
   width="150"
   height="150"
   viewBox="0 0 39.6875 39.6875"
   version="1.1"
   id="svg944"
   inkscape:version="1.1.1 (3bf5ae0d25, 2021-09-20)"
   sodipodi:docname="bv.svg"
   xmlns:inkscape="http://www.inkscape.org/namespaces/inkscape"
   xmlns:sodipodi="http://sodipodi.sourceforge.net/DTD/sodipodi-0.dtd"
   xmlns="http://www.w3.org/2000/svg"
   xmlns:svg="http://www.w3.org/2000/svg">
  <sodipodi:namedview
     id="namedview946"
     pagecolor="#ffffff"
     bordercolor="#666666"
     borderopacity="1.0"
     inkscape:pageshadow="2"
     inkscape:pageopacity="0.0"
     inkscape:pagecheckerboard="0"
     inkscape:document-units="mm"
     showgrid="false"
     units="px"
     inkscape:zoom="2.096401"
     inkscape:cx="82.999389"
     inkscape:cy="177.44697"
     inkscape:window-width="1001"
     inkscape:window-height="1040"
     inkscape:window-x="769"
     inkscape:window-y="59"
     inkscape:window-maximized="0"
     inkscape:current-layer="svg944" />
  <defs
     id="defs941" />
  <path
     d="m 19.743265,18.014735 0.187854,0.264583 -0.280458,0.216958 0.07144,0.121709 0.280458,-0.121709 0.116417,0.193146 0.375708,0.04763 0.116416,0.145521 -0.256645,0.121708 -0.07144,0.216959 -0.256646,-0.04763 -0.04763,0.193146 0.23548,0.07144 -0.09261,0.169333 0.04763,0.722313 0.235479,0.02381 0.04763,0.312209 0.187855,0.24077 -0.02381,0.216959 0.351896,0.264583 0.116417,0.336021 -0.02381,0.362479 -0.232833,0.433917 0.164041,0.193146 0.0926,0.09525 0.211666,0.169333 -0.0926,0.216958 h -0.280458 l -0.07144,0.264584 0.140229,0.264583 v 0.145521 l -0.116416,0.216958 -0.375709,0.121708 0.116417,0.264584 -0.187854,0.529166 0.07144,0.121709 -0.328083,0.04763 -0.164041,0.264583 -0.164042,-0.07144 -0.328083,0.216958 -0.116417,0.145521 -0.116417,0.09525 h -0.140229 l -0.116417,0.216958 -0.232833,-0.04763 -0.187854,0.193146 -0.0926,0.145521 -0.256646,0.02381 v 0.193146 l -0.164042,0.07144 -0.328083,-0.264584 0.164042,-0.169333 -0.04763,-0.336021 -0.53975,0.09525 -0.07144,0.169333 -0.140229,-0.14552 -0.164042,0.169333 -0.02381,-0.240771 -0.328084,0.02381 -0.02381,-0.193146 -0.164042,-0.02381 -0.328083,-0.121708 -0.02381,-0.312208 -0.375708,-0.312209 -0.116417,-0.433916 -0.187854,-0.121709 -0.256646,-0.481541 -0.211666,0.04763 -0.164042,0.362479 -0.53975,-0.457729 v -0.60325 l 0.187854,0.04763 0.0926,-0.746125 -0.351895,-0.264584 0.04763,-0.216958 0.232833,-0.07144 -0.328083,-0.312208 0.140229,-0.193146 -0.07144,-0.336021 0.116417,-0.04763 -0.116417,-0.216958 0.211667,0.07144 0.187854,-0.193146 0.116417,0.216958 0.256646,-0.145521 0.280458,0.145521 0.328083,-0.216958 0.04763,-0.410104 -0.256646,-0.02381 -0.0926,-0.193146 0.0926,-0.264583 -0.07144,-0.288396 0.211667,0.09525 0.07144,-0.240771 0.351896,-0.288395 -0.02381,-0.410105 0.116417,0.02381 -0.02381,0.169333 0.140229,0.02381 v 0.09525 l 0.232833,-0.04763 0.07144,0.145521 0.211666,-0.264584 0.187854,0.169334 -0.02381,0.14552 0.280458,0.09525 0.140229,-0.14552 -0.04763,-0.09525 0.328084,-0.264584 0.4445,-0.07144 0.116416,-0.119063 0.703792,-0.02381 0.164042,-0.121709 -0.02381,-0.386291 0.492125,-0.02381 0.164042,0.264584 z m 2.108729,-6.215063 0.140229,0.410104 -0.280458,-0.07144 -0.187854,0.169333 -0.140229,-0.07144 0.04763,-0.288396 0.362479,0.07938 -0.05821,-0.127 z m 0.748771,-0.02381 0.140229,0.121708 v 0.240771 l -0.256646,-0.07144 v -0.288395 h 0.116417 z m -2.902479,-0.481542 0.304271,0.216958 0.02381,0.264584 -0.140229,0.264583 h -0.187854 l 0.07144,0.193146 -0.187855,0.193146 0.116417,0.09525 -0.375708,0.338666 -0.53975,0.09525 -0.351896,-0.362479 0.02381,-0.312208 0.211667,0.145521 -0.02381,-0.288396 0.235479,-0.193146 -0.0926,-0.169333 0.232833,-0.02381 -0.02381,-0.145521 0.304271,-0.288395 0.140229,0.04763 v 0.24077 h 0.0926 l 0.04763,-0.264583 z m 4.074583,-0.555625 0.304271,0.505354 0.187854,0.02381 -0.04763,0.433916 -0.304271,-0.09789 0.116417,0.216958 -0.235479,0.121708 -0.07144,0.193146 -0.0926,-0.07144 -0.0926,0.119062 -0.07938,-0.04763 -0.03704,0.291042 -0.164041,0.193146 -0.280459,-0.193146 v -0.121709 l -0.256645,0.145521 0.235479,-0.410104 0.232833,0.02381 0.04763,-0.169334 0.396875,-0.193146 0.02381,-0.288395 0.0926,-0.02381 -0.0926,-0.07144 0.0926,-0.36248 -0.116417,-0.169333 z"
     title="Brava"
     id="CV-BR"
     style="stroke-width:0.264583" />
</svg>
