<?xml version="1.0" encoding="UTF-8" standalone="no"?>
<!-- Created with Inkscape (http://www.inkscape.org/) -->

<svg
   width="150"
   height="150"
   viewBox="0 0 39.6875 39.6875"
   version="1.1"
   id="svg944"
   inkscape:version="1.1.1 (3bf5ae0d25, 2021-09-20)"
   sodipodi:docname="bvt.svg"
   xmlns:inkscape="http://www.inkscape.org/namespaces/inkscape"
   xmlns:sodipodi="http://sodipodi.sourceforge.net/DTD/sodipodi-0.dtd"
   xmlns="http://www.w3.org/2000/svg"
   xmlns:svg="http://www.w3.org/2000/svg">
  <sodipodi:namedview
     id="namedview946"
     pagecolor="#ffffff"
     bordercolor="#666666"
     borderopacity="1.0"
     inkscape:pageshadow="2"
     inkscape:pageopacity="0.0"
     inkscape:pagecheckerboard="0"
     inkscape:document-units="mm"
     showgrid="false"
     units="px"
     inkscape:zoom="2.096401"
     inkscape:cx="83.476396"
     inkscape:cy="177.44697"
     inkscape:window-width="1064"
     inkscape:window-height="1040"
     inkscape:window-x="769"
     inkscape:window-y="0"
     inkscape:window-maximized="0"
     inkscape:current-layer="svg944" />
  <defs
     id="defs941" />
  <path
     d="m 7.6464901,12.538129 0.5635625,0.193146 0.1640416,0.219604 h 0.1878542 l 0.2328333,0.338667 0.023813,0.338667 -0.1640416,0.0979 -0.2116667,-0.193146 -0.3042708,-0.04763 -0.047625,-0.314854 -0.4206875,-0.26723 z M 20.198324,8.0296294 V 8.320671 l 0.140229,-0.047625 0.140229,-0.3148541 0.116417,0.097896 -0.0926,0.2434167 0.14023,-0.047625 0.0053,-0.1084792 0.156104,0.060854 -0.187854,0.3148541 0.211667,0.2434167 0.748771,-0.047625 0.0926,-0.097896 0.140229,0.1693333 0.679979,0.1693333 1.124479,0.6297084 0.656167,0.071438 0.211667,-0.097896 0.187854,0.2169584 0.584729,-0.047625 0.164042,0.3624794 0.280458,0.0979 0.375708,-0.1931462 0.396875,0.1217082 0.14023,-0.0979 0.07144,0.0979 -0.164042,0.145521 0.14023,0.07144 0.116416,-0.0979 v 0.219604 h 0.187854 l 0.07144,-0.193146 0.304271,0.0979 v 0.219604 h -0.164057 l -0.328083,0.291041 0.116416,0.291042 0.280459,0.04763 -0.164042,0.558271 -0.116417,0.07144 0.280459,0.727604 1.592791,1.60073 0.724959,0.896937 0.164041,0.04763 0.04763,0.169334 0.211667,-0.07144 -0.140229,0.291043 0.211667,0.65352 -0.07144,0.291041 0.396875,0.436563 -0.515937,-0.169333 -0.256646,0.338666 -0.07144,0.460375 0.256646,0.534458 0.02381,0.436563 0.328083,0.267229 -0.07144,0.605896 0.187855,0.121708 v 0.460375 l 0.211666,0.388938 -0.04763,0.121708 0.187854,0.02381 v 0.169334 l -0.256645,-0.04763 -0.07144,0.0979 v 0.386291 l -0.304271,0.216959 -0.0926,0.508 -0.351896,0.338666 -0.04763,0.314854 -0.164041,0.07144 -0.14023,1.137708 -0.563562,0.727604 h -0.232833 l -0.23548,0.169334 -0.0926,-0.193146 -0.164041,-0.04763 -0.515938,0.558271 -0.724958,0.193146 -0.396875,0.460375 0.07144,0.14552 -0.187854,0.216959 -0.211667,-0.04763 -0.328083,0.267229 -0.328083,-0.121708 -0.187854,0.216958 -0.515938,0.145521 -1.42875,0.896937 h -0.187854 l -0.140229,-0.169333 -0.187854,0.243417 0.0926,0.14552 -0.140229,0.04763 -0.232834,0.531813 -0.748771,0.243417 -0.632354,0.04763 -0.187854,0.14552 v 0.169334 l -0.796396,0.508 -0.560916,0.677333 -0.02381,0.243417 h -0.375708 l -0.256646,0.145521 -0.420687,-0.291042 -0.256646,0.0979 -0.608542,-0.121709 -2.8575,0.02381 -1.992307,0.362475 -0.328083,-0.338667 -0.211667,-0.04763 -0.0926,-0.436562 -0.351896,-0.314854 -0.04763,-0.508 -0.608542,-0.484188 -0.703791,-0.291041 -0.116417,0.216958 H 10.051553 L 8.6942401,27.762254 6.6331359,26.817692 6.0695734,26.090088 6.1859901,25.412754 5.8817193,25.121713 5.6250734,25.412754 5.6488859,24.976192 5.2281985,24.370296 5.6488859,23.642692 V 23.2564 l 0.1402292,-0.243417 -0.1164167,-0.55827 0.071438,-0.338667 0.3518959,-0.291042 0.071438,-0.216958 -0.3518959,-0.873125 0.98425,-1.113896 0.396875,-0.243416 0.3280834,0.09789 0.3968749,-0.09789 1.920875,-1.672167 0.071438,-0.291042 0.3280833,-0.243416 0.02381,-0.508 -0.211667,-0.484188 0.211667,-0.362479 0.07144,-0.436563 0.468312,-0.243416 -0.0926,-0.224896 0.07144,-0.216958 -0.420687,0.169333 v -0.216958 l -0.140232,-0.04763 -0.04763,-0.41275 L 10.011865,14.064775 9.8954484,13.6044 9.6149901,13.458879 9.4985734,12.829171 9.0302609,12.659838 9.0064484,12.416421 9.1943026,12.344984 9.1228651,12.128025 9.3107192,11.813171 v -0.0979 L 9.1943026,11.7629 9.0778859,11.641192 9.2657401,11.471859 9.5012192,11.593567 9.3848026,10.916234 9.5488442,10.649004 9.9007401,10.455859 V 10.141004 L 9.1281567,9.7547127 9.3398234,9.2202544 9.2921984,8.8075044 9.0593651,8.7096085 9.1519692,8.1513377 9.6679067,7.8364836 h 0.4683123 l -0.1402289,0.5582708 0.4206879,0.1217083 0.632354,0.4841875 0.30427,-0.071438 0.116417,0.1217083 -0.07144,0.2434167 0.584729,0.4841875 1.42875,0.4603753 1.452563,0.0979 0.632354,-0.121709 0.936625,0.07144 2.201333,-0.4603746 0.53975,-0.2910417 0.53975,-0.5820833 0.280458,0.047625 0.14023,-0.1217083 -0.04763,-0.1693334 -0.328084,0.071438 -0.187854,-0.3386666 0.0926,-0.097896 0.256646,0.047625 -0.116417,-0.1455208 0.04763,-0.3148541 0.396875,-0.1217084 z"
     title="Boa Vista"
     id="CV-BV"
     style="stroke-width:0.264583" />
  <path
     style="fill:#00ff00;stroke-width:0"
     d="m 46.62753,113.36417 c -0.45912,-0.36132 -0.834764,-0.98266 -0.834764,-1.38073 0,-0.39807 -0.30092,-0.97351 -0.668711,-1.27875 -0.367792,-0.30524 -0.797611,-1.06856 -0.955156,-1.69626 -0.463696,-1.84752 -2.855257,-3.21094 -5.926431,-3.37864 -3.154052,-0.17224 -4.381448,-0.52983 -8.906477,-2.59484 -4.526567,-2.06571 -5.9626,-3.47685 -5.9626,-5.859224 0,-1.462282 -0.205382,-1.917152 -0.954016,-2.112926 -0.524709,-0.137216 -0.954016,-0.475863 -0.954016,-0.752546 0,-0.276689 -0.338822,-0.877461 -0.752938,-1.335055 -0.685333,-0.757284 -0.685486,-0.934931 -0.0017,-1.978505 0.413176,-0.630586 0.885061,-2.526955 1.048634,-4.214156 0.187821,-1.937306 0.575845,-3.289003 1.053068,-3.668411 0.637704,-0.506992 0.672148,-0.913656 0.220659,-2.605164 -0.460506,-1.72529 -0.414133,-2.173005 0.333031,-3.215292 1.625268,-2.267234 3.222019,-3.417611 4.969105,-3.579985 1.339578,-0.124501 2.574075,-0.894245 5.422196,-3.380892 2.028248,-1.770829 3.841796,-3.616367 4.030108,-4.101195 0.188313,-0.484829 0.563957,-0.881506 0.834766,-0.881506 0.584169,0 0.646672,-2.357296 0.08594,-3.241207 -0.563173,-0.887759 0.49179,-3.876713 1.478879,-4.190003 0.50715,-0.160963 0.835593,-0.741371 0.835593,-1.476616 0,-0.853247 -0.201236,-1.134189 -0.680636,-0.950226 -0.803485,0.308326 -1.309588,-0.276797 -2.200574,-2.544156 -0.360834,-0.91824 -0.933443,-1.953177 -1.272466,-2.29986 -0.339022,-0.346682 -0.616404,-1.029841 -0.616404,-1.518131 0,-0.48829 -0.404786,-1.016274 -0.899526,-1.173298 -0.795559,-0.252501 -0.843986,-0.504311 -0.418985,-2.17868 0.264297,-1.04125 0.663717,-1.893182 0.8876,-1.893182 0.223884,0 0.281572,-0.627448 0.128195,-1.394328 -0.2173,-1.0865 -0.0567,-1.533072 0.727437,-2.022775 1.399132,-0.873772 1.255883,-2.153431 -0.333042,-2.975096 -1.174582,-0.607399 -1.314075,-0.909061 -1.133924,-2.452176 0.112981,-0.967765 -0.02533,-1.902188 -0.307367,-2.076493 -0.815277,-0.50387 0.490122,-2.649751 1.719309,-2.826288 0.759593,-0.109093 1.066279,0.09433 1.078744,0.715512 0.01985,0.989446 3.997347,3.719791 4.745395,3.257472 0.266352,-0.164614 0.485743,0.08901 0.487535,0.563617 0.0043,1.144134 2.486558,2.75232 5.688619,3.685529 6.268271,1.826827 20.759822,0.327631 24.359624,-2.520079 0.918241,-0.726395 2.045172,-1.460535 2.504292,-1.63142 1.153487,-0.42933 1.044419,-1.119661 -0.238504,-1.509632 -0.650214,-0.197646 -0.838236,-0.423267 -0.477008,-0.572392 0.327943,-0.135384 0.59626,-0.657571 0.59626,-1.160417 0,-0.502846 0.214654,-0.914265 0.477008,-0.914265 0.262355,0 0.477008,0.32198 0.477008,0.715512 0,0.393531 0.296947,0.715511 0.659879,0.715511 0.362931,0 0.776731,0.446842 0.919547,0.992981 0.21277,0.813625 0.588995,0.973914 2.082918,0.887419 2.367466,-0.137072 4.137729,0.352312 7.070336,1.954572 1.449484,0.791941 3.507707,1.422404 5.247088,1.60726 1.751497,0.186143 3.080388,0.595047 3.424745,1.0538 0.402795,0.536609 0.970153,0.660141 1.996531,0.43471 0.958305,-0.210479 1.817239,-0.06371 2.589896,0.442557 0.67769,0.444045 1.52928,0.622706 2.05803,0.431771 0.77919,-0.281368 0.75228,-0.161194 -0.19766,0.882755 -1.00889,1.10873 -1.03653,1.271571 -0.33495,1.973153 0.58413,0.58413 0.64666,0.985239 0.26481,1.698736 -0.82095,1.533966 0.17482,3.207238 4.76762,8.011393 5.12911,5.365138 5.5837,6.021202 6.10475,8.810208 0.3463,1.853651 0.27803,2.243501 -0.47528,2.713949 -1.00681,0.628761 -1.15618,2.670679 -0.34327,4.692654 0.29502,0.733819 0.71216,1.763524 0.92698,2.288233 0.21481,0.524708 0.53499,1.919957 0.71151,3.100551 0.17651,1.180595 0.50901,2.504986 0.73888,2.943091 0.38018,0.724561 -0.42183,2.954751 -2.02931,5.643053 -1.25776,2.103438 -2.29576,4.667847 -2.30501,5.694579 -0.0127,1.414223 -1.83603,4.189751 -2.94238,4.479066 -0.44204,0.115598 -1.05087,-0.03329 -1.35295,-0.330905 -0.41115,-0.405051 -0.79104,-0.211291 -1.51103,0.770688 -0.52899,0.721474 -1.34425,1.311771 -1.8117,1.311771 -1.03406,0 -3.363597,1.760332 -3.363597,2.541723 0,0.569543 -1.040264,1.078983 -4.531576,2.219203 -1.049417,0.342731 -3.05286,1.352393 -4.452101,2.243703 -1.633418,1.04048 -2.868459,1.5176 -3.450323,1.33292 -0.722748,-0.22939 -1.062497,0.10286 -1.67789,1.64088 -0.623878,1.55923 -1.104946,2.02109 -2.512277,2.41199 -0.95735,0.26591 -2.230346,0.48468 -2.828876,0.48614 -0.598536,10e-4 -1.210131,0.32029 -1.359106,0.70851 -0.148974,0.38823 -0.973664,1.14022 -1.832645,1.6711 -0.858982,0.53088 -2.065078,1.69974 -2.680208,2.59747 -1.136147,1.6581 -2.878729,2.40664 -3.697198,1.58817 -0.456483,-0.45648 -17.121429,-0.18542 -20.825133,0.33873 -1.259979,0.17831 -2.191555,0.0469 -2.742796,-0.38694 z"
     id="path1372"
     transform="scale(0.26458333)" />
  <path
     style="fill:#00ff00;stroke-width:0"
     d="m 46.800806,113.06085 c -0.200254,-0.13666 -0.991956,-1.50397 -1.759337,-3.03848 -1.653086,-3.30562 -2.839577,-4.04286 -7.547999,-4.69004 -3.597437,-0.49446 -10.603077,-3.42504 -12.541925,-5.2465 -0.624234,-0.586431 -1.190836,-1.856073 -1.374305,-3.079532 -0.186299,-1.242329 -0.564752,-2.081711 -0.938585,-2.081711 -0.344528,0 -0.942429,-0.633466 -1.32867,-1.407703 -0.601158,-1.205051 -0.609202,-1.668578 -0.05587,-3.219803 0.35551,-0.996656 0.655803,-2.398053 0.667319,-3.114219 0.01151,-0.716165 0.369173,-2.172447 0.794795,-3.236184 0.523947,-1.309473 0.67363,-2.560865 0.463496,-3.874969 -0.292052,-1.826392 -0.186626,-2.064639 1.786921,-4.038188 1.374174,-1.374175 2.51379,-2.097285 3.305305,-2.097285 1.498748,0 6.337864,-3.575862 8.923374,-6.593924 1.793941,-2.094064 1.903963,-2.396383 1.795922,-4.934828 -0.09549,-2.243493 0.06773,-2.89875 0.958175,-3.846807 1.280888,-1.363755 1.399529,-3.027397 0.238504,-3.344418 -0.45912,-0.125364 -1.561414,-1.706638 -2.449542,-3.513942 -0.888129,-1.807304 -1.939486,-3.547543 -2.336349,-3.867197 -0.642605,-0.517588 -0.635546,-0.806439 0.0645,-2.639492 0.432339,-1.132066 0.786072,-2.507813 0.786072,-3.057215 0,-0.549402 0.321981,-1.266133 0.715512,-1.592735 1.060177,-0.879868 0.86884,-2.262582 -0.430938,-3.11423 -0.873203,-0.572145 -1.195137,-1.285336 -1.350718,-2.992297 -0.112347,-1.232612 -0.0182,-2.616756 0.209218,-3.075877 0.486967,-0.983115 2.28795,-1.128051 2.28795,-0.184125 0,0.622676 3.219643,3.165425 4.008079,3.165425 0.208582,0 0.948332,0.608722 1.643889,1.352716 0.695556,0.743993 2.552569,1.834556 4.126696,2.423472 2.420618,0.905609 3.771796,1.066527 8.760481,1.043326 8.720189,-0.04055 13.194617,-0.949093 17.580681,-3.569779 2.513003,-1.501528 3.109491,-2.483655 1.811042,-2.981916 -0.550138,-0.211108 -0.593259,-0.483316 -0.194581,-1.228259 0.491896,-0.919115 0.552299,-0.900592 1.524146,0.467384 0.864448,1.216803 1.414533,1.466505 3.773934,1.713111 1.519094,0.158777 3.861046,0.84562 5.204338,1.526317 1.343293,0.680698 3.971989,1.555434 5.841555,1.943857 1.869561,0.388423 3.603122,0.907964 3.852359,1.154534 0.249237,0.24657 1.136872,0.448309 1.972519,0.448309 0.835646,0 2.186504,0.280512 3.001901,0.623361 1.16535,0.489995 1.35822,0.747677 0.90147,1.204426 -0.45675,0.456748 -0.45442,0.783859 0.0109,1.528938 0.32558,0.521331 0.46372,1.458795 0.30699,2.083254 -0.41636,1.658945 0.63623,3.330445 5.24788,8.33348 4.28858,4.652552 5.18669,5.979807 5.71824,8.450657 0.22548,1.048124 0.10421,1.651003 -0.41956,2.085691 -0.94449,0.783854 -0.94943,3.587828 -0.011,6.247568 0.39913,1.131263 1.05371,3.465777 1.45461,5.187808 l 0.72891,3.130967 -1.93885,3.816064 c -1.06638,2.098835 -2.25215,4.896683 -2.63505,6.217441 -0.8512,2.936061 -2.33085,4.673963 -3.62871,4.262038 -0.60972,-0.193522 -1.42305,0.125014 -2.38418,0.933757 -0.80233,0.67511 -1.75395,1.227475 -2.11472,1.227475 -0.36077,0 -1.38299,0.748607 -2.271596,1.663575 -0.888604,0.914964 -2.560536,1.996951 -3.715411,2.404416 -1.154869,0.40746 -3.417351,1.465078 -5.02774,2.350258 -1.610384,0.88518 -3.434891,1.68141 -4.054463,1.7694 -0.646937,0.0919 -1.380833,0.6924 -1.723954,1.41065 -0.848039,1.77517 -1.750586,2.39693 -4.122656,2.84008 -1.636958,0.30582 -2.785107,1.05176 -5.411942,3.5161 l -3.33419,3.12793 -12.500355,0.12816 c -6.875196,0.0705 -12.664201,0.0164 -12.864455,-0.12029 z"
     id="path1411"
     transform="scale(0.26458333)" />
</svg>
