<?xml version="1.0" encoding="UTF-8" standalone="no"?>
<!-- Created with Inkscape (http://www.inkscape.org/) -->

<svg
   width="150"
   height="150"
   viewBox="0 0 39.6875 39.6875"
   version="1.1"
   id="svg944"
   inkscape:version="1.1.1 (3bf5ae0d25, 2021-09-20)"
   sodipodi:docname="bvt.svg"
   xmlns:inkscape="http://www.inkscape.org/namespaces/inkscape"
   xmlns:sodipodi="http://sodipodi.sourceforge.net/DTD/sodipodi-0.dtd"
   xmlns="http://www.w3.org/2000/svg"
   xmlns:svg="http://www.w3.org/2000/svg">
  <sodipodi:namedview
     id="namedview946"
     pagecolor="#ffffff"
     bordercolor="#666666"
     borderopacity="1.0"
     inkscape:pageshadow="2"
     inkscape:pageopacity="0.0"
     inkscape:pagecheckerboard="0"
     inkscape:document-units="mm"
     showgrid="false"
     units="px"
     inkscape:zoom="2.096401"
     inkscape:cx="82.999389"
     inkscape:cy="177.44697"
     inkscape:window-width="1001"
     inkscape:window-height="1040"
     inkscape:window-x="769"
     inkscape:window-y="59"
     inkscape:window-maximized="0"
     inkscape:current-layer="svg944" />
  <defs
     id="defs941" />
  <path
     d="m 7.6464901,12.538129 0.5635625,0.193146 0.1640416,0.219604 h 0.1878542 l 0.2328333,0.338667 0.023813,0.338667 -0.1640416,0.0979 -0.2116667,-0.193146 -0.3042708,-0.04763 -0.047625,-0.314854 -0.4206875,-0.26723 z M 20.198324,8.0296294 V 8.320671 l 0.140229,-0.047625 0.140229,-0.3148541 0.116417,0.097896 -0.0926,0.2434167 0.14023,-0.047625 0.0053,-0.1084792 0.156104,0.060854 -0.187854,0.3148541 0.211667,0.2434167 0.748771,-0.047625 0.0926,-0.097896 0.140229,0.1693333 0.679979,0.1693333 1.124479,0.6297084 0.656167,0.071438 0.211667,-0.097896 0.187854,0.2169584 0.584729,-0.047625 0.164042,0.3624794 0.280458,0.0979 0.375708,-0.1931462 0.396875,0.1217082 0.14023,-0.0979 0.07144,0.0979 -0.164042,0.145521 0.14023,0.07144 0.116416,-0.0979 v 0.219604 h 0.187854 l 0.07144,-0.193146 0.304271,0.0979 v 0.219604 h -0.164057 l -0.328083,0.291041 0.116416,0.291042 0.280459,0.04763 -0.164042,0.558271 -0.116417,0.07144 0.280459,0.727604 1.592791,1.60073 0.724959,0.896937 0.164041,0.04763 0.04763,0.169334 0.211667,-0.07144 -0.140229,0.291043 0.211667,0.65352 -0.07144,0.291041 0.396875,0.436563 -0.515937,-0.169333 -0.256646,0.338666 -0.07144,0.460375 0.256646,0.534458 0.02381,0.436563 0.328083,0.267229 -0.07144,0.605896 0.187855,0.121708 v 0.460375 l 0.211666,0.388938 -0.04763,0.121708 0.187854,0.02381 v 0.169334 l -0.256645,-0.04763 -0.07144,0.0979 v 0.386291 l -0.304271,0.216959 -0.0926,0.508 -0.351896,0.338666 -0.04763,0.314854 -0.164041,0.07144 -0.14023,1.137708 -0.563562,0.727604 h -0.232833 l -0.23548,0.169334 -0.0926,-0.193146 -0.164041,-0.04763 -0.515938,0.558271 -0.724958,0.193146 -0.396875,0.460375 0.07144,0.14552 -0.187854,0.216959 -0.211667,-0.04763 -0.328083,0.267229 -0.328083,-0.121708 -0.187854,0.216958 -0.515938,0.145521 -1.42875,0.896937 h -0.187854 l -0.140229,-0.169333 -0.187854,0.243417 0.0926,0.14552 -0.140229,0.04763 -0.232834,0.531813 -0.748771,0.243417 -0.632354,0.04763 -0.187854,0.14552 v 0.169334 l -0.796396,0.508 -0.560916,0.677333 -0.02381,0.243417 h -0.375708 l -0.256646,0.145521 -0.420687,-0.291042 -0.256646,0.0979 -0.608542,-0.121709 -2.8575,0.02381 -1.992307,0.362475 -0.328083,-0.338667 -0.211667,-0.04763 -0.0926,-0.436562 -0.351896,-0.314854 -0.04763,-0.508 -0.608542,-0.484188 -0.703791,-0.291041 -0.116417,0.216958 H 10.051553 L 8.6942401,27.762254 6.6331359,26.817692 6.0695734,26.090088 6.1859901,25.412754 5.8817193,25.121713 5.6250734,25.412754 5.6488859,24.976192 5.2281985,24.370296 5.6488859,23.642692 V 23.2564 l 0.1402292,-0.243417 -0.1164167,-0.55827 0.071438,-0.338667 0.3518959,-0.291042 0.071438,-0.216958 -0.3518959,-0.873125 0.98425,-1.113896 0.396875,-0.243416 0.3280834,0.09789 0.3968749,-0.09789 1.920875,-1.672167 0.071438,-0.291042 0.3280833,-0.243416 0.02381,-0.508 -0.211667,-0.484188 0.211667,-0.362479 0.07144,-0.436563 0.468312,-0.243416 -0.0926,-0.224896 0.07144,-0.216958 -0.420687,0.169333 v -0.216958 l -0.140232,-0.04763 -0.04763,-0.41275 L 10.011865,14.064775 9.8954484,13.6044 9.6149901,13.458879 9.4985734,12.829171 9.0302609,12.659838 9.0064484,12.416421 9.1943026,12.344984 9.1228651,12.128025 9.3107192,11.813171 v -0.0979 L 9.1943026,11.7629 9.0778859,11.641192 9.2657401,11.471859 9.5012192,11.593567 9.3848026,10.916234 9.5488442,10.649004 9.9007401,10.455859 V 10.141004 L 9.1281567,9.7547127 9.3398234,9.2202544 9.2921984,8.8075044 9.0593651,8.7096085 9.1519692,8.1513377 9.6679067,7.8364836 h 0.4683123 l -0.1402289,0.5582708 0.4206879,0.1217083 0.632354,0.4841875 0.30427,-0.071438 0.116417,0.1217083 -0.07144,0.2434167 0.584729,0.4841875 1.42875,0.4603753 1.452563,0.0979 0.632354,-0.121709 0.936625,0.07144 2.201333,-0.4603746 0.53975,-0.2910417 0.53975,-0.5820833 0.280458,0.047625 0.14023,-0.1217083 -0.04763,-0.1693334 -0.328084,0.071438 -0.187854,-0.3386666 0.0926,-0.097896 0.256646,0.047625 -0.116417,-0.1455208 0.04763,-0.3148541 0.396875,-0.1217084 z"
     title="Boa Vista"
     id="CV-BV"
     style="stroke-width:0.264583" />
</svg>
