<?xml version="1.0" encoding="UTF-8" standalone="no"?>
<!-- Created with Inkscape (http://www.inkscape.org/) -->

<svg
   width="150"
   height="150"
   viewBox="0 0 39.6875 39.6875"
   version="1.1"
   id="svg944"
   inkscape:version="1.1.1 (3bf5ae0d25, 2021-09-20)"
   sodipodi:docname="fg.svg"
   xmlns:inkscape="http://www.inkscape.org/namespaces/inkscape"
   xmlns:sodipodi="http://sodipodi.sourceforge.net/DTD/sodipodi-0.dtd"
   xmlns="http://www.w3.org/2000/svg"
   xmlns:svg="http://www.w3.org/2000/svg">
  <sodipodi:namedview
     id="namedview946"
     pagecolor="#ffffff"
     bordercolor="#666666"
     borderopacity="1.0"
     inkscape:pageshadow="2"
     inkscape:pageopacity="0.0"
     inkscape:pagecheckerboard="0"
     inkscape:document-units="mm"
     showgrid="false"
     units="px"
     inkscape:zoom="2.096401"
     inkscape:cx="82.999389"
     inkscape:cy="177.44697"
     inkscape:window-width="1001"
     inkscape:window-height="1040"
     inkscape:window-x="769"
     inkscape:window-y="59"
     inkscape:window-maximized="0"
     inkscape:current-layer="svg944" />
  <defs
     id="defs941" />
  <path
     d="m 28.187441,19.255905 -0.552979,0.560917 -1.092729,1.788583 -0.92075,0.66675 -1.571625,0.351896 -1.058333,0.07144 -1.058333,-0.246065 -1.262063,-1.124479 -0.306917,-1.087438 0.0344,-1.018646 0.510646,-0.629708 1.399646,-1.124479 0.687917,-0.711729 v 0 l 0.449791,0.428625 v 0 l 0.751416,0.129645 1.439334,-0.259291 2.082271,-0.0344 v 0 l 0.187854,0.886354 0.164041,0.07408 z"
     title="Santa Catarina do Fogo"
     id="CV-CF"
     style="stroke-width:0.264583" />
  <path
     d="m 18.33965,10.556405 0.502708,-0.216958 -0.140229,-0.4101044 0.211667,0.09525 0.232833,-0.2169587 0.351896,-0.09525 0.53975,-0.5053542 0.232833,-0.026458 0.116417,-0.2169583 0.328083,-0.071438 0.283104,-0.2407709 0.187855,0.2169584 0.34925,0.1217083 1.008062,-0.074083 0.656167,0.1931458 0.04498,0.1217083 0.611187,0.023813 0.489479,0.2883959 0.04763,0.4339166 0.140229,0.1217086 h 0.351896 l 0.116417,0.119062 0.351896,-0.04763 0.328083,0.145521 0.280458,0.433917 0.164042,0.576791 0.515937,0.216959 0.187855,0.240771 0.256645,1.108604 -0.164041,0.433916 0.399521,0.145521 0.164041,0.240771 0.164042,1.325563 0.328083,0.33602 0.04498,0.216959 -0.164041,0.650875 0.07144,0.362479 -0.211666,0.142875 v 0.269875 0 l -2.082271,0.0344 -1.439334,0.259291 -0.751416,-0.129645 v 0 l -0.87578,-0.836089 v 0 l -0.751416,-1.031875 -0.0635,-1.158875 -1.063625,-0.513291 z"
     title="Mosteiros"
     id="CV-MO"
     style="stroke-width:0.264583" />
  <path
     d="m 22.996317,16.752947 -0.687917,0.711729 -1.399646,1.124479 -0.510646,0.629708 -0.0344,1.018646 0.306917,1.087438 1.262062,1.124479 1.058334,0.246062 1.058333,-0.07144 1.571625,-0.351896 0.92075,-0.66675 1.092729,-1.788583 0.552979,-0.560917 v 0 l 0.211667,0.359833 -0.02381,0.674688 0.140229,0.481541 -0.116416,0.505355 0.211666,0.383645 v 1.013355 l 0.164042,0.383645 -0.375708,1.613959 -0.187854,0.338666 -0.608542,0.505354 -0.04763,0.336021 -0.677333,0.722313 -0.960438,0.820208 -0.423333,-0.05027 -0.256646,0.121709 -0.492125,0.505354 -0.02381,0.264583 -0.256645,-0.07144 -0.98425,0.481541 -0.492125,0.410104 -0.560917,0.02381 -0.53975,0.240771 -0.772583,0.142875 -0.399521,-0.09525 -0.280458,0.07144 -0.256646,-0.169333 -0.140229,0.07408 h -0.187855 l -0.07144,-0.1217 -1.404938,0.145521 -0.06879,-0.169334 -0.351895,-0.193145 -0.67998,0.07408 -0.30427,-0.410104 -0.4445,-0.04763 -0.280459,-0.362479 -0.328083,-0.07144 -0.259292,-0.505354 -0.328083,-0.338667 -0.34925,-0.09525 -0.796396,-1.058333 -0.53975,-0.07408 -0.844021,-0.505355 -0.34925,-0.817562 -0.98425,-0.844021 -1.219729,-0.529166 -0.4206874,-0.820209 0.1164166,-1.251479 -0.1164166,-0.410104 0.047625,-0.600604 -0.071438,-0.193146 -0.1852083,0.04763 -0.023813,-0.193146 0.2804583,-0.552979 -0.023813,-0.362479 0.1402291,-0.264584 -0.047625,-0.457729 0.2116663,-0.529166 -0.06879,-0.145521 0.608542,-0.963084 0.02381,-0.410104 0.0926,-0.04763 -0.0926,-0.193146 0.325438,-0.264583 -0.02117,-0.336021 -0.119063,-0.0979 0.164042,-0.119062 0.04763,-0.338667 0.187854,0.02381 0.351896,-0.216959 0.116417,-0.142875 -0.02381,-0.216958 0.584729,-0.410104 -0.0926,-0.216958 0.211666,-0.02381 0.140229,-0.264583 0.632355,-0.216959 0.0926,-0.267229 0.423333,-0.214312 0.140229,-0.460375 0.420688,-0.142875 0.0926,-0.145521 0.679979,-0.142875 0.351896,-0.267229 0.02381,-0.407459 0.209021,0.09525 0.328083,-0.09525 0.259292,-0.193145 0.06879,-0.216959 0.98425,0.240771 1.042458,-0.457729 v 0 l 2.352146,3.085042 1.063625,0.513291 0.0635,1.158875 0.751417,1.031875 v 0 z"
     title="São Filipe"
     id="CV-SF"
     style="stroke-width:0.264583" />
</svg>
