<?xml version="1.0" encoding="UTF-8" standalone="no"?>
<!-- Created with Inkscape (http://www.inkscape.org/) -->

<svg
   width="150"
   height="150"
   viewBox="0 0 39.6875 39.6875"
   version="1.1"
   id="svg944"
   inkscape:version="1.1.1 (3bf5ae0d25, 2021-09-20)"
   sodipodi:docname="fg.svg"
   xmlns:inkscape="http://www.inkscape.org/namespaces/inkscape"
   xmlns:sodipodi="http://sodipodi.sourceforge.net/DTD/sodipodi-0.dtd"
   xmlns="http://www.w3.org/2000/svg"
   xmlns:svg="http://www.w3.org/2000/svg">
  <sodipodi:namedview
     id="namedview946"
     pagecolor="#ffffff"
     bordercolor="#666666"
     borderopacity="1.0"
     inkscape:pageshadow="2"
     inkscape:pageopacity="0.0"
     inkscape:pagecheckerboard="0"
     inkscape:document-units="mm"
     showgrid="false"
     units="px"
     inkscape:zoom="2.096401"
     inkscape:cx="83.476396"
     inkscape:cy="177.44697"
     inkscape:window-width="1064"
     inkscape:window-height="1040"
     inkscape:window-x="800"
     inkscape:window-y="323"
     inkscape:window-maximized="0"
     inkscape:current-layer="svg944" />
  <defs
     id="defs941" />
  <path
     d="m 28.187441,19.255905 -0.552979,0.560917 -1.092729,1.788583 -0.92075,0.66675 -1.571625,0.351896 -1.058333,0.07144 -1.058333,-0.246065 -1.262063,-1.124479 -0.306917,-1.087438 0.0344,-1.018646 0.510646,-0.629708 1.399646,-1.124479 0.687917,-0.711729 v 0 l 0.449791,0.428625 v 0 l 0.751416,0.129645 1.439334,-0.259291 2.082271,-0.0344 v 0 l 0.187854,0.886354 0.164041,0.07408 z"
     title="Santa Catarina do Fogo"
     id="CV-CF"
     style="stroke-width:0.264583;fill:#a9ff00;fill-opacity:1" />
  <path
     d="m 18.33965,10.556405 0.502708,-0.216958 -0.140229,-0.4101044 0.211667,0.09525 0.232833,-0.2169587 0.351896,-0.09525 0.53975,-0.5053542 0.232833,-0.026458 0.116417,-0.2169583 0.328083,-0.071438 0.283104,-0.2407709 0.187855,0.2169584 0.34925,0.1217083 1.008062,-0.074083 0.656167,0.1931458 0.04498,0.1217083 0.611187,0.023813 0.489479,0.2883959 0.04763,0.4339166 0.140229,0.1217086 h 0.351896 l 0.116417,0.119062 0.351896,-0.04763 0.328083,0.145521 0.280458,0.433917 0.164042,0.576791 0.515937,0.216959 0.187855,0.240771 0.256645,1.108604 -0.164041,0.433916 0.399521,0.145521 0.164041,0.240771 0.164042,1.325563 0.328083,0.33602 0.04498,0.216959 -0.164041,0.650875 0.07144,0.362479 -0.211666,0.142875 v 0.269875 0 l -2.082271,0.0344 -1.439334,0.259291 -0.751416,-0.129645 v 0 l -0.87578,-0.836089 v 0 l -0.751416,-1.031875 -0.0635,-1.158875 -1.063625,-0.513291 z"
     title="Mosteiros"
     id="CV-MO"
     style="stroke-width:0.264583;fill:#b7ff00;fill-opacity:1" />
  <path
     d="m 22.996317,16.752947 -0.687917,0.711729 -1.399646,1.124479 -0.510646,0.629708 -0.0344,1.018646 0.306917,1.087438 1.262062,1.124479 1.058334,0.246062 1.058333,-0.07144 1.571625,-0.351896 0.92075,-0.66675 1.092729,-1.788583 0.552979,-0.560917 v 0 l 0.211667,0.359833 -0.02381,0.674688 0.140229,0.481541 -0.116416,0.505355 0.211666,0.383645 v 1.013355 l 0.164042,0.383645 -0.375708,1.613959 -0.187854,0.338666 -0.608542,0.505354 -0.04763,0.336021 -0.677333,0.722313 -0.960438,0.820208 -0.423333,-0.05027 -0.256646,0.121709 -0.492125,0.505354 -0.02381,0.264583 -0.256645,-0.07144 -0.98425,0.481541 -0.492125,0.410104 -0.560917,0.02381 -0.53975,0.240771 -0.772583,0.142875 -0.399521,-0.09525 -0.280458,0.07144 -0.256646,-0.169333 -0.140229,0.07408 h -0.187855 l -0.07144,-0.1217 -1.404938,0.145521 -0.06879,-0.169334 -0.351895,-0.193145 -0.67998,0.07408 -0.30427,-0.410104 -0.4445,-0.04763 -0.280459,-0.362479 -0.328083,-0.07144 -0.259292,-0.505354 -0.328083,-0.338667 -0.34925,-0.09525 -0.796396,-1.058333 -0.53975,-0.07408 -0.844021,-0.505355 -0.34925,-0.817562 -0.98425,-0.844021 -1.219729,-0.529166 -0.4206874,-0.820209 0.1164166,-1.251479 -0.1164166,-0.410104 0.047625,-0.600604 -0.071438,-0.193146 -0.1852083,0.04763 -0.023813,-0.193146 0.2804583,-0.552979 -0.023813,-0.362479 0.1402291,-0.264584 -0.047625,-0.457729 0.2116663,-0.529166 -0.06879,-0.145521 0.608542,-0.963084 0.02381,-0.410104 0.0926,-0.04763 -0.0926,-0.193146 0.325438,-0.264583 -0.02117,-0.336021 -0.119063,-0.0979 0.164042,-0.119062 0.04763,-0.338667 0.187854,0.02381 0.351896,-0.216959 0.116417,-0.142875 -0.02381,-0.216958 0.584729,-0.410104 -0.0926,-0.216958 0.211666,-0.02381 0.140229,-0.264583 0.632355,-0.216959 0.0926,-0.267229 0.423333,-0.214312 0.140229,-0.460375 0.420688,-0.142875 0.0926,-0.145521 0.679979,-0.142875 0.351896,-0.267229 0.02381,-0.407459 0.209021,0.09525 0.328083,-0.09525 0.259292,-0.193145 0.06879,-0.216959 0.98425,0.240771 1.042458,-0.457729 v 0 l 2.352146,3.085042 1.063625,0.513291 0.0635,1.158875 0.751417,1.031875 v 0 z"
     title="São Filipe"
     id="CV-SF"
     style="stroke-width:0.264583" />
  <path
     style="fill:#00ff00;stroke-width:0;fill-opacity:1"
     d="m 76.745587,110.63328 c -0.304675,-0.1883 -1.949273,-0.26631 -3.654662,-0.17336 -2.153626,0.11738 -3.39904,-0.04 -4.077436,-0.51512 -0.537201,-0.37627 -1.451129,-0.56506 -2.030951,-0.41954 -0.729613,0.18312 -1.802683,-0.26149 -3.484977,-1.44394 -1.336916,-0.9397 -2.593948,-1.7099 -2.793404,-1.71156 -0.199456,-0.001 -0.740115,-0.66619 -1.201464,-1.47674 -0.461349,-0.81055 -1.243634,-1.57958 -1.738412,-1.70897 -0.494778,-0.12939 -1.57956,-1.18209 -2.410627,-2.33933 -0.831067,-1.157237 -1.854478,-2.104069 -2.274247,-2.104069 -1.4342,0 -4.784211,-2.329387 -5.087422,-3.537477 -0.431748,-1.720219 -3.474426,-4.415939 -6.573602,-5.824014 -3.381278,-1.536238 -3.843142,-2.547458 -3.834641,-8.395682 0.0035,-2.433034 -0.20209,-4.678294 -0.45695,-4.989466 -0.302206,-0.368981 -0.283457,-0.901959 0.0539,-1.532321 0.284506,-0.531604 0.599706,-1.994237 0.700446,-3.250295 0.218601,-2.725611 0.88334,-4.961585 1.911395,-6.429339 0.414229,-0.591395 0.754465,-1.403145 0.756082,-1.803889 0.0016,-0.400745 0.323596,-1.343461 0.715512,-2.094924 0.391915,-0.751464 0.712573,-1.985722 0.712573,-2.742796 0,-0.877235 0.24804,-1.376499 0.683862,-1.376499 0.376124,0 1.69109,-1.28204 2.922146,-2.848978 1.231056,-1.566937 2.629618,-2.973182 3.107915,-3.124988 1.087859,-0.345273 3.780252,-2.826762 3.780252,-3.484133 0,-0.599726 2.693084,-1.990092 3.85473,-1.990092 0.465359,0 1.268224,-0.536634 1.784144,-1.19252 0.51592,-0.655886 1.17546,-1.19252 1.465645,-1.19252 0.290185,0 0.964823,-0.437214 1.499195,-0.971586 0.825493,-0.825493 1.223041,-0.902156 2.643877,-0.509844 1.24046,0.342507 2.094204,0.285456 3.306166,-0.220934 0.89863,-0.375472 1.818068,-0.682676 2.043196,-0.682676 0.225128,0 2.324894,2.540654 4.666148,5.645898 3.477964,4.61288 4.627754,5.799767 6.28411,6.486858 1.973822,0.818782 2.027292,0.899465 2.027584,3.059497 2.59e-4,1.916502 0.302115,2.602998 2.217215,5.0425 l 2.216918,2.823962 -1.671154,1.46911 c -0.919133,0.808011 -3.097474,2.716714 -4.840759,4.241563 -3.127081,2.735255 -3.169608,2.804912 -3.169608,5.191745 0,1.330611 0.259765,3.286308 0.577254,4.345994 0.65752,2.194604 3.895632,5.501753 6.252155,6.385448 3.423954,1.283981 11.57322,0.246371 14.919484,-1.899633 0.942229,-0.604262 2.589635,-2.58272 3.857205,-4.632304 2.36616,-3.825963 3.44105,-5.247088 3.96872,-5.247088 0.18121,0 0.68258,3.380794 1.11416,7.512876 0.91588,8.768986 0.51866,11.521722 -2.04417,14.165887 -0.80044,0.825849 -1.45535,1.736519 -1.45535,2.023711 0,1.04283 -5.740818,5.872018 -6.9805,5.872018 -0.721317,0 -1.80733,0.61302 -2.715606,1.53286 -0.832474,0.84308 -2.721984,2.10965 -4.198915,2.81462 -1.476931,0.70496 -2.831181,1.51775 -3.009448,1.80619 -0.178268,0.28845 -0.862202,0.52444 -1.519853,0.52444 -0.657651,0 -1.652847,0.24465 -2.211554,0.54366 -1.166283,0.62417 -5.780653,0.88806 -6.606279,0.37779 z"
     id="path1562"
     transform="scale(0.26458333)" />
</svg>
