<?xml version="1.0" encoding="UTF-8" standalone="no"?>
<!-- Created with Inkscape (http://www.inkscape.org/) -->

<svg
   width="150"
   height="150"
   viewBox="0 0 39.6875 39.6875"
   version="1.1"
   id="svg944"
   inkscape:version="1.1.1 (3bf5ae0d25, 2021-09-20)"
   sodipodi:docname="mi.svg"
   xmlns:inkscape="http://www.inkscape.org/namespaces/inkscape"
   xmlns:sodipodi="http://sodipodi.sourceforge.net/DTD/sodipodi-0.dtd"
   xmlns="http://www.w3.org/2000/svg"
   xmlns:svg="http://www.w3.org/2000/svg">
  <sodipodi:namedview
     id="namedview946"
     pagecolor="#ffffff"
     bordercolor="#666666"
     borderopacity="1.0"
     inkscape:pageshadow="2"
     inkscape:pageopacity="0.0"
     inkscape:pagecheckerboard="0"
     inkscape:document-units="mm"
     showgrid="false"
     units="px"
     inkscape:zoom="2.096401"
     inkscape:cx="82.999389"
     inkscape:cy="177.44697"
     inkscape:window-width="1001"
     inkscape:window-height="1040"
     inkscape:window-x="769"
     inkscape:window-y="59"
     inkscape:window-maximized="0"
     inkscape:current-layer="svg944" />
  <defs
     id="defs941" />
  <path
     d="m 16.787328,9.8507637 0.187854,0.1693333 -0.04763,0.314854 0.187854,0.121709 -0.140229,0.288395 0.235479,0.674688 0.4445,0.121708 0.468313,-0.04763 0.164041,-0.410104 -0.0926,-0.291042 0.280458,-0.386291 0.09261,0.386291 -0.07144,0.796396 0.375708,0.338667 h 0.14023 l 0.07144,0.193146 0.679979,0.09525 0.867834,0.386291 0.584729,-0.264583 0.280458,-0.433917 0.187854,0.240771 0.232834,-0.240771 0.351895,0.145521 0.04763,0.362479 0.23548,0.02381 -0.07144,0.145521 0.280458,0.145521 0.232834,0.724958 0.140229,0.07144 -0.0926,0.121709 0.0926,0.338666 -0.04763,0.216959 0.187854,0.60325 0.256646,0.312208 v 0.193146 l -0.07144,0.338667 -0.304271,0.04763 -0.07144,0.338666 -0.256646,0.264584 0.328083,0.04763 0.07144,0.457729 0.164042,0.04763 0.07144,0.410104 0.211667,0.193146 0.07144,0.820208 0.211667,0.433917 -0.04763,0.240771 0.187854,0.410104 -0.164042,0.314854 0.14023,0.169333 -0.09261,0.314854 0.232834,0.505355 -0.164042,0.0979 0.256646,1.2065 0.140229,0.02381 -0.04763,0.264583 0.0926,0.04763 -0.04763,0.169334 -0.280458,0.193145 v 0.240748 l 0.420687,0.915459 -0.280458,0.193145 0.256646,0.820209 -0.584729,0.216958 -0.04763,0.07144 -0.304271,0.650875 -0.187854,0.240771 -0.0926,0.145521 -0.351896,0.314854 h -0.187835 v 0.288396 l -0.211667,0.216958 -0.280458,-0.02381 -0.328084,0.410104 -0.164041,0.02381 -0.116417,-0.121709 -0.232833,0.240771 -0.396875,0.02381 -0.164042,0.288395 -0.328083,0.169334 v 0.193146 l -0.280459,0.14552 -0.256645,-0.07144 -0.164042,0.121708 h -0.07144 -0.116416 l -0.256646,0.674688 -0.727604,0.216958 -0.679979,-0.07144 -0.632355,-0.264584 -0.632354,-0.02381 -0.468312,0.121708 -0.468313,-0.288396 -0.256646,-0.02381 v -0.121709 l -0.396875,-0.02381 -0.351895,-0.193146 -0.256646,0.04763 -0.140229,-0.410104 -0.468313,-0.457729 v -0.264584 l -0.375708,-0.314854 -0.256646,0.02381 0.02381,-0.216959 0.420688,0.02381 -0.02381,-0.386292 -0.515937,-0.627062 -0.116417,0.02381 -0.468312,-0.555625 -0.211667,-0.07144 0.116417,0.650875 -0.232834,-0.627063 0.116417,-1.325562 -0.164042,-0.457729 0.04763,-0.314854 0.211667,-0.145521 0.0926,-0.288396 v -0.989535 l 0.187854,-0.722312 -0.07144,-0.60325 0.140229,-0.169334 0.304271,0.02381 0.53975,-0.216958 -0.07144,-1.375834 0.07144,-0.264583 0.04763,-0.505354 -0.396875,-0.844021 -0.889,-0.07144 v -0.74877 l 0.04763,-0.0979 0.280458,0.04763 0.280459,-0.481542 -0.07144,-0.145521 -0.280458,-0.07144 0.116416,-0.288396 0.608542,0.169333 0.375708,-0.216958 1.172105,-1.135063 0.140229,-0.724958 0.0926,-0.169333 0.211667,-0.288396 -0.515938,-0.650875 0.4445,-0.0979 0.187854,0.193146 0.187854,-0.04763 0.116417,0.193146 h 0.280458 l 0.375709,-0.288396 0.02381,-0.193146 -0.492125,-0.748771 0.02381,-0.169333 0.328083,-0.02381 0.211667,-0.314854 h 0.140229 l -0.232833,-0.291042 0.0926,-0.121708 0.116416,0.0979 z"
     title="Maio"
     id="CV-MA"
     style="stroke-width:0.264583" />
</svg>
