<?xml version="1.0" encoding="UTF-8" standalone="no"?>
<!-- Created with Inkscape (http://www.inkscape.org/) -->

<svg
   width="150"
   height="150"
   viewBox="0 0 39.6875 39.6875"
   version="1.1"
   id="svg944"
   inkscape:version="1.1.1 (3bf5ae0d25, 2021-09-20)"
   sodipodi:docname="sl.svg"
   xmlns:inkscape="http://www.inkscape.org/namespaces/inkscape"
   xmlns:sodipodi="http://sodipodi.sourceforge.net/DTD/sodipodi-0.dtd"
   xmlns="http://www.w3.org/2000/svg"
   xmlns:svg="http://www.w3.org/2000/svg">
  <sodipodi:namedview
     id="namedview946"
     pagecolor="#ffffff"
     bordercolor="#666666"
     borderopacity="1.0"
     inkscape:pageshadow="2"
     inkscape:pageopacity="0.0"
     inkscape:pagecheckerboard="0"
     inkscape:document-units="mm"
     showgrid="false"
     units="px"
     inkscape:zoom="2.096401"
     inkscape:cx="76.321276"
     inkscape:cy="177.44697"
     inkscape:window-width="1064"
     inkscape:window-height="1040"
     inkscape:window-x="769"
     inkscape:window-y="0"
     inkscape:window-maximized="0"
     inkscape:current-layer="svg944" />
  <defs
     id="defs941" />
  <path
     d="m 20.245444,7.2504316 0.608542,0.41275 0.140229,0.754062 0.232833,-0.09789 0.304271,0.04763 0.04763,0.365125 0.632354,0.243416 0.07144,-0.121708 h 0.187854 l 0.280458,0.219604 -0.07144,0.243417 -0.116417,0.02381 0.116417,0.291042 -0.140229,0.243417 0.04763,0.2672294 -0.116417,0.169333 -0.304271,0.07408 -0.07144,0.67998 -0.328084,0.314854 -0.116416,0.291041 0.164041,0.26723 0.492125,0.243416 v 0.341313 l 0.256646,0.679979 0.351896,0.314854 v 0.41275 l 0.256646,0.07408 0.375708,0.436563 0.108479,-0.01323 0.05556,-0.132292 0.04763,0.121708 -0.396875,0.365125 -0.116417,0.534459 0.07144,0.145521 -0.14023,0.14552 -0.328083,-0.04763 -0.0926,-0.121708 h -0.399521 l -0.0926,0.510646 -0.211667,0.291042 -0.211666,0.07408 0.02381,0.0979 0.280458,-0.04763 0.07144,0.0979 -0.07144,0.169333 0.14023,0.04763 0.116416,0.41275 -0.116416,0.219604 0.0926,0.0979 -0.07144,0.291042 h -0.140229 l -0.232833,0.291041 0.187854,0.02381 0.140229,0.169333 -0.04763,0.314854 0.187854,0.0979 0.0926,0.243417 -0.0926,0.267229 0.396875,1.143 0.936625,0.997479 -0.187854,0.608542 0.140229,0.169333 0.140229,0.801687 0.328084,0.388938 0.07144,0.314854 -0.140229,0.193146 h -0.211667 l -0.351895,0.291042 -0.280459,0.582083 -0.211666,0.169333 -0.164042,1.068917 -0.515938,0.121708 -0.4445,0.534459 0.07144,1.481666 0.53975,1.23825 0.375708,0.267229 v 0.291042 l 0.187854,0.219604 -0.04763,0.314854 -0.211666,0.07144 -0.796396,-0.436563 -1.029229,-0.121708 -0.351896,0.341313 -0.140229,-0.0979 -0.328084,0.605896 -0.164041,0.195791 h -0.164042 l -0.280458,-0.121708 -0.140229,-0.243417 0.02381,-0.510646 0.256646,-0.46302 v -0.145521 l -0.396875,-0.169334 0.02381,-0.314854 0.187855,-0.04762 0.0926,-0.267229 -0.116417,-0.02381 v -0.41275 l -0.116417,-0.0979 -0.116416,-0.632354 -0.420688,-0.703792 -0.796396,-0.558271 0.04763,-0.291042 -0.30427,-0.02381 0.140229,-0.145521 -0.140229,-0.388937 0.187854,0.121708 v -0.145521 l -0.04763,-0.193146 h -0.211667 l -0.02381,-0.169333 0.679979,-0.436563 0.232833,-0.365125 0.116417,-0.534458 0.02381,-0.801687 -0.232833,-0.899584 -0.632354,-0.582083 -0.608542,-0.219604 -1.312333,-0.243417 -0.140229,0.267229 -0.844021,0.291042 -0.492125,-0.121708 -0.04763,-0.291042 -0.140229,-0.07408 0.53975,-0.923396 0.53975,-0.193146 -0.164042,-0.436562 -0.4445,-0.291042 -0.0926,-0.463021 -0.280458,-0.463021 0.468312,-0.777875 h 0.328083 L 14.914086,16.96859 15.265982,16.653736 V 16.14309 l -0.0926,-0.145521 -0.140229,0.07408 -0.14023,0.0979 -0.396875,-0.195792 -0.211666,-0.267229 -0.116417,-0.8255 0.304271,-0.314854 -0.187854,-0.0979 -0.02381,-0.314854 -0.187854,-0.291042 0.04763,-0.436562 -0.140229,-0.267229 -0.0926,-0.777875 0.140229,-0.341313 -0.04763,-0.923396 0.468312,-0.510645 0.164042,-0.7540634 0.396875,-0.195792 0.116417,-0.291041 h 0.632354 l 1.053042,-0.436563 0.07144,-0.169333 0.492125,-0.341313 0.116417,-0.243416 0.492125,0.291041 0.4445,0.02381 0.140229,-0.195792 0.187854,0.02381 0.140229,-0.169334 0.844021,-0.291041 0.328083,-0.558271 z"
     title="Sal"
     id="CV-SL"
     style="stroke-width:0.264583" />
  <path
     style="fill:#ffff00;stroke-width:0"
     d="m 74.017476,115.55518 c -0.45287,-0.88053 -0.345174,-1.581 0.514224,-3.34461 0.432954,-0.88848 0.366858,-1.19497 -0.374629,-1.73716 -0.721335,-0.52745 -0.786074,-0.79602 -0.325624,-1.35082 0.451797,-0.54438 0.411358,-1.24404 -0.189084,-3.27142 -1.086413,-3.66826 -1.884011,-5.02618 -3.519748,-5.992436 -0.788407,-0.465722 -1.433466,-1.217124 -1.433466,-1.669785 0,-0.452662 -0.185867,-0.937889 -0.413037,-1.078291 -0.22717,-0.140398 -0.309473,-0.797028 -0.182896,-1.459172 0.154864,-0.810117 0.01692,-1.206535 -0.421727,-1.211944 -0.358527,-0.0043 0.02824,-0.443713 0.859482,-0.976211 2.388588,-1.530137 3.210699,-5.41768 2.038402,-9.639053 -0.629862,-2.268097 -3.051575,-3.952154 -6.751933,-4.695295 -2.439895,-0.490001 -2.895653,-0.442305 -4.859951,0.508596 -2.204173,1.067019 -3.806615,1.002418 -4.257138,-0.171628 -0.344404,-0.8975 1.451774,-3.675742 2.564563,-3.966741 1.249716,-0.326812 1.176906,-1.770784 -0.143209,-2.840124 -1.707663,-1.383268 -2.379357,-3.797695 -1.519243,-5.460972 0.389938,-0.754057 1.032999,-1.371013 1.429024,-1.371013 0.56472,0 0.613248,-0.199552 0.224964,-0.925067 -0.32923,-0.615172 -0.334852,-1.024094 -0.01678,-1.220672 0.263062,-0.162582 0.478296,-1.038313 0.478296,-1.946069 0,-1.501506 -0.102771,-1.62467 -1.138711,-1.364665 -1.896575,0.47601 -3.595604,-2.974632 -2.167715,-4.402521 0.361511,-0.361511 0.279496,-1.047791 -0.282176,-2.361189 -0.502188,-1.1743 -0.858981,-3.616617 -0.975443,-6.677092 -0.164382,-4.319734 -0.08578,-4.914089 0.749854,-5.670331 0.513417,-0.464636 1.067526,-1.559292 1.231354,-2.432569 0.181267,-0.966239 0.651733,-1.700088 1.201849,-1.874688 0.497189,-0.157802 0.90398,-0.487101 0.90398,-0.731776 0,-0.244675 0.509348,-0.444864 1.131884,-0.444864 1.576002,0 5.051918,-1.627175 6.617772,-3.097967 1.053725,-0.989754 1.490911,-1.133721 2.234429,-0.735802 1.095311,0.586193 2.895131,0.65578 2.895131,0.111936 0,-0.210528 1.078202,-0.770494 2.396005,-1.24437 1.353229,-0.486614 2.626955,-1.306128 2.926661,-1.88301 0.291861,-0.56178 0.590282,-1.092233 0.663159,-1.178785 0.439171,-0.521574 2.536778,1.628447 2.781235,2.850731 0.217769,1.088847 0.488164,1.389567 1.05415,1.172378 0.502339,-0.192766 0.842684,0.01928 1.000681,0.623465 0.245107,0.93729 2.098475,1.711236 3.629295,1.515554 0.752079,-0.09614 0.823602,0.170765 0.586853,2.189967 -0.148285,1.264696 -0.587355,2.537765 -0.975712,2.829042 -0.388357,0.291277 -0.706104,0.90138 -0.706104,1.355785 0,0.454406 -0.429307,1.371967 -0.954016,2.039026 -1.24216,1.579151 -1.203782,2.329556 0.165008,3.226422 0.615463,0.403267 1.367738,1.563346 1.671722,2.577954 0.303984,1.014608 0.873691,2.111142 1.266016,2.436743 0.392325,0.3256 0.713318,0.897994 0.713318,1.271986 0,0.373991 0.590297,1.19139 1.311772,1.816442 1.052591,0.911915 1.193962,1.25611 0.715512,1.742049 -0.327943,0.333076 -0.59626,1.200204 -0.59626,1.926951 0,1.225316 -0.128681,1.313728 -1.770381,1.216371 -1.435817,-0.08515 -1.805701,0.0753 -1.957278,0.849027 -0.102793,0.524709 -0.519984,1.32966 -0.927092,1.78878 -0.407109,0.45912 -0.52673,0.834764 -0.265826,0.834764 0.648189,0 1.463321,1.912609 1.364774,3.202275 -0.04437,0.580656 -0.452328,1.466412 -0.906572,1.968346 -0.728344,0.804811 -0.73895,0.945975 -0.08979,1.195079 0.404858,0.155359 0.736105,0.705846 0.736105,1.223305 0,0.51746 0.205279,1.067705 0.456175,1.222767 0.250896,0.155063 0.352183,0.552931 0.225082,0.884152 -0.40508,1.055621 1.149126,4.610552 2.917599,6.67342 1.202779,1.403005 1.647999,2.325863 1.499543,3.10828 -0.230567,1.215182 0.837508,5.252397 1.588147,6.003035 0.798098,0.798097 0.520023,1.705805 -0.691706,2.257908 -0.638154,0.29076 -1.415483,1.144776 -1.727399,1.897805 -0.311915,0.753029 -0.73251,1.369147 -0.934654,1.369147 -0.202144,0 -0.553329,1.016971 -0.780413,2.259935 -0.302887,1.657884 -0.656767,2.306901 -1.328374,2.436241 -0.503522,0.09697 -1.316278,0.636238 -1.806123,1.198373 -1.655676,1.900025 -0.39953,9.345145 2.023508,11.993245 0.830239,0.90736 1.790049,3.57756 1.285961,3.57756 -0.130968,0 -1.173843,-0.42459 -2.317499,-0.94354 -3.130028,-1.42028 -5.281283,-1.26675 -7.051266,0.50323 -0.807244,0.80724 -1.467717,1.66586 -1.467717,1.90803 0,0.77109 -1.380663,0.47297 -1.826792,-0.39445 z"
     id="path2221"
     transform="scale(0.26458333)" />
</svg>
