<?xml version="1.0" encoding="UTF-8" standalone="no"?>
<!-- Created with Inkscape (http://www.inkscape.org/) -->

<svg
   width="150"
   height="150"
   viewBox="0 0 39.6875 39.6875"
   version="1.1"
   id="svg944"
   inkscape:version="1.1.1 (3bf5ae0d25, 2021-09-20)"
   sodipodi:docname="sl.svg"
   xmlns:inkscape="http://www.inkscape.org/namespaces/inkscape"
   xmlns:sodipodi="http://sodipodi.sourceforge.net/DTD/sodipodi-0.dtd"
   xmlns="http://www.w3.org/2000/svg"
   xmlns:svg="http://www.w3.org/2000/svg">
  <sodipodi:namedview
     id="namedview946"
     pagecolor="#ffffff"
     bordercolor="#666666"
     borderopacity="1.0"
     inkscape:pageshadow="2"
     inkscape:pageopacity="0.0"
     inkscape:pagecheckerboard="0"
     inkscape:document-units="mm"
     showgrid="false"
     units="px"
     inkscape:zoom="2.096401"
     inkscape:cx="75.844269"
     inkscape:cy="177.44697"
     inkscape:window-width="1001"
     inkscape:window-height="1040"
     inkscape:window-x="769"
     inkscape:window-y="59"
     inkscape:window-maximized="0"
     inkscape:current-layer="svg944" />
  <defs
     id="defs941" />
  <path
     d="m 20.245444,7.2504316 0.608542,0.41275 0.140229,0.754062 0.232833,-0.09789 0.304271,0.04763 0.04763,0.365125 0.632354,0.243416 0.07144,-0.121708 h 0.187854 l 0.280458,0.219604 -0.07144,0.243417 -0.116417,0.02381 0.116417,0.291042 -0.140229,0.243417 0.04763,0.2672294 -0.116417,0.169333 -0.304271,0.07408 -0.07144,0.67998 -0.328084,0.314854 -0.116416,0.291041 0.164041,0.26723 0.492125,0.243416 v 0.341313 l 0.256646,0.679979 0.351896,0.314854 v 0.41275 l 0.256646,0.07408 0.375708,0.436563 0.108479,-0.01323 0.05556,-0.132292 0.04763,0.121708 -0.396875,0.365125 -0.116417,0.534459 0.07144,0.145521 -0.14023,0.14552 -0.328083,-0.04763 -0.0926,-0.121708 h -0.399521 l -0.0926,0.510646 -0.211667,0.291042 -0.211666,0.07408 0.02381,0.0979 0.280458,-0.04763 0.07144,0.0979 -0.07144,0.169333 0.14023,0.04763 0.116416,0.41275 -0.116416,0.219604 0.0926,0.0979 -0.07144,0.291042 h -0.140229 l -0.232833,0.291041 0.187854,0.02381 0.140229,0.169333 -0.04763,0.314854 0.187854,0.0979 0.0926,0.243417 -0.0926,0.267229 0.396875,1.143 0.936625,0.997479 -0.187854,0.608542 0.140229,0.169333 0.140229,0.801687 0.328084,0.388938 0.07144,0.314854 -0.140229,0.193146 h -0.211667 l -0.351895,0.291042 -0.280459,0.582083 -0.211666,0.169333 -0.164042,1.068917 -0.515938,0.121708 -0.4445,0.534459 0.07144,1.481666 0.53975,1.23825 0.375708,0.267229 v 0.291042 l 0.187854,0.219604 -0.04763,0.314854 -0.211666,0.07144 -0.796396,-0.436563 -1.029229,-0.121708 -0.351896,0.341313 -0.140229,-0.0979 -0.328084,0.605896 -0.164041,0.195791 h -0.164042 l -0.280458,-0.121708 -0.140229,-0.243417 0.02381,-0.510646 0.256646,-0.46302 v -0.145521 l -0.396875,-0.169334 0.02381,-0.314854 0.187855,-0.04762 0.0926,-0.267229 -0.116417,-0.02381 v -0.41275 l -0.116417,-0.0979 -0.116416,-0.632354 -0.420688,-0.703792 -0.796396,-0.558271 0.04763,-0.291042 -0.30427,-0.02381 0.140229,-0.145521 -0.140229,-0.388937 0.187854,0.121708 v -0.145521 l -0.04763,-0.193146 h -0.211667 l -0.02381,-0.169333 0.679979,-0.436563 0.232833,-0.365125 0.116417,-0.534458 0.02381,-0.801687 -0.232833,-0.899584 -0.632354,-0.582083 -0.608542,-0.219604 -1.312333,-0.243417 -0.140229,0.267229 -0.844021,0.291042 -0.492125,-0.121708 -0.04763,-0.291042 -0.140229,-0.07408 0.53975,-0.923396 0.53975,-0.193146 -0.164042,-0.436562 -0.4445,-0.291042 -0.0926,-0.463021 -0.280458,-0.463021 0.468312,-0.777875 h 0.328083 L 14.914086,16.96859 15.265982,16.653736 V 16.14309 l -0.0926,-0.145521 -0.140229,0.07408 -0.14023,0.0979 -0.396875,-0.195792 -0.211666,-0.267229 -0.116417,-0.8255 0.304271,-0.314854 -0.187854,-0.0979 -0.02381,-0.314854 -0.187854,-0.291042 0.04763,-0.436562 -0.140229,-0.267229 -0.0926,-0.777875 0.140229,-0.341313 -0.04763,-0.923396 0.468312,-0.510645 0.164042,-0.7540634 0.396875,-0.195792 0.116417,-0.291041 h 0.632354 l 1.053042,-0.436563 0.07144,-0.169333 0.492125,-0.341313 0.116417,-0.243416 0.492125,0.291041 0.4445,0.02381 0.140229,-0.195792 0.187854,0.02381 0.140229,-0.169334 0.844021,-0.291041 0.328083,-0.558271 z"
     title="Sal"
     id="CV-SL"
     style="stroke-width:0.264583" />
</svg>
