<?xml version="1.0" encoding="UTF-8" standalone="no"?>
<!-- Created with Inkscape (http://www.inkscape.org/) -->

<svg
   width="150"
   height="150"
   viewBox="0 0 39.6875 39.6875"
   version="1.1"
   id="svg944"
   inkscape:version="1.1.1 (3bf5ae0d25, 2021-09-20)"
   sodipodi:docname="sncl.svg"
   xmlns:inkscape="http://www.inkscape.org/namespaces/inkscape"
   xmlns:sodipodi="http://sodipodi.sourceforge.net/DTD/sodipodi-0.dtd"
   xmlns="http://www.w3.org/2000/svg"
   xmlns:svg="http://www.w3.org/2000/svg">
  <sodipodi:namedview
     id="namedview946"
     pagecolor="#ffffff"
     bordercolor="#666666"
     borderopacity="1.0"
     inkscape:pageshadow="2"
     inkscape:pageopacity="0.0"
     inkscape:pagecheckerboard="0"
     inkscape:document-units="mm"
     showgrid="false"
     units="px"
     inkscape:zoom="2.096401"
     inkscape:cx="75.844269"
     inkscape:cy="177.44697"
     inkscape:window-width="1001"
     inkscape:window-height="1040"
     inkscape:window-x="769"
     inkscape:window-y="59"
     inkscape:window-maximized="0"
     inkscape:current-layer="svg944" />
  <defs
     id="defs941" />
  <path
     d="m 8.0476298,12.668068 v 0.03175 0 0 0 z m 0.936625,-0.849313 0.140229,0.121708 0.563563,0.04763 -0.02381,0.365125 0.140229,0.219605 0.3757092,-0.07408 0.468312,0.0979 0.328083,0.121708 0.280459,0.169334 0.4445,0.436562 0.0926,0.314854 0.211667,0.121709 -0.02381,0.243416 h 0.375708 l 0.23548,0.388938 0.116416,0.510646 0.351896,0.169333 0.328083,-0.121708 0.304271,0.169333 0.0926,0.727604 0.632355,0.436563 0.396875,-0.145521 0.608541,-0.460375 0.351896,-0.193146 0.98425,0.341313 0.04763,-0.121709 1.148292,-0.0979 0.375708,-0.436562 0.280458,-0.07408 -0.116416,-0.26723 0.656166,0.243417 0.563563,-0.121708 0.140229,0.0979 -0.02381,0.14552 0.84402,0.534459 0.375709,0.02381 0.0926,-0.219604 0.724958,0.314854 0.0926,0.193146 0.375709,0.219604 0.187854,-0.04763 0.280458,0.121709 0.140229,-0.0979 0.584729,0.873125 0.98425,0.608541 0.515938,-0.02381 0.515937,0.267229 0.67998,-0.02381 0.351895,-0.534459 0.396875,-0.314854 0.515938,0.04763 0.07144,0.219604 0.211667,-0.02381 0.584729,0.338666 h 1.008063 l 0.256646,-0.0979 0.256645,0.121708 0.820209,0.02381 0.211666,0.193146 0.304271,-0.07144 0.468313,0.145521 0.211666,-0.04763 0.328084,0.193145 0.420687,-0.04763 0.164042,0.219605 0.280458,0.14552 0.256646,0.02381 0.351896,0.243417 0.304271,-0.02381 0.328083,0.365125 0.04762,0.534458 0.280458,0.02381 0.256646,0.777875 0.420688,-0.145521 0.328083,0.121708 0.280458,-0.14552 0.140229,0.460375 0.375709,-0.0979 0.187854,0.169333 0.164042,0.338667 0.211666,0.02381 0.04762,0.193146 0.211667,0.145521 -0.0926,0.510646 -0.560917,0.727604 v 0.365125 l -0.632354,0.436562 -0.492125,-0.243416 -0.399521,-0.02381 -0.328083,0.169334 -0.0926,-0.41275 -0.304271,-0.216959 -0.679979,0.169334 -0.304271,-0.26723 h -0.187854 l -0.0926,0.26723 -0.304271,0.169333 -0.679979,0.219604 -0.889,0.02381 -0.211667,-0.07408 -0.116417,-0.267229 -0.187854,-0.0979 -0.187854,-0.04763 h -0.375708 l -0.187855,0.365125 -0.116416,-0.121708 -0.304271,0.02381 -0.187854,-0.193145 -0.235479,0.04763 -0.116417,0.219604 -0.351896,-0.02381 -0.07144,-0.169333 h -0.351896 l -0.304271,-0.169333 0.164042,-0.193146 -0.468313,-0.267229 -0.351896,-0.727605 -0.232833,-0.219604 -0.328083,0.169334 -0.187855,-0.04763 -0.0926,-0.193146 -0.468312,-0.243417 h -0.396875 l -0.608542,-0.243417 -0.0926,-0.169333 -0.280458,-0.04763 -0.164042,-0.243417 -0.632354,-0.41275 -0.164042,-0.243416 -0.679979,0.04763 -0.232833,-0.02381 -0.375709,-0.07144 -0.515937,0.195791 -0.0926,-0.169333 -0.211667,-0.04763 -0.468313,0.193146 -0.772583,-0.388938 -0.656166,0.121709 -0.492125,-0.0979 -0.560917,0.145521 -0.187854,-0.169334 -0.375709,0.388938 -0.420687,0.193146 -0.4445,0.608541 -0.98425,0.07408 -0.211667,-0.0979 -0.468312,0.41275 0.02381,0.193146 -0.53975,0.754062 -0.584729,0.193146 -0.187854,0.291042 0.02381,0.291041 -0.235479,0.193146 -0.04763,0.608542 0.0926,0.365125 -0.492125,0.04763 -0.164041,0.219604 -0.140229,0.341312 0.116416,0.365125 -0.187854,0.145521 -0.211667,0.582084 0.04763,0.460375 -0.328083,0.510645 -0.304271,0.04763 -0.140229,0.243417 0.0926,0.486833 -0.235479,0.121709 -0.211667,0.727604 0.04763,0.219604 0.256646,0.121708 -0.164041,0.41275 0.211666,0.02381 -0.256646,0.121708 -0.30427,-0.0979 -0.116417,0.121709 h -0.304271 l 0.06879,0.388937 -0.187854,-0.07144 -0.116417,-0.328084 v 0 l 0.193146,-0.232833 0.410104,-1.886479 0.227542,-0.566208 V 25.6432 l 0.682625,-1.698625 0.04498,-2.783416 -0.272521,-0.754063 -0.592667,-0.518583 -0.08996,-1.180042 -0.182564,-0.470924 -0.410104,-0.470959 -0.500062,-0.470958 H 8.9181088 l -0.637646,-0.283104 -0.272521,-0.613833 v -0.42598 l 0.137584,-0.330729 0.455083,-0.425979 0.08996,-0.709083 -0.637645,-1.463146 v -0.296333 0 l 0.254,-0.0979 0.04763,-0.243417 z"
     title="Ribeira Brava"
     id="CV-RB"
     style="stroke-width:0.264583" />
  <path
     d="m 8.0238168,12.644255 0.02381,0.05556 v 0 0 0 l 0.0026,0.04233 v 0 0.293687 l 0.637646,1.463146 -0.08996,0.709084 -0.455083,0.425979 -0.137583,0.328083 v 0.425979 l 0.27252,0.613834 0.637646,0.283104 h 1.5927922 l 0.500062,0.470958 0.410105,0.473604 0.182562,0.470959 0.08996,1.180041 0.592667,0.518584 0.272521,0.756708 -0.04498,2.783416 -0.682625,1.698625 v 0.849313 l -0.227542,0.566208 -0.410104,1.886479 -0.1905,0.230188 v 0 l -0.351896,-0.156104 -0.259292,0.41275 -0.116416,-0.05027 -0.06879,-0.558271 0.185208,-0.07144 -0.116416,-0.41275 0.235479,-0.195792 -0.02381,-0.362479 -0.30427,-0.341313 -0.2116672,-0.605896 -0.04763,-0.608541 -0.256646,-0.558271 -0.584729,-0.240771 -0.187854,-0.365125 -0.187854,-0.04763 -0.04763,-0.463021 -0.04498,-0.338666 -0.187854,-0.219605 0.04763,-0.291041 -0.142875,-0.338667 -0.537104,-0.0979 -0.211667,-0.243416 -0.02381,-0.243417 0.119062,-0.04763 -0.09525,-0.41275 0.116417,-0.219604 -0.2328332,-0.169333 0.1640412,-0.0979 L 7.6031298,21.608338 7.3914631,21.462818 7.251234,21.050068 6.6665048,20.684943 5.4944007,20.610859 5.0975257,20.24838 3.3645048,19.324984 3.3168799,19.10538 3.012609,18.814338 2.7083382,18.766713 2.520484,18.594734 l 0.1640417,-0.508 -0.4683125,-0.0979 -0.2804583,-0.243416 -0.09525,-1.166813 0.1878541,-0.314854 v -0.243413 l -0.1878541,-0.510645 0.1640416,-0.656167 0.3280834,-0.460375 0.2592916,0.145521 0.1164167,-0.04763 -0.2354792,-0.341313 0.2831042,-0.145521 0.5609167,0.04763 0.2804583,-0.291041 0.53975,0.05027 0.53975,-0.439209 0.2090208,0.05027 0.1640417,-0.388937 0.6323541,-0.07408 0.1640417,-0.216958 0.1164167,0.145521 0.4471458,-0.121709 0.4683125,0.36248 0.3042708,-0.09525 0.1164167,0.09525 z"
     title="Tarrafal de São Nicolau"
     id="CV-TS"
     style="stroke-width:0.264583" />
</svg>
