<?xml version="1.0" encoding="UTF-8" standalone="no"?>
<!-- Created with Inkscape (http://www.inkscape.org/) -->

<svg
   width="150"
   height="150"
   viewBox="0 0 39.6875 39.6875"
   version="1.1"
   id="svg944"
   inkscape:version="1.1.1 (3bf5ae0d25, 2021-09-20)"
   sodipodi:docname="sncl.svg"
   xmlns:inkscape="http://www.inkscape.org/namespaces/inkscape"
   xmlns:sodipodi="http://sodipodi.sourceforge.net/DTD/sodipodi-0.dtd"
   xmlns="http://www.w3.org/2000/svg"
   xmlns:svg="http://www.w3.org/2000/svg">
  <sodipodi:namedview
     id="namedview946"
     pagecolor="#ffffff"
     bordercolor="#666666"
     borderopacity="1.0"
     inkscape:pageshadow="2"
     inkscape:pageopacity="0.0"
     inkscape:pagecheckerboard="0"
     inkscape:document-units="mm"
     showgrid="false"
     units="px"
     inkscape:zoom="2.096401"
     inkscape:cx="76.321276"
     inkscape:cy="177.44697"
     inkscape:window-width="1064"
     inkscape:window-height="1040"
     inkscape:window-x="769"
     inkscape:window-y="0"
     inkscape:window-maximized="0"
     inkscape:current-layer="svg944" />
  <defs
     id="defs941" />
  <path
     d="m 8.0476298,12.668068 v 0.03175 0 0 0 z m 0.936625,-0.849313 0.140229,0.121708 0.563563,0.04763 -0.02381,0.365125 0.140229,0.219605 0.3757092,-0.07408 0.468312,0.0979 0.328083,0.121708 0.280459,0.169334 0.4445,0.436562 0.0926,0.314854 0.211667,0.121709 -0.02381,0.243416 h 0.375708 l 0.23548,0.388938 0.116416,0.510646 0.351896,0.169333 0.328083,-0.121708 0.304271,0.169333 0.0926,0.727604 0.632355,0.436563 0.396875,-0.145521 0.608541,-0.460375 0.351896,-0.193146 0.98425,0.341313 0.04763,-0.121709 1.148292,-0.0979 0.375708,-0.436562 0.280458,-0.07408 -0.116416,-0.26723 0.656166,0.243417 0.563563,-0.121708 0.140229,0.0979 -0.02381,0.14552 0.84402,0.534459 0.375709,0.02381 0.0926,-0.219604 0.724958,0.314854 0.0926,0.193146 0.375709,0.219604 0.187854,-0.04763 0.280458,0.121709 0.140229,-0.0979 0.584729,0.873125 0.98425,0.608541 0.515938,-0.02381 0.515937,0.267229 0.67998,-0.02381 0.351895,-0.534459 0.396875,-0.314854 0.515938,0.04763 0.07144,0.219604 0.211667,-0.02381 0.584729,0.338666 h 1.008063 l 0.256646,-0.0979 0.256645,0.121708 0.820209,0.02381 0.211666,0.193146 0.304271,-0.07144 0.468313,0.145521 0.211666,-0.04763 0.328084,0.193145 0.420687,-0.04763 0.164042,0.219605 0.280458,0.14552 0.256646,0.02381 0.351896,0.243417 0.304271,-0.02381 0.328083,0.365125 0.04762,0.534458 0.280458,0.02381 0.256646,0.777875 0.420688,-0.145521 0.328083,0.121708 0.280458,-0.14552 0.140229,0.460375 0.375709,-0.0979 0.187854,0.169333 0.164042,0.338667 0.211666,0.02381 0.04762,0.193146 0.211667,0.145521 -0.0926,0.510646 -0.560917,0.727604 v 0.365125 l -0.632354,0.436562 -0.492125,-0.243416 -0.399521,-0.02381 -0.328083,0.169334 -0.0926,-0.41275 -0.304271,-0.216959 -0.679979,0.169334 -0.304271,-0.26723 h -0.187854 l -0.0926,0.26723 -0.304271,0.169333 -0.679979,0.219604 -0.889,0.02381 -0.211667,-0.07408 -0.116417,-0.267229 -0.187854,-0.0979 -0.187854,-0.04763 h -0.375708 l -0.187855,0.365125 -0.116416,-0.121708 -0.304271,0.02381 -0.187854,-0.193145 -0.235479,0.04763 -0.116417,0.219604 -0.351896,-0.02381 -0.07144,-0.169333 h -0.351896 l -0.304271,-0.169333 0.164042,-0.193146 -0.468313,-0.267229 -0.351896,-0.727605 -0.232833,-0.219604 -0.328083,0.169334 -0.187855,-0.04763 -0.0926,-0.193146 -0.468312,-0.243417 h -0.396875 l -0.608542,-0.243417 -0.0926,-0.169333 -0.280458,-0.04763 -0.164042,-0.243417 -0.632354,-0.41275 -0.164042,-0.243416 -0.679979,0.04763 -0.232833,-0.02381 -0.375709,-0.07144 -0.515937,0.195791 -0.0926,-0.169333 -0.211667,-0.04763 -0.468313,0.193146 -0.772583,-0.388938 -0.656166,0.121709 -0.492125,-0.0979 -0.560917,0.145521 -0.187854,-0.169334 -0.375709,0.388938 -0.420687,0.193146 -0.4445,0.608541 -0.98425,0.07408 -0.211667,-0.0979 -0.468312,0.41275 0.02381,0.193146 -0.53975,0.754062 -0.584729,0.193146 -0.187854,0.291042 0.02381,0.291041 -0.235479,0.193146 -0.04763,0.608542 0.0926,0.365125 -0.492125,0.04763 -0.164041,0.219604 -0.140229,0.341312 0.116416,0.365125 -0.187854,0.145521 -0.211667,0.582084 0.04763,0.460375 -0.328083,0.510645 -0.304271,0.04763 -0.140229,0.243417 0.0926,0.486833 -0.235479,0.121709 -0.211667,0.727604 0.04763,0.219604 0.256646,0.121708 -0.164041,0.41275 0.211666,0.02381 -0.256646,0.121708 -0.30427,-0.0979 -0.116417,0.121709 h -0.304271 l 0.06879,0.388937 -0.187854,-0.07144 -0.116417,-0.328084 v 0 l 0.193146,-0.232833 0.410104,-1.886479 0.227542,-0.566208 V 25.6432 l 0.682625,-1.698625 0.04498,-2.783416 -0.272521,-0.754063 -0.592667,-0.518583 -0.08996,-1.180042 -0.182564,-0.470924 -0.410104,-0.470959 -0.500062,-0.470958 H 8.9181088 l -0.637646,-0.283104 -0.272521,-0.613833 v -0.42598 l 0.137584,-0.330729 0.455083,-0.425979 0.08996,-0.709083 -0.637645,-1.463146 v -0.296333 0 l 0.254,-0.0979 0.04763,-0.243417 z"
     title="Ribeira Brava"
     id="CV-RB"
     style="stroke-width:0.264583" />
  <path
     d="m 8.0238168,12.644255 0.02381,0.05556 v 0 0 0 l 0.0026,0.04233 v 0 0.293687 l 0.637646,1.463146 -0.08996,0.709084 -0.455083,0.425979 -0.137583,0.328083 v 0.425979 l 0.27252,0.613834 0.637646,0.283104 h 1.5927922 l 0.500062,0.470958 0.410105,0.473604 0.182562,0.470959 0.08996,1.180041 0.592667,0.518584 0.272521,0.756708 -0.04498,2.783416 -0.682625,1.698625 v 0.849313 l -0.227542,0.566208 -0.410104,1.886479 -0.1905,0.230188 v 0 l -0.351896,-0.156104 -0.259292,0.41275 -0.116416,-0.05027 -0.06879,-0.558271 0.185208,-0.07144 -0.116416,-0.41275 0.235479,-0.195792 -0.02381,-0.362479 -0.30427,-0.341313 -0.2116672,-0.605896 -0.04763,-0.608541 -0.256646,-0.558271 -0.584729,-0.240771 -0.187854,-0.365125 -0.187854,-0.04763 -0.04763,-0.463021 -0.04498,-0.338666 -0.187854,-0.219605 0.04763,-0.291041 -0.142875,-0.338667 -0.537104,-0.0979 -0.211667,-0.243416 -0.02381,-0.243417 0.119062,-0.04763 -0.09525,-0.41275 0.116417,-0.219604 -0.2328332,-0.169333 0.1640412,-0.0979 L 7.6031298,21.608338 7.3914631,21.462818 7.251234,21.050068 6.6665048,20.684943 5.4944007,20.610859 5.0975257,20.24838 3.3645048,19.324984 3.3168799,19.10538 3.012609,18.814338 2.7083382,18.766713 2.520484,18.594734 l 0.1640417,-0.508 -0.4683125,-0.0979 -0.2804583,-0.243416 -0.09525,-1.166813 0.1878541,-0.314854 v -0.243413 l -0.1878541,-0.510645 0.1640416,-0.656167 0.3280834,-0.460375 0.2592916,0.145521 0.1164167,-0.04763 -0.2354792,-0.341313 0.2831042,-0.145521 0.5609167,0.04763 0.2804583,-0.291041 0.53975,0.05027 0.53975,-0.439209 0.2090208,0.05027 0.1640417,-0.388937 0.6323541,-0.07408 0.1640417,-0.216958 0.1164167,0.145521 0.4471458,-0.121709 0.4683125,0.36248 0.3042708,-0.09525 0.1164167,0.09525 z"
     title="Tarrafal de São Nicolau"
     id="CV-TS"
     style="stroke-width:0.264583" />
  <path
     style="fill:#00ff00;stroke-width:0"
     d="m 39.242174,108.87707 c 0.04136,-1.11501 0.244243,-2.02728 0.450849,-2.02728 0.692467,0 0.385338,-1.36232 -0.816873,-3.62337 -0.655886,-1.23355 -1.19252,-2.86457 -1.19252,-3.624478 0,-1.358333 -0.785599,-2.358328 -3.487169,-4.438851 -0.862177,-0.663976 -1.245502,-1.416771 -1.260853,-2.476138 -0.01213,-0.83717 -0.240212,-1.656953 -0.506847,-1.821742 -0.266633,-0.164789 -0.364034,-0.495001 -0.216445,-0.733806 0.450255,-0.728526 -0.706328,-2.361937 -1.672437,-2.361937 -1.275002,0 -1.632937,-0.801442 -1.497509,-3.35303 0.213986,-4.031702 -2.197227,-6.664138 -6.104103,-6.664138 -1.02289,0 -2.319937,-0.379298 -2.958855,-0.865265 -0.625679,-0.475895 -2.4154,-1.575573 -3.977159,-2.443729 -1.561759,-0.868156 -3.240904,-2.088688 -3.731433,-2.712295 -0.490529,-0.623607 -1.223296,-1.13383 -1.62837,-1.13383 -0.524671,0 -0.6721496,-0.336623 -0.512765,-1.170391 0.179937,-0.941277 -0.03067,-1.259075 -1.0758362,-1.623423 C 7.9833716,67.430196 7.6980367,66.975291 7.4352409,65.222843 7.243422,63.943704 7.3337419,62.617909 7.6617448,61.898021 c 0.3995098,-0.876828 0.4050568,-1.459828 0.020723,-2.177963 -0.7704307,-1.439563 0.3431162,-4.62172 1.6226305,-4.636954 0.6333694,-0.0075 0.9038017,-0.2861 0.8104107,-0.834764 -0.106777,-0.62731 0.198967,-0.823447 1.28362,-0.823447 0.783081,0 1.556446,-0.214653 1.71859,-0.477008 0.162144,-0.262354 0.899817,-0.477008 1.639273,-0.477008 0.739455,0 1.611685,-0.32198 1.938287,-0.715511 0.326602,-0.393532 0.896256,-0.715512 1.265898,-0.715512 0.369642,0 0.789262,-0.305384 0.932491,-0.678631 0.321038,-0.836612 1.040901,-1.124389 3.722227,-1.488022 1.273424,-0.172698 2.215094,-0.08429 2.406843,0.225969 0.398231,0.644349 3.442183,0.670257 3.836245,0.03265 0.586612,-0.949159 1.071776,-0.424291 2.31485,2.504292 1.580353,3.723182 1.583747,4.84709 0.02025,6.705199 -1.031988,1.226448 -1.198687,1.802917 -0.984065,3.40304 0.270268,2.015004 1.699692,3.646789 3.114132,3.554995 0.476722,-0.03094 0.285999,-0.247406 -0.488637,-0.554595 -2.431849,-0.964372 -2.958703,-3.794053 -1.114487,-5.98578 1.519003,-1.805232 1.521279,-3.627716 0.009,-7.220691 l -1.183504,-2.811881 1.509777,-1.705321 c 1.823604,-2.059795 4.033273,-2.385931 4.282363,-0.632054 0.126316,0.889407 0.527213,1.116399 2.340193,1.325041 2.555041,0.294039 4.554576,1.467381 5.304147,3.112512 0.29252,0.64201 0.72472,1.16729 0.960446,1.16729 0.235726,0 0.29593,0.214654 0.133786,0.477008 -0.162144,0.262355 0.112713,0.477008 0.610793,0.477008 0.88987,0 2.012751,1.74227 2.012751,3.122997 0,0.70787 0.315605,0.827781 2.35276,0.893909 0.909213,0.02951 1.25288,0.393535 1.588416,1.682492 0.81887,3.145678 2.790856,3.638051 6.01192,1.501076 1.923348,-1.276021 2.196702,-1.33392 3.577559,-0.757761 1.909792,0.796857 6.268386,0.05437 7.797774,-1.32836 0.686457,-0.620631 1.824827,-0.98641 3.255345,-1.046004 1.8282,-0.07616 2.444318,0.13682 3.64768,1.260931 1.179465,1.101783 1.837311,1.337841 3.547967,1.273136 1.532326,-0.05796 2.388569,0.185516 3.167357,0.900649 0.587029,0.539044 1.762019,1.126993 2.611089,1.306554 0.924622,0.195538 1.94955,0.896353 2.555556,1.747405 1.352002,1.898713 4.375327,3.753216 6.118719,3.753216 0.776793,0 1.545015,0.214653 1.707159,0.477008 0.162145,0.262354 1.007952,0.477008 1.879569,0.477008 1.250596,0 1.853272,-0.35204 2.858172,-1.669528 1.46848,-1.92528 1.80813,-1.986115 4.35507,-0.78006 1.15207,0.545541 3.49593,0.997929 6.06171,1.169971 5.28036,0.354062 12.27927,1.694806 13.26501,2.541108 0.41419,0.355597 1.0074,0.646541 1.31825,0.646541 0.31085,0 1.04523,0.248016 1.63197,0.551147 0.58674,0.303131 1.38877,0.700425 1.7823,0.882876 0.39354,0.182451 0.78344,0.900375 0.86645,1.595388 0.083,0.695013 0.3625,1.26366 0.62107,1.26366 0.25858,0 0.69024,0.63137 0.95925,1.403044 0.45248,1.297991 0.64706,1.393739 2.59873,1.278769 1.49151,-0.08786 2.10962,0.0601 2.10962,0.504989 0,0.346094 0.37565,0.631548 0.83477,0.634341 0.45912,0.0028 1.537,0.727969 2.39529,1.6115 1.31014,1.348661 1.49032,1.79109 1.12297,2.757321 -0.24067,0.632994 -0.78192,1.436678 -1.20278,1.785963 -0.42086,0.349285 -0.76521,1.004819 -0.76521,1.456742 0,0.451923 -0.38692,1.171834 -0.85981,1.599803 -1.21847,1.102694 -5.64736,0.580427 -6.35934,-0.74991 -0.39003,-0.728779 -0.8167,-0.872877 -1.92703,-0.65081 -0.78435,0.156869 -1.87449,0.04524 -2.42255,-0.24807 -0.7931,-0.424456 -1.10944,-0.378771 -1.5501,0.223866 -1.28078,1.751578 -7.12802,2.579707 -7.94221,1.124834 -0.49198,-0.879128 -3.74337,-1.165908 -3.74337,-0.330174 0,0.654775 -1.59221,0.602025 -2.26942,-0.07518 -0.41825,-0.418253 -0.71409,-0.417833 -1.21964,0.0017 -0.76462,0.6346 -3.66606,0.216935 -3.66606,-0.527719 0,-0.265064 -0.48297,-0.950608 -1.07327,-1.52343 -0.5903,-0.572822 -1.44459,-1.734233 -1.89843,-2.580913 -0.66929,-1.24864 -0.98534,-1.453694 -1.67316,-1.08558 -0.61974,0.331672 -1.15016,0.20917 -1.970483,-0.455085 -0.617363,-0.499909 -1.581668,-0.909727 -2.142897,-0.910708 -1.190011,-0.0021 -3.535592,-1.345103 -6.366744,-3.645443 l -2.007264,-1.630923 -5.147856,0.111986 c -2.938856,0.06393 -5.557234,-0.104936 -6.101872,-0.393528 -0.524709,-0.278032 -2.671244,-0.470145 -4.77008,-0.426917 -4.161589,0.08571 -5.973728,0.843201 -7.911959,3.307264 -0.860022,1.09334 -1.361896,1.297268 -3.000027,1.21901 -2.729449,-0.130392 -3.443378,0.282647 -4.592872,2.657186 -0.681801,1.408415 -1.449608,2.222373 -2.413245,2.558299 -0.777318,0.270974 -1.533466,0.878502 -1.680335,1.350064 -0.146868,0.471562 -0.466018,1.230116 -0.709221,1.685676 -0.243203,0.455561 -0.442188,1.582492 -0.442188,2.504292 0,1.309245 -0.19201,1.676001 -0.877449,1.676001 -0.888668,0 -2.199724,2.128061 -1.754686,2.848147 0.133118,0.215389 -0.07749,1.004255 -0.468009,1.753033 -0.390523,0.748779 -0.711364,1.8585 -0.71298,2.466046 -0.0039,1.461338 -0.830567,2.949942 -1.638216,2.949942 -0.725005,0 -1.370544,1.2895 -0.96999,1.93761 0.142931,0.23127 -0.09546,0.96279 -0.529752,1.62561 -0.585632,0.89379 -0.70874,1.74453 -0.476526,3.29304 0.300454,2.00357 0.259294,2.09825 -1.018976,2.34379 -0.732644,0.14073 -1.398337,0.19068 -1.47932,0.111 -0.08098,-0.0797 0.40176,-2.36825 1.072763,-5.08571 0.671002,-2.71747 1.220231,-5.525564 1.220509,-6.240208 2.77e-4,-0.714644 0.644466,-2.920434 1.431529,-4.901749 1.285139,-3.235151 1.431024,-4.137599 1.431024,-8.852385 0,-5.574874 -0.513987,-7.620133 -2.319205,-9.228596 -0.569116,-0.507086 -1.019851,-1.482126 -1.019851,-2.206162 0,-2.572083 -0.6167,-4.270244 -2.239104,-6.165658 -0.908215,-1.061045 -1.892791,-1.929173 -2.187946,-1.929173 -0.295155,0 0.245426,0.804951 1.20129,1.78878 2.013923,2.072841 2.748752,3.75101 2.748752,6.277478 0,1.240496 0.318194,2.086562 1.019851,2.711743 1.77913,1.585218 2.319205,3.666359 2.319205,8.936903 0,4.420043 -0.155347,5.335017 -1.431024,8.428566 -0.787063,1.908648 -1.431024,4.04384 -1.431024,4.74487 0,0.70103 -0.411783,2.979031 -0.915074,5.062231 -0.50329,2.0832 -1.049658,4.40042 -1.214151,5.14938 -0.232484,1.05854 -0.506938,1.30739 -1.232587,1.11763 -0.568916,-0.14878 -1.109154,0.0646 -1.383234,0.54628 -0.329235,0.57864 -0.429577,0.24725 -0.374522,-1.23688 z"
     id="path1057"
     transform="scale(0.26458333)" />
</svg>
