<?xml version="1.0" encoding="UTF-8" standalone="no"?>
<!-- Created with Inkscape (http://www.inkscape.org/) -->

<svg
   width="150"
   height="150"
   viewBox="0 0 39.6875 39.6875"
   version="1.1"
   id="svg944"
   inkscape:version="1.1.1 (3bf5ae0d25, 2021-09-20)"
   sodipodi:docname="st.svg"
   xmlns:inkscape="http://www.inkscape.org/namespaces/inkscape"
   xmlns:sodipodi="http://sodipodi.sourceforge.net/DTD/sodipodi-0.dtd"
   xmlns="http://www.w3.org/2000/svg"
   xmlns:svg="http://www.w3.org/2000/svg">
  <sodipodi:namedview
     id="namedview946"
     pagecolor="#ffffff"
     bordercolor="#666666"
     borderopacity="1.0"
     inkscape:pageshadow="2"
     inkscape:pageopacity="0.0"
     inkscape:pagecheckerboard="0"
     inkscape:document-units="mm"
     showgrid="false"
     units="px"
     inkscape:zoom="2.096401"
     inkscape:cx="80.614348"
     inkscape:cy="140.71735"
     inkscape:window-width="1064"
     inkscape:window-height="1040"
     inkscape:window-x="73"
     inkscape:window-y="0"
     inkscape:window-maximized="0"
     inkscape:current-layer="svg944" />
  <defs
     id="defs941" />
  <path
     d="m 18.18033,20.113232 -0.91546,0.801691 -1.18268,0.420682 -0.045,0.608551 0.27252,0.375701 v 0.375711 l -0.41011,0.608541 0.18257,0.796402 -0.0344,0.873122 v 0 h -0.1561 v 0 l -0.50536,0.346611 -0.28046,1.558393 h -1.4605 l -0.33602,0.174631 -0.33602,0.463021 0.0556,0.576791 -0.44979,0.806982 -0.0556,0.3466 v 0.288401 l 0.44979,0.576792 -0.16933,0.23284 -0.50271,0.113774 -1.1086,1.473733 v 0 l -0.164053,-0.0953 -0.51593,0.0476 -0.21167,-0.362481 -0.3492502,-0.0953 -0.11906,-0.362481 0.16404,-0.264581 0.0952,0.0979 0.39687,-0.0741 -0.0688,-0.407461 0.23284,0.0476 -0.0238,-0.121711 0.28311,-0.16933 0.045,-0.2884 -0.20902,-0.0714 -0.0714,-0.216961 0.30427,-0.16933 -0.0238,-0.359832 -0.14023,0.0238 -0.14023,-0.216961 h -0.14023 l 0.0238,-0.16933 -0.39952,-0.38629 -0.1640395,-0.0238 -0.18521,-0.36247 -0.47096,-0.0714 -0.25664,-0.216959 -0.23284,-0.481542 -0.18785,-0.12171 -0.23548,0.0979 -0.11642,0.336021 -0.32808,0.0265 -0.3280801,-0.603251 -0.0238,-0.457731 -0.28045,-0.193151 -0.18786,-0.457731 -0.32808,-0.0741 -0.11642,-0.240772 0.0714,-0.336021 -0.49213,-0.19315 -0.25929,-0.31485 h -0.16404 l -0.0688,0.16933 -0.30427,-0.0476 0.0926,-0.338661 -0.28046,-0.407462 0.0926,-0.21696 0.30427,0.0714 0.25929,-0.121709 -0.0476,-0.433921 -0.32809,-0.552982 0.0952,-0.26458 -0.0952,-0.240771 0.67998,-0.362481 -0.0952,-0.26458 0.11906,-0.14552 -0.0952,-0.820212 0.14023,-0.481541 h 0.14288 l -0.0952,-0.362481 0.18785,-0.24077 -0.0238,-0.119071 -0.30427,-0.0264 0.0476,-0.288401 0.42069,-0.119059 0.42069,-0.627062 -0.0212,-0.216961 -0.32808,-0.19315 V 17.7108 l 0.14023,-0.0476 0.14023,-0.481542 -0.49213,-0.14553 0.0238,-0.746122 -0.11642,-0.193151 0.30427,-0.38629 -0.56356,-0.941912 0.32808,0.0264 0.3519,-0.24341 -0.14023,-0.457732 0.0688,-0.529171 0.49212,-0.619122 v 0 l 1.0451101,0.0159 0.61648,-0.28839 0.44979,0.23018 0.39423,0.404821 0.3360195,0.0582 0.16669,-0.0582 0.28045,-1.098033 0.505363,0.174631 0.16933,0.402171 0.33602,0.3466 h 1.12184 v 0 l 0.16933,1.502833 0.28046,0.230191 h 1.12183 l 0.39158,0.116421 1.01071,0.923391 0.39423,0.695863 -0.11377,0.51858 -0.61648,0.981613 -0.0556,0.28839 0.11112,0.232831 h 0.50536 l 0.89694,-0.232831 1.26735,-1.616603 v 0 l 0.58473,0.11641 0.11112,0.460381 -0.28045,0.867832 v 0.346611 l 0.33602,0.113773 v 0.346601 l -0.11113,0.232831 -0.44979,0.0582 -0.22225,0.17198 v 0.518591 0 z"
     title="Santa Catarina"
     id="CV-CA"
     style="stroke-width:0.264584" />
  <path
     d="m 24.13875,24.338631 -0.0926,-0.941912 -0.3175,-1.217093 -0.36512,-0.23547 h -0.50006 l -0.22754,0.0476 -0.63765,0.468311 h -0.18256 l -0.54504,-0.187851 -0.0926,-0.37306 -0.3175,-0.14023 -0.18256,-0.470961 -0.18786,-0.111128 v 0 l 0.2249,-0.129641 v 0 l 0.61648,-0.0556 V 20.528563 L 20.88439,20.181962 H 18.2465 v 0 l -0.16669,-0.174621 v 0 -0.51859 l 0.22225,-0.171981 0.44979,-0.0582 0.11113,-0.232829 v -0.346602 l -0.33602,-0.113774 v -0.34661 l 0.28045,-0.867832 -0.11112,-0.460381 -0.58473,-0.116411 v 0 l 0.0794,-0.11642 h 0.84137 l 0.39423,-0.113774 2.33362,-2.039946 v 0 l 0.23019,0.121711 0.16404,-0.0476 0.18521,0.336021 0.18786,-0.26459 0.23548,0.0714 0.0476,0.0741 -0.23548,0.119071 0.0238,0.457731 0.37307,-0.0476 0.16404,0.121709 -0.0926,0.433921 h -0.18785 l 0.0238,0.14287 -0.11641,0.0741 0.16404,0.169341 0.35189,0.0476 0.18521,0.264591 0.25929,0.0979 0.42069,-0.0265 -0.0238,-0.166681 0.16404,0.0238 -0.0476,0.529161 0.53975,-0.14287 0.2593,-0.291041 h 0.25664 l 0.3519,0.121711 0.23283,0.24077 -0.18785,0.386291 0.21166,-0.16933 0.30427,0.0714 0.18786,-0.19314 0.0926,0.457732 0.3519,0.0503 -0.0238,0.216961 0.11641,0.11906 -0.0688,0.291041 -0.16404,0.0238 -0.0714,0.19315 0.18786,0.193141 0.0238,0.336021 0.30427,-0.0238 0.14023,0.14552 0.49212,-0.0741 0.28046,0.267231 0.39952,0.0952 0.42069,-0.0476 0.0953,0.119071 -0.0476,0.748771 0.35189,0.772582 -0.16404,0.24077 0.23283,-0.0979 0.18786,0.24077 0.0238,0.216951 0.18785,0.0741 -0.11906,0.312211 0.16404,0.169331 v 0 l -0.32014,0.44979 -0.61648,1.616614 -0.56092,0.981602 -1.06627,0.865193 -0.67204,0.232829 -0.67469,-0.0582 -0.33602,-0.751412 -0.95515,-0.46303 -0.22225,-0.402161 v 0 z"
     title="Santa Cruz"
     id="CV-CR"
     style="stroke-width:0.264584" />
  <path
     d="m 28.4541,38.028213 0.11642,0.193139 -0.0476,0.169331 h -0.0926 l -0.0714,-0.240771 z m 3.7465,-5.516583 0.30427,0.674691 0.14023,0.0952 0.28046,-0.0714 0.0238,0.24077 -0.16404,0.0476 0.0476,0.19314 -0.23284,0.26459 -0.58473,0.362481 h -0.14022 l -0.0926,-0.24077 -0.18785,-0.0238 0.23548,0.362481 h 0.35189 l 0.0476,0.26459 -0.28046,0.362481 0.0238,0.14552 -0.23283,0.145521 -0.11642,-0.0476 -0.11642,0.16934 -0.0926,0.193141 0.11642,0.26458 -0.0714,0.338671 -0.60854,0.674692 V 37.5308 l 0.11641,0.169331 -0.28045,0.674691 -0.28046,-0.0238 -0.0476,-0.433921 -0.53975,0.0714 -0.14023,0.169331 -0.21166,-0.21696 -0.37571,0.26459 0.0476,-0.19315 -0.21166,-0.14552 -0.21167,-0.481542 -0.4445,0.193141 v 0.16934 l -0.16404,0.0714 0.11642,0.505361 -0.14023,0.362481 0.11641,0.216961 -0.25664,-0.169341 -0.0238,-0.14552 -0.28045,-0.0714 -0.14023,0.14553 -0.23284,-0.14553 -0.30427,0.14553 -0.4445,-0.0952 -0.30427,0.121701 -0.35189,-0.145521 -0.18786,0.0476 -0.37571,-0.216961 -0.30691,0.216961 v 0 L 24.64146,37.856241 24.27633,37.528149 23.36617,36.030607 22.50098,35.001375 22.27344,34.204983 21.90831,33.644061 21.86331,32.84766 21.649,32.260288 v 0 h 0.30162 v 0 l 0.50536,-0.34661 1.57162,-0.576791 1.68275,-0.116411 0.9525,-0.346612 1.06627,-0.0582 2.07698,0.806982 1.62719,0.288401 0.81756,0.579441 v 0 z"
     title="Praia"
     id="CV-PR"
     style="stroke-width:0.264584" />
  <path
     d="m 21.64637,32.247049 0.21432,0.590021 0.0476,0.796403 0.36248,0.56091 0.22754,0.796402 0.86519,1.029232 0.91017,1.497544 0.36512,0.328081 0.34661,0.735541 v 0 h -0.58473 l -0.23284,-0.48154 -0.23548,0.121709 -0.25664,-0.0503 -0.0714,-0.166692 -0.23283,0.166692 -0.16404,-0.142872 -0.0238,0.193141 -0.23283,0.0952 -0.0714,-0.264581 -0.46831,-0.0953 -0.16404,0.119059 h -0.32809 l -0.0688,0.193151 h -0.44714 l -0.045,-0.264591 -0.70379,-0.21696 -0.32809,0.0714 -0.39687,-0.362481 -0.23548,0.19315 -0.4445,-0.0714 -0.11642,0.119061 h -0.25929 l -0.0926,0.26723 -0.28046,-0.0238 -0.25929,-0.36248 0.11906,-0.145521 -0.0714,-0.288401 -0.93662,-0.14287 -0.37571,-0.169331 -0.77259,-0.457731 -0.70114,-0.772591 -0.21167,-0.0238 -0.23548,0.14552 -0.0212,-0.16933 -0.11907,-0.0238 -0.18785,0.1217 -0.0688,-0.169331 H 14.4471 l -0.18785,-0.28839 -0.20902,-0.0476 -0.65617,-0.748771 -0.51594,-0.119061 0.0238,-0.14552 -0.18785,-0.0238 -0.0476,-0.362481 h -0.11642 l -0.0926,-0.1905 -0.25929,-0.0265 -0.34925,-0.336021 -0.16404,-0.579442 -0.49212,-0.407461 v -0.31485 0 l 1.1086,-1.473734 0.50271,-0.113773 0.16933,-0.232841 -0.44979,-0.576791 0.0556,-0.635001 0.44979,-0.806982 -0.0556,-0.576792 0.33602,-0.46302 0.33602,-0.174631 h 1.4605 l 0.28046,-1.558393 0.50536,-0.346611 v 0 h 0.44714 v 0 l 0.28046,0.17463 0.44185,0.0609 v 0 l 0.90488,1.439344 0.38894,0.132289 v 0 l 0.11641,0.388941 0.50536,0.460371 0.22489,0.635002 -0.11377,1.444632 -0.44714,0.690562 0.16668,0.521232 1.79653,1.095371 0.67204,0.230192 v 0 z"
     title="Ribeira Grande de Santiago"
     id="CV-RS"
     style="stroke-width:0.264584" />
  <path
     d="m 29.7876,22.100257 0.11907,0.0714 -0.0952,0.338659 h 0.51593 l 0.11642,0.193151 -0.045,0.240771 0.34925,0.21696 -0.0926,0.481542 0.16404,0.0238 -0.0714,0.16934 h 0.3519 l -0.0238,0.26458 h 0.14023 v 0.216961 l 0.21167,0.14552 -0.25665,0.264581 0.16405,0.193151 0.20902,-0.0238 -0.0688,0.21695 h 0.14023 l 0.0688,-0.362481 0.18785,0.386301 0.18785,0.0476 -0.16404,-0.21696 0.32809,0.0476 v 0.362481 l -0.16405,0.264581 0.46832,-0.121711 0.39952,0.291041 0.32808,-0.0238 0.23283,0.26458 0.0714,0.433922 -0.21167,-0.121711 -0.16404,0.0979 -0.37571,-0.0476 0.0476,0.142881 -0.16404,0.121711 h 0.32808 l -0.0476,0.38629 0.35189,-0.362481 0.30427,0.0238 0.16404,-0.19314 0.16405,0.0714 -0.14023,0.267232 0.0476,0.0952 0.20902,-0.0476 -0.11641,0.24077 0.0953,0.410101 -0.0714,0.264592 0.16404,0.24077 -0.16404,0.38629 0.25664,0.0714 0.16405,-0.2884 0.18785,-0.0238 0.18785,0.193141 -0.0238,0.21696 0.23548,0.16669 -0.0952,0.0503 0.11906,0.1905 -0.0476,0.169331 -0.16404,0.0476 -0.21167,-0.11906 -0.14023,0.529161 0.11642,0.12171 h 0.37571 l 0.16404,0.216961 -0.82021,0.0714 0.32808,0.0714 0.11642,0.216961 0.30427,-0.0952 -0.25665,0.55298 0.23548,0.555632 -0.3757,0.4101 0.0238,0.142881 -0.23548,-0.26459 -0.16404,-0.0238 -0.18786,-0.31221 -0.0212,0.0952 h -0.28311 l -0.14023,0.41011 -0.23283,0.24077 -0.37571,0.0953 -0.23548,0.362481 -0.53446,-0.0529 v 0 l -0.8202,-0.579442 -1.62455,-0.28839 -2.07698,-0.809632 -1.06627,0.0582 -0.9525,0.346602 -1.68539,0.11642 -1.56898,0.576791 -0.50536,0.343961 v 0 H 21.2761 v 0 l -0.67204,-0.230191 -1.79653,-1.095372 -0.16668,-0.521232 0.44714,-0.690561 0.11377,-1.444633 -0.22489,-0.635002 -0.50536,-0.460371 -0.11641,-0.38894 v 0 l 1.23825,0.1561 1.17739,-0.230181 2.13254,-1.328212 0.50536,-0.865193 0.22489,-0.230189 0.39159,-0.0582 v 0 l 0.33866,0.34661 v 0 l 0.22225,0.402161 0.95515,0.463031 0.33602,0.751412 0.67469,0.0582 0.67204,-0.232831 1.06627,-0.865193 0.56092,-0.981601 0.61648,-1.616614 z"
     title="São Domingos"
     id="CV-SD"
     style="stroke-width:0.264584" />
  <path
     d="m 15.65356,8.5958965 0.0582,0.0952 h 0.18785 l 0.0238,-0.0952 0.74877,0.0952 0.25929,0.2169505 0.34925,-0.0714 0.0952,0.1190603 -0.0714,0.3148508 0.46831,0.1455202 -0.18785,0.2884007 0.3519,0.1931504 0.14022,0.0979 0.14023,0.1905006 0.3519,-0.11906 0.37571,0.31221 h 0.42069 l 0.0476,0.216961 0.25665,0.26723 0.0476,0.552971 h 0.32808 l 0.0238,0.121711 0.25664,0.0952 0.21167,0.555631 -0.0714,0.31485 0.11642,0.142881 0.16404,-0.142881 0.14288,0.0476 0.045,0.4101 0.23548,0.0952 -0.0714,0.603252 0.23548,-0.0238 0.0238,0.14552 0.18521,-0.0979 0.0238,0.12171 0.30427,0.14552 -0.11642,0.193151 0.005,0.359831 v 0 l -2.33362,2.039944 -0.39423,0.113774 h -0.84137 l -0.0794,0.11642 v 0 l -1.26735,1.616604 -0.89694,0.23283 h -0.50536 l -0.11112,-0.23283 0.0556,-0.288391 0.61648,-0.981612 0.11377,-0.518582 -0.39423,-0.695861 -1.01071,-0.923393 -0.39158,-0.116419 h -1.12183 l -0.28046,-0.230191 -0.16933,-1.502833 v 0 l 0.73025,-0.865192 0.0265,-0.653522 1.57163,-1.6642333 z"
     title="São Miguel"
     id="CV-SM"
     style="stroke-width:0.264584" />
  <path
     d="m 24.13875,24.338631 -0.11377,-0.113774 v 0 l -0.39159,0.0582 -0.73025,1.095383 -2.13254,1.328213 -1.17739,0.23018 -1.23825,-0.1561 v 0 L 17.96602,26.648442 17.06114,25.2091 v 0 l 1.69069,-1.272643 0.28046,-0.521232 v -0.576791 l 0.39423,-1.039823 0.78317,-0.463021 v 0 l 0.28045,-0.158749 v 0 l 0.18786,0.111128 0.18256,0.470961 0.3175,0.14023 0.0926,0.373062 0.54504,0.18785 h 0.18256 l 0.63765,-0.468311 0.22754,-0.0476 h 0.50006 l 0.36512,0.235471 0.3175,1.217092 z"
     title="São Lourenço dos Órgãos"
     id="CV-SO"
     style="stroke-width:0.264584;fill:#008000" />
  <path
     d="m 16.04779,24.973633 0.0344,-0.873122 -0.18257,-0.796402 0.41011,-0.608541 v -0.375711 l -0.27252,-0.375701 0.045,-0.608551 1.18268,-0.420682 0.91546,-0.801691 v 0 l 0.0661,0.0688 v 0 h 2.63789 l 0.44715,0.346601 v 0.463031 l -0.61648,0.0556 v 0 l -0.50535,0.288391 v 0 l -0.78317,0.463022 -0.39423,1.039821 v 0.576791 l -0.28046,0.521232 -1.69069,1.272643 v 0 l -0.44185,-0.0609 -0.28046,-0.17463 v 0 z"
     title="São Salvador do Mundo"
     id="CV-SS"
     style="stroke-width:0.264584" />
  <path
     d="m 6.7185767,2.3464229 0.23548,0.2645807 0.28046,-0.1190603 V 2.2723328 l -0.16404,-0.1693304 0.4445,-0.0714 -0.23548,-0.3386607 0.0476,-0.433921 0.16405,-0.0476 0.0926,0.1217002 0.16669,-0.0741 V 1.1135013 l 0.2090201,0.1693304 0.28046,-0.1190602 0.18785,0.0476 -0.0688,-0.1931504 0.11642,-0.12171035 -0.0238,-0.2645806 0.4445,0.0953002 0.21167,0.38894095 0.32808,-0.12171035 0.0238,0.21696055 0.7011392,0.1217002 0.0714,0.3122108 0.164041,0.0741 0.16404,-0.2196104 0.21167,0.0741 -0.0714,-0.3624708 0.16404,-0.1217103 0.420693,0.1693304 0.3519,-0.0238 0.0238,0.1217102 0.18785,-0.0741 v 0.2434206 l -0.11906,0.0714 0.18785,0.1217103 h 0.28046 L 12.3621,1.4045509 h 0.14288 l 0.18521,0.1693303 -0.0688,0.1693404 0.32808,0.1931405 0.0238,0.1693404 0.42069,0.2169604 -0.0238,0.1190602 0.25664,0.3386608 -0.0688,0.2407806 0.21167,0.1217002 -0.25929,0.7223216 -0.42069,-0.0714 -0.16404,0.1455202 0.0926,0.2645807 0.28046,0.0476 -0.30427,1.0874419 0.0476,0.4815411 0.18786,0.1217103 -0.0238,0.5053511 0.23547,0.5556213 0.67734,0.8440318 h 0.2831 l 0.1614,0.2407706 0.37571,0.0714 -0.0238,0.1958004 0.30427,-0.2672305 0.43392,0.5080011 v 0 l -0.57679,1.354663 -1.57163,1.6642337 -0.0265,0.653521 -0.73025,0.865192 v 0 H 11.6265 l -0.33602,-0.346601 -0.16933,-0.40217 -0.505363,-0.17463 -0.28045,1.098032 -0.166691,0.0582 -0.3360192,-0.0582 -0.39423,-0.404822 -0.44979,-0.230179 -0.61648,0.28839 -1.0451101,-0.0159 v 0 l 0.14023,-0.732902 0.14023,-0.19315 -0.0926,-0.28839 0.0926,-0.989543 0.11906,-0.19315 0.3280901,-0.0952 0.5371,-0.4841903 0.0953,-0.1666804 -0.0476,-0.5556312 0.14023,-0.2910407 -0.0238,-0.3360207 -0.32808,-0.5318112 -0.60854,-0.410111 -0.3968801,0.0714 0.045,-0.2169605 -0.25664,-0.5529812 0.0238,-0.7725817 -0.0952,-0.1931505 0.51594,-0.2169604 0.0238,-0.2169506 -0.28046,-0.2645905 -0.14023,0.0476 -0.0238,-0.1455203 h -0.14023 l -0.11906,-0.3148603 -0.7964,-0.0952 -0.0926,-0.0979 0.0476,-0.3598408 -0.23548,-0.1217003 0.46832,-0.6270713 0.65616,0.1217103 0.11642,-0.1693304 -0.045,-0.2434206 0.18521,-0.2407706 -0.0212,-0.1693303 -0.30427,-0.1666904 -0.2831,0.0476 -0.11642,-0.3624708 z"
     title="Tarrafal"
     id="CV-TA"
     style="stroke-width:0.264584;fill:#000000;fill-opacity:1" />
  <path
     style="fill:#008000;stroke-width:0"
     d="m 120.51406,121.44307 c -0.86194,-0.70505 -2.52464,-1.30904 -4.53158,-1.64613 -1.74355,-0.29285 -4.78,-1.17184 -6.74765,-1.95331 -4.06222,-1.61333 -7.35687,-1.84508 -10.494179,-0.73817 -1.115387,0.39353 -2.921832,0.71551 -4.014321,0.71551 -2.609217,0 -7.011605,1.16873 -9.936845,2.63799 -2.874395,1.44373 -4.314446,1.46294 -6.849592,0.0914 -7.15788,-3.87257 -7.879828,-4.61229 -6.468285,-6.62755 0.952513,-1.35991 1.568992,-6.85439 0.952317,-8.4877 -0.251028,-0.66486 -1.033055,-1.82713 -1.737839,-2.58283 l -1.281425,-1.374 2.442454,0.30896 c 3.669949,0.46422 6.630888,-0.39988 11.078985,-3.233232 2.80452,-1.786422 4.288734,-3.085307 5.021478,-4.394464 1.295704,-2.314971 2.772394,-2.656415 3.919177,-0.906202 0.450188,0.687073 1.66948,1.68335 2.709538,2.213948 1.201205,0.612809 2.088149,1.490328 2.431427,2.405591 0.521295,1.389898 0.627503,1.433685 3.00248,1.237843 4.71095,-0.38847 8.75977,-4.906691 11.1188,-12.40785 0.53258,-1.693475 1.44488,-2.865832 1.44488,-1.856752 0,0.259591 0.48297,0.540576 1.07327,0.624411 0.5903,0.08384 1.0349,0.367082 0.98801,0.629437 -0.0469,0.262354 0.24745,0.844657 0.65411,1.294006 0.40665,0.449348 0.60963,1.155098 0.45106,1.568332 -0.17822,0.464435 0.0274,0.867765 0.53841,1.056241 1.16182,0.428494 1.52651,1.100357 1.53493,2.82775 0.007,1.468006 1.01183,2.39821 1.95838,1.81321 0.23868,-0.147511 0.43396,-0.01792 0.43396,0.287991 0,0.305907 0.32463,0.43162 0.72141,0.279363 0.56631,-0.217311 0.65745,-0.02201 0.42394,0.908374 -0.22081,0.879794 -0.13014,1.12367 0.35186,0.94641 0.95794,-0.352288 4.46539,0.992786 4.46539,1.712431 0,0.340507 -0.52072,0.742029 -1.15715,0.892271 -1.16256,0.274441 -1.99547,1.439371 -1.02914,1.439371 0.28422,0 0.51676,0.35525 0.51676,0.78944 0,0.73459 0.0606,0.73459 0.87233,0 2.00899,-1.81811 2.91783,-0.79336 3.01222,3.39638 0.055,2.44288 0.98,3.70019 1.5772,2.14391 0.33723,-0.87879 0.78678,-0.47402 1.60199,1.44238 0.5008,1.17729 0.46968,1.3162 -0.26716,1.19252 -0.59904,-0.10055 -0.8765,0.22955 -0.98491,1.17179 -0.10988,0.95491 0.06,1.31177 0.62441,1.31177 1.1678,0 0.34605,0.94824 -0.85939,0.99168 -0.70781,0.0255 -0.81693,0.12722 -0.33812,0.31516 1.19649,0.46965 1.92731,1.44915 1.63994,2.19801 -0.15062,0.39252 -0.0472,1.13722 0.22986,1.65488 0.37604,0.70263 0.34022,1.07689 -0.14132,1.47653 -0.68341,0.56718 -2.19697,0.23224 -2.19697,-0.48619 0,-0.85863 -1.0724,-0.38916 -2.29579,1.00505 -0.69064,0.78707 -1.50693,1.43103 -1.81397,1.43103 -0.30704,0 -0.6818,0.32198 -0.83282,0.71551 -0.40348,1.05145 -2.25518,0.84141 -3.81252,-0.43247 z"
     id="path1442"
     transform="scale(0.26458333)" />
  <path
     style="fill:#00ff00;stroke-width:0"
     d="m 62.193574,94.37064 c -1.372141,-0.664859 -1.988007,-5.720142 -0.899289,-7.381737 0.821911,-1.254395 0.938191,-2.842339 0.239744,-3.274003 -0.262354,-0.162144 -0.477008,-0.892123 -0.477008,-1.622175 0,-1.127002 0.277588,-1.410535 1.83894,-1.878328 1.011418,-0.303028 2.78231,-1.300863 3.935316,-2.21741 2.079154,-1.652761 2.13567,-1.666489 6.87957,-1.671081 3.563016,-0.0034 5.053637,0.184795 5.843348,0.737931 1.416958,0.992476 1.366809,2.119487 -0.09431,2.119487 -0.634956,0 -2.328377,0.695673 -3.763157,1.545939 -2.149941,1.274079 -2.744234,1.924179 -3.379468,3.696812 -0.423929,1.18298 -0.769717,2.700144 -0.76842,3.371474 0.003,1.540484 -0.510523,2.157341 -4.081895,4.903488 -2.999882,2.306709 -3.579664,2.490274 -5.273368,1.669603 z"
     id="path1481"
     transform="scale(0.26458333)" />
  <path
     style="fill:#00ff00;stroke-width:0"
     d="m 97.213367,97.167961 c -0.549737,-1.152809 -1.301115,-1.838699 -2.418072,-2.207331 -1.193027,-0.393732 -1.893038,-1.080509 -2.653638,-2.603462 -0.568223,-1.137759 -1.033133,-2.540382 -1.033133,-3.116946 0,-1.904851 -1.106543,-5.515419 -1.871452,-6.106413 -1.117975,-0.863781 -2.954576,-0.726044 -4.568156,0.342587 -2.146248,1.421403 -3.183232,1.20145 -4.906504,-1.040726 -0.843207,-1.097114 -1.533104,-2.170382 -1.533104,-2.385043 0,-0.214662 0.643961,-0.390295 1.431024,-0.390295 1.190018,0 1.431024,-0.191599 1.431024,-1.137659 0,-2.037602 -1.764894,-2.678405 -7.376841,-2.678405 -4.987812,0 -5.025366,-0.0086 -5.025366,-1.145856 0,-0.844312 0.37659,-1.277137 1.431024,-1.644714 1.085881,-0.378541 1.431024,-0.792461 1.431024,-1.716191 0,-0.803103 -0.262404,-1.217334 -0.771146,-1.217334 -0.57933,0 -0.689188,-0.266967 -0.441653,-1.073268 0.181222,-0.590298 0.448221,-2.092873 0.593332,-3.339056 0.214193,-1.839452 0.125126,-2.265788 -0.473351,-2.265788 -0.405453,0 -1.041734,-0.116866 -1.413958,-0.259701 -0.436969,-0.167681 -1.50716,0.844661 -3.020313,2.857049 -1.734867,2.307254 -2.77716,3.241249 -4.013071,3.596097 -3.881961,1.114568 -4.362884,0.450247 -2.330296,-3.218943 1.909319,-3.446665 1.680023,-4.774986 -1.320563,-7.650052 -2.508356,-2.403428 -3.752077,-2.956578 -6.647672,-2.956578 -1.844595,0 -2.18911,-0.1626 -2.592491,-1.223573 -0.894046,-2.351518 -0.572155,-5.187762 0.727319,-6.408554 0.77537,-0.728423 1.19252,-1.638343 1.19252,-2.601221 0,-1.188432 0.60819,-2.083691 3.079483,-4.533018 2.073213,-2.054784 3.416211,-3.881755 4.109969,-5.591064 0.9924,-2.445114 1.097917,-2.538953 2.854965,-2.538953 1.003463,0 1.957142,0.214654 2.119286,0.477008 0.162144,0.262355 0.711446,0.477008 1.220671,0.477008 0.509226,0 0.925865,0.321981 0.925865,0.715512 0,0.393532 0.214653,0.715512 0.477008,0.715512 0.262354,0 0.477008,0.414842 0.477008,0.921872 0,0.507029 0.429307,1.058128 0.954016,1.224664 0.524709,0.166536 0.954016,0.502982 0.954016,0.747657 0,0.244674 0.523965,0.444863 1.164368,0.444863 0.640403,0 1.297032,0.214654 1.459176,0.477008 0.162144,0.262355 0.693767,0.477008 1.181386,0.477008 0.565569,0 1.203052,0.679069 1.760628,1.875482 0.480727,1.031515 1.351098,2.097483 1.934158,2.368818 0.583059,0.271334 1.191285,1.090933 1.351613,1.821329 0.474644,2.162314 0.694135,2.674213 1.010845,2.357503 0.391102,-0.391102 1.586017,1.922229 1.586017,3.070497 0,0.551943 0.4533,1.004174 1.19252,1.189706 2.301409,0.577617 1.507075,2.123179 -3.17885,6.185198 -2.404254,2.08414 -4.819106,3.92894 -5.366339,4.099554 -0.974849,0.303934 -0.973676,0.311169 0.058,0.357756 0.678241,0.03063 2.595215,-1.310496 5.38664,-3.768516 2.383521,-2.098835 4.616452,-3.816064 4.96207,-3.816064 0.345617,0 1.034105,0.555894 1.529974,1.235319 0.495869,0.679425 1.397101,1.430172 2.002738,1.668325 1.033114,0.40625 1.055221,0.498592 0.357756,1.494363 -0.981857,1.401798 -0.941149,1.676045 0.307618,2.072389 0.578061,0.18347 1.360207,0.642767 1.738101,1.020661 0.414909,0.414909 1.132307,0.575336 1.811027,0.404988 0.811127,-0.20358 1.123948,-0.08042 1.123948,0.442507 0,0.960328 1.374916,0.923237 2.468669,-0.0666 1.231648,-1.114626 3.46872,-0.155286 3.009782,1.290706 -0.269543,0.849246 -0.153969,0.930265 0.936586,0.656553 0.975858,-0.244924 1.502589,-0.0333 2.443148,0.981589 0.87436,0.943453 1.06401,1.456589 0.70029,1.894841 -0.27433,0.330555 -0.37066,1.241672 -0.21405,2.024705 0.24188,1.20943 0.51591,1.432387 1.82079,1.481443 0.84483,0.03176 2.16639,0.386446 2.9368,0.788189 0.77041,0.401744 1.8621,0.731767 2.42598,0.733383 1.03321,0.003 1.19095,0.515964 1.72437,5.607782 0.0618,0.590298 0.3732,1.073268 0.69192,1.073268 0.82657,0 1.53177,1.524379 1.33702,2.890153 -0.19823,1.390235 -2.71534,7.489178 -4.12883,10.004141 -1.62638,2.893754 -4.92152,5.347092 -7.51674,5.596458 -2.134799,0.205127 -2.237589,0.155232 -3.0079,-1.460131 z"
     id="path1520"
     transform="scale(0.26458333)" />
  <path
     style="fill:#00ff00;stroke-width:0"
     d="m 36.063357,48.840915 c -0.965899,-0.849165 -1.683724,-1.121118 -2.38504,-0.903587 -0.551799,0.171154 -2.053686,0.432876 -3.337526,0.581606 l -2.334255,0.270416 0.33771,-1.37904 c 0.18574,-0.758472 0.33906,-1.808347 0.34071,-2.333056 0.0081,-2.585457 0.524837,-5.008584 1.068026,-5.008584 1.401341,0 3.077239,-2.609992 3.405325,-5.303347 0.320143,-2.62815 0.292414,-2.713825 -1.438557,-4.444797 -0.970746,-0.970745 -2.038491,-1.660041 -2.372766,-1.531768 -0.859288,0.32974 -1.680521,-1.744838 -1.680521,-4.245292 0,-1.570075 0.186623,-2.124091 0.715512,-2.124091 1.186727,0 0.807847,-1.439017 -0.765958,-2.909172 -0.898666,-0.839478 -2.002709,-1.3839 -2.80644,-1.3839 -1.058285,0 -1.374164,-0.257346 -1.569384,-1.278571 -0.35481,-1.856069 0.541137,-3.010477 2.237194,-2.882576 1.233619,0.09303 1.474628,-0.101716 1.895403,-1.531549 0.351294,-1.193732 0.33178,-1.688225 -0.07193,-1.822796 C 26.709949,10.413842 27.423023,8.6919067 28.377987,8.0097467 28.680006,7.7940051 28.636896,7.4577416 28.258735,7.0795811 27.189954,6.0108 27.634982,5.3769246 29.643241,5.1075606 c 1.801271,-0.2416011 2.364903,-0.6194178 2.994085,-2.0070087 0.121246,-0.2673952 0.491476,-0.1431932 0.842518,0.2826417 0.344424,0.4178074 1.484841,1.0419061 2.534258,1.3868862 1.049418,0.34498 2.122686,0.9120656 2.38504,1.2601903 0.644211,0.8548198 2.623544,0.2843031 2.623544,-0.7562021 0,-1.1745715 2.896823,-0.7125485 3.217349,0.5131446 0.246399,0.9422306 1.7699,1.2202271 2.268243,0.4138911 0.388406,-0.6284546 1.19252,-0.612512 1.19252,0.023643 0,0.2753582 0.725791,1.2479741 1.612868,2.161369 2.518279,2.5929903 2.789664,5.9241233 0.482633,5.9241233 -1.244969,0 -1.60774,1.282047 -0.484712,1.712994 0.541387,0.207749 0.555533,0.59491 0.08052,2.203683 -1.219329,4.129611 1.717465,10.912929 5.344559,12.344704 0.852652,0.336579 1.550276,0.812835 1.550276,1.058345 0,0.245511 0.293501,0.2028 0.652223,-0.09491 0.496302,-0.411895 0.796398,-0.367578 1.255309,0.185376 1.030695,1.241911 -0.704488,4.717273 -4.354315,8.721165 -2.137915,2.345312 -3.277312,3.992256 -3.277312,4.737197 0,0.628076 -0.590298,1.881768 -1.311772,2.785983 -1.118098,1.401299 -1.605343,1.64403 -3.300152,1.644043 -1.745183,1.2e-5 -2.110482,-0.197552 -2.986692,-1.61529 -0.93434,-1.511795 -2.649487,-2.507815 -3.090284,-1.79459 -0.107621,0.174134 -0.346377,1.119924 -0.530569,2.101755 -0.401507,2.140212 -1.293056,2.28705 -3.28002,0.540224 z"
     id="path1559"
     transform="scale(0.26458333)" />
  <path
     style="fill:none;stroke-width:0"
     d="m 91.859263,144.65267 c -0.329737,-1.02871 -4.562038,-1.47424 -4.574106,-0.48151 -0.0051,0.41895 -0.139735,0.39143 -0.444901,-0.0909 -0.512187,-0.80962 -3.957926,-0.86514 -4.223624,-0.068 -0.250949,0.75284 -1.377346,0.64076 -1.687673,-0.16794 -0.145459,-0.37905 -1.080705,-0.82009 -2.078319,-0.98007 -0.99762,-0.15999 -2.180781,-0.49019 -2.629249,-0.73378 -0.980838,-0.53276 -3.544413,-0.12135 -5.036541,0.80827 -1.149423,0.7161 -1.305433,0.57526 -1.633567,-1.47475 -0.103811,-0.64856 -0.785775,-1.08655 -2.293715,-1.47313 -2.98362,-0.7649 -5.236775,-2.0121 -6.916059,-3.82828 -0.973837,-1.05322 -2.004637,-1.62316 -3.22647,-1.78393 -1.905942,-0.25079 -4.776761,-2.14353 -5.608554,-3.69775 -0.275109,-0.51405 -0.829958,-0.93463 -1.232998,-0.93463 -0.829694,0 -2.095681,-1.11632 -2.095681,-1.84793 0,-0.26678 -0.588342,-0.76704 -1.307427,-1.11169 -0.719085,-0.34464 -1.605477,-1.26864 -1.969761,-2.05331 -0.364284,-0.78467 -1.09047,-1.89814 -1.613747,-2.47437 l -0.951413,-1.0477 2.08641,-2.86885 c 1.174134,-1.61446 2.659978,-3.07478 3.398182,-3.33981 1.450054,-0.52061 1.694684,-1.51702 0.59626,-2.42863 -0.988762,-0.8206 -0.894738,-2.54874 0.262038,-4.81621 0.537653,-1.05389 0.856269,-2.29828 0.708035,-2.76532 -0.166026,-0.5231 0.182514,-1.33691 0.907705,-2.11941 0.647471,-0.69863 1.010234,-1.27024 0.806138,-1.27024 -0.914618,0 -2.52257,2.34449 -2.233216,3.25617 0.183307,0.57755 -0.07984,1.579 -0.668704,2.54487 -1.15454,1.89371 -1.251935,4.08479 -0.245447,5.52175 0.687435,0.98145 0.649488,1.08205 -0.664522,1.76155 -0.766475,0.39636 -2.186106,1.80027 -3.154735,3.11981 -1.389657,1.89309 -2.043664,2.39916 -3.100508,2.39916 -0.750509,0 -1.460077,-0.31458 -1.61393,-0.71551 -0.151013,-0.39353 -0.603286,-0.71551 -1.005051,-0.71551 -0.412477,0 -0.730483,-0.41532 -0.730483,-0.95402 0,-0.70782 0.318006,-0.95402 1.232271,-0.95402 0.776395,0 1.156951,-0.22058 1.028676,-0.59626 -0.111976,-0.32794 0.159043,-0.91824 0.602266,-1.31177 0.529364,-0.47001 0.816134,-1.4827 0.835805,-2.95152 0.02665,-1.99017 -0.188165,-2.46472 -1.953788,-4.31611 -1.091054,-1.14406 -2.653513,-2.35255 -3.472132,-2.68556 -0.81862,-0.33301 -1.726295,-1.12759 -2.017058,-1.76574 -0.590004,-1.29492 -1.863291,-1.5428 -2.284645,-0.44477 -0.151012,0.39353 -0.539127,0.71551 -0.862478,0.71551 -0.602089,0 -1.69506,-1.95359 -1.69506,-3.02978 0,-0.32992 -0.751288,-1.420064 -1.669528,-2.422554 -0.918241,-1.002484 -1.669528,-2.225023 -1.669528,-2.716756 0,-0.491733 -0.295697,-0.894061 -0.657105,-0.894061 -0.361408,0 -0.935777,-0.33578 -1.276377,-0.746178 -0.365757,-0.440709 -1.031286,-0.642766 -1.625719,-0.493573 -0.724304,0.181789 -1.015772,0.02323 -1.039711,-0.565595 -0.01829,-0.450009 -0.208884,-1.231107 -0.423532,-1.735774 -0.302751,-0.71181 -0.228287,-0.855418 0.33206,-0.640393 0.397281,0.152451 1.021887,0.09205 1.388012,-0.13423 0.560707,-0.346536 0.566037,-0.659268 0.0338,-1.983151 -1.156533,-2.876749 -1.111104,-4.002687 0.185333,-4.593383 1.072465,-0.488648 1.175208,-0.80496 1.175208,-3.618088 0,-1.695444 0.229287,-3.224334 0.509527,-3.397532 0.28024,-0.173198 0.404341,-0.589017 0.27578,-0.924042 -0.128561,-0.335024 0.0063,-0.849142 0.299599,-1.142482 0.393124,-0.393124 0.289265,-0.717945 -0.395032,-1.235476 -0.562384,-0.425329 -0.684336,-0.708109 -0.309342,-0.717299 0.88528,-0.02169 2.958524,-2.385284 2.958524,-3.372846 0,-0.45833 -0.357875,-0.970657 -0.795276,-1.138503 -0.606139,-0.232598 -0.662862,-0.437591 -0.238504,-0.861949 0.77918,-0.77918 0.701313,-2.751008 -0.108638,-2.751008 -0.7953,0 -1.271608,-3.596275 -0.569321,-4.298562 0.297949,-0.297949 0.192834,-1.02634 -0.296064,-2.051571 -0.717346,-1.504289 -0.707663,-1.62106 0.180427,-2.175681 0.730225,-0.456033 0.869846,-0.89846 0.62924,-1.993929 -0.220999,-1.006202 -0.02272,-1.871421 0.695016,-3.032734 0.898571,-1.453919 1.266455,-1.645321 3.496472,-1.819141 1.370732,-0.106843 2.837827,-0.35248 3.260213,-0.545861 0.504788,-0.231107 1.278026,0.07758 2.2563,0.900743 2.188817,1.841768 3.483579,1.466159 4.141805,-1.201535 l 0.529636,-2.146536 1.835237,2.027284 c 1.621486,1.791165 2.076131,2.027284 3.903523,2.027284 2.063559,0 2.068393,0.0041 2.115833,1.788779 0.102307,3.848838 0.362708,4.143987 3.927979,4.452134 2.996968,0.259029 3.365475,0.420995 5.318186,2.337435 1.15395,1.132517 2.346792,2.659538 2.65076,3.393381 0.578237,1.39599 0.427127,1.883281 -1.698734,5.477978 -0.516293,0.873019 -0.73512,1.819619 -0.53887,2.331038 0.280687,0.731458 0.697841,0.817585 2.770826,0.57207 2.697096,-0.319431 3.512108,-0.899142 5.968383,-4.245258 1.23466,-1.681945 1.985895,-2.274326 2.884211,-2.274326 1.313108,0 1.304855,-0.133211 0.317683,5.127836 -0.230548,1.228675 -0.13123,1.550276 0.478758,1.550276 1.325477,0 0.838838,1.456533 -0.661371,1.979509 -1.202285,0.419118 -1.431024,0.751855 -1.431024,2.081639 0,1.259177 -0.365722,1.872377 -1.78878,2.999216 -0.983829,0.779039 -2.701058,1.689668 -3.816064,2.02362 -1.902763,0.56989 -2.027284,0.713883 -2.027284,2.34431 0,0.955419 0.25969,1.996816 0.57709,2.314216 0.451448,0.451447 0.396189,0.88333 -0.253811,1.983692 -0.66094,1.118883 -0.769106,2.020466 -0.528799,4.407644 0.297656,2.95687 0.281139,3.013247 -1.122224,3.83029 -1.15992,0.67531 -1.483854,1.250887 -1.74499,3.100552 -0.176365,1.249217 -0.429824,2.700611 -0.563243,3.225321 -0.190165,0.74787 -0.139566,0.80434 0.234177,0.26131 0.262216,-0.38098 0.616664,-1.709938 0.787661,-2.953236 0.42175,-3.066493 1.776814,-4.013702 4.518041,-3.158169 1.563484,0.48796 2.237613,1.111462 3.615732,3.344193 0.931669,1.50942 1.968313,2.744402 2.303659,2.744402 0.335347,0 0.855781,0.48297 1.156525,1.07327 0.300744,0.5903 1.024198,1.66775 1.60767,2.39434 0.877933,1.09327 1.040831,1.82833 0.94469,4.26281 -0.07639,1.93416 -0.439997,3.46569 -1.061605,4.47147 -0.719891,1.16481 -0.839853,1.80743 -0.502862,2.69378 0.504484,1.3269 6.317246,4.97967 9.328984,5.86238 1.709582,0.50107 1.974484,0.77823 2.31801,2.42529 0.859597,4.12139 2.602098,8.34867 4.109143,9.96872 1.143874,1.22965 3.247093,4.24311 6.875855,9.85163 0.863685,1.33488 0.862197,1.35805 -0.08711,1.35805 -0.531182,0 -1.086186,-0.37564 -1.233347,-0.83476 z"
     id="path1598"
     transform="scale(0.26458333)" />
  <path
     style="fill:#ffff00;stroke-width:0"
     d="m 97.309627,145.41359 c -0.91824,-0.20383 -1.917782,-0.28504 -2.221205,-0.18046 -0.303421,0.10458 -0.814541,-0.44447 -1.13582,-1.2201 -0.32128,-0.77564 -0.843511,-1.56616 -1.160514,-1.7567 -0.317003,-0.19055 -1.387588,-1.63438 -2.379076,-3.2085 -0.991489,-1.57413 -2.540604,-3.77153 -3.442476,-4.88311 -0.901874,-1.11158 -1.969769,-2.98955 -2.373101,-4.17326 -0.403332,-1.18372 -0.927892,-2.27245 -1.165689,-2.41942 -0.237797,-0.14697 -0.435645,-1.0595 -0.439662,-2.02784 -0.004,-0.96835 -0.198373,-2.06244 -0.431901,-2.43131 -0.817554,-1.29138 6.34524,-4.17474 11.541605,-4.64604 1.895489,-0.17192 4.278282,-0.60222 5.295096,-0.95624 2.842536,-0.98965 5.562696,-0.77889 9.176076,0.71099 1.80698,0.74505 4.78799,1.63758 6.62447,1.9834 4.00412,0.75399 6.11878,2.02883 6.88635,4.1515 0.39848,1.10198 0.88144,1.58489 1.61141,1.61126 0.57332,0.0207 0.77408,0.14593 0.44614,0.27826 -0.32795,0.13233 -0.59626,0.52 -0.59626,0.8615 0,0.34149 -0.551,0.98193 -1.22445,1.42318 -0.97186,0.63679 -1.36783,0.68328 -1.91956,0.22539 -0.85114,-0.70638 -1.27607,-0.37293 -0.87076,0.6833 0.16543,0.43108 0.725,0.78379 1.2435,0.78379 0.58442,0 0.83709,0.22662 0.66479,0.59626 -0.15287,0.32794 -0.41045,0.9719 -0.5724,1.43102 -0.16194,0.45912 -0.58072,0.83477 -0.93062,0.83477 -0.84662,0 -1.56802,1.35551 -1.28909,2.42217 0.12367,0.47291 -0.33097,1.58294 -1.01639,2.48157 -0.89727,1.17638 -1.24216,2.20694 -1.24745,3.72742 -0.009,2.59304 -0.78851,4.11061 -1.2484,2.43046 -0.27567,-1.00715 -0.50168,-1.08051 -2.62355,-0.85159 -2.08096,0.22451 -2.40183,0.12851 -3.09224,-0.9252 -0.4237,-0.64663 -1.01994,-1.1757 -1.32499,-1.1757 -1.03409,0 -2.09609,1.74746 -1.84865,3.04186 0.22755,1.19035 0.13787,1.25363 -1.84371,1.30098 -1.14559,0.0274 -2.83418,0.0941 -3.75242,0.14838 -0.918237,0.0542 -2.420812,-0.0682 -3.339053,-0.27199 z"
     id="path1711"
     transform="scale(0.26458333)" />
</svg>
