<?xml version="1.0" encoding="UTF-8" standalone="no"?>
<!-- Created with Inkscape (http://www.inkscape.org/) -->

<svg
   width="150"
   height="150"
   viewBox="0 0 39.6875 39.6875"
   version="1.1"
   id="svg944"
   inkscape:version="1.1.1 (3bf5ae0d25, 2021-09-20)"
   sodipodi:docname="st.svg"
   xmlns:inkscape="http://www.inkscape.org/namespaces/inkscape"
   xmlns:sodipodi="http://sodipodi.sourceforge.net/DTD/sodipodi-0.dtd"
   xmlns="http://www.w3.org/2000/svg"
   xmlns:svg="http://www.w3.org/2000/svg">
  <sodipodi:namedview
     id="namedview946"
     pagecolor="#ffffff"
     bordercolor="#666666"
     borderopacity="1.0"
     inkscape:pageshadow="2"
     inkscape:pageopacity="0.0"
     inkscape:pagecheckerboard="0"
     inkscape:document-units="mm"
     showgrid="false"
     units="px"
     inkscape:zoom="2.096401"
     inkscape:cx="80.137341"
     inkscape:cy="140.71735"
     inkscape:window-width="1001"
     inkscape:window-height="1040"
     inkscape:window-x="73"
     inkscape:window-y="16"
     inkscape:window-maximized="0"
     inkscape:current-layer="svg944" />
  <defs
     id="defs941" />
  <path
     d="m 18.18033,20.113232 -0.91546,0.801691 -1.18268,0.420682 -0.045,0.608551 0.27252,0.375701 v 0.375711 l -0.41011,0.608541 0.18257,0.796402 -0.0344,0.873122 v 0 h -0.1561 v 0 l -0.50536,0.346611 -0.28046,1.558393 h -1.4605 l -0.33602,0.174631 -0.33602,0.463021 0.0556,0.576791 -0.44979,0.806982 -0.0556,0.3466 v 0.288401 l 0.44979,0.576792 -0.16933,0.23284 -0.50271,0.113774 -1.1086,1.473733 v 0 l -0.164053,-0.0953 -0.51593,0.0476 -0.21167,-0.362481 -0.3492502,-0.0953 -0.11906,-0.362481 0.16404,-0.264581 0.0952,0.0979 0.39687,-0.0741 -0.0688,-0.407461 0.23284,0.0476 -0.0238,-0.121711 0.28311,-0.16933 0.045,-0.2884 -0.20902,-0.0714 -0.0714,-0.216961 0.30427,-0.16933 -0.0238,-0.359832 -0.14023,0.0238 -0.14023,-0.216961 h -0.14023 l 0.0238,-0.16933 -0.39952,-0.38629 -0.1640395,-0.0238 -0.18521,-0.36247 -0.47096,-0.0714 -0.25664,-0.216959 -0.23284,-0.481542 -0.18785,-0.12171 -0.23548,0.0979 -0.11642,0.336021 -0.32808,0.0265 -0.3280801,-0.603251 -0.0238,-0.457731 -0.28045,-0.193151 -0.18786,-0.457731 -0.32808,-0.0741 -0.11642,-0.240772 0.0714,-0.336021 -0.49213,-0.19315 -0.25929,-0.31485 h -0.16404 l -0.0688,0.16933 -0.30427,-0.0476 0.0926,-0.338661 -0.28046,-0.407462 0.0926,-0.21696 0.30427,0.0714 0.25929,-0.121709 -0.0476,-0.433921 -0.32809,-0.552982 0.0952,-0.26458 -0.0952,-0.240771 0.67998,-0.362481 -0.0952,-0.26458 0.11906,-0.14552 -0.0952,-0.820212 0.14023,-0.481541 h 0.14288 l -0.0952,-0.362481 0.18785,-0.24077 -0.0238,-0.119071 -0.30427,-0.0264 0.0476,-0.288401 0.42069,-0.119059 0.42069,-0.627062 -0.0212,-0.216961 -0.32808,-0.19315 V 17.7108 l 0.14023,-0.0476 0.14023,-0.481542 -0.49213,-0.14553 0.0238,-0.746122 -0.11642,-0.193151 0.30427,-0.38629 -0.56356,-0.941912 0.32808,0.0264 0.3519,-0.24341 -0.14023,-0.457732 0.0688,-0.529171 0.49212,-0.619122 v 0 l 1.0451101,0.0159 0.61648,-0.28839 0.44979,0.23018 0.39423,0.404821 0.3360195,0.0582 0.16669,-0.0582 0.28045,-1.098033 0.505363,0.174631 0.16933,0.402171 0.33602,0.3466 h 1.12184 v 0 l 0.16933,1.502833 0.28046,0.230191 h 1.12183 l 0.39158,0.116421 1.01071,0.923391 0.39423,0.695863 -0.11377,0.51858 -0.61648,0.981613 -0.0556,0.28839 0.11112,0.232831 h 0.50536 l 0.89694,-0.232831 1.26735,-1.616603 v 0 l 0.58473,0.11641 0.11112,0.460381 -0.28045,0.867832 v 0.346611 l 0.33602,0.113773 v 0.346601 l -0.11113,0.232831 -0.44979,0.0582 -0.22225,0.17198 v 0.518591 0 z"
     title="Santa Catarina"
     id="CV-CA"
     style="stroke-width:0.264584" />
  <path
     d="m 24.13875,24.338631 -0.0926,-0.941912 -0.3175,-1.217093 -0.36512,-0.23547 h -0.50006 l -0.22754,0.0476 -0.63765,0.468311 h -0.18256 l -0.54504,-0.187851 -0.0926,-0.37306 -0.3175,-0.14023 -0.18256,-0.470961 -0.18786,-0.111128 v 0 l 0.2249,-0.129641 v 0 l 0.61648,-0.0556 V 20.528563 L 20.88439,20.181962 H 18.2465 v 0 l -0.16669,-0.174621 v 0 -0.51859 l 0.22225,-0.171981 0.44979,-0.0582 0.11113,-0.232829 v -0.346602 l -0.33602,-0.113774 v -0.34661 l 0.28045,-0.867832 -0.11112,-0.460381 -0.58473,-0.116411 v 0 l 0.0794,-0.11642 h 0.84137 l 0.39423,-0.113774 2.33362,-2.039946 v 0 l 0.23019,0.121711 0.16404,-0.0476 0.18521,0.336021 0.18786,-0.26459 0.23548,0.0714 0.0476,0.0741 -0.23548,0.119071 0.0238,0.457731 0.37307,-0.0476 0.16404,0.121709 -0.0926,0.433921 h -0.18785 l 0.0238,0.14287 -0.11641,0.0741 0.16404,0.169341 0.35189,0.0476 0.18521,0.264591 0.25929,0.0979 0.42069,-0.0265 -0.0238,-0.166681 0.16404,0.0238 -0.0476,0.529161 0.53975,-0.14287 0.2593,-0.291041 h 0.25664 l 0.3519,0.121711 0.23283,0.24077 -0.18785,0.386291 0.21166,-0.16933 0.30427,0.0714 0.18786,-0.19314 0.0926,0.457732 0.3519,0.0503 -0.0238,0.216961 0.11641,0.11906 -0.0688,0.291041 -0.16404,0.0238 -0.0714,0.19315 0.18786,0.193141 0.0238,0.336021 0.30427,-0.0238 0.14023,0.14552 0.49212,-0.0741 0.28046,0.267231 0.39952,0.0952 0.42069,-0.0476 0.0953,0.119071 -0.0476,0.748771 0.35189,0.772582 -0.16404,0.24077 0.23283,-0.0979 0.18786,0.24077 0.0238,0.216951 0.18785,0.0741 -0.11906,0.312211 0.16404,0.169331 v 0 l -0.32014,0.44979 -0.61648,1.616614 -0.56092,0.981602 -1.06627,0.865193 -0.67204,0.232829 -0.67469,-0.0582 -0.33602,-0.751412 -0.95515,-0.46303 -0.22225,-0.402161 v 0 z"
     title="Santa Cruz"
     id="CV-CR"
     style="stroke-width:0.264584" />
  <path
     d="m 28.4541,38.028213 0.11642,0.193139 -0.0476,0.169331 h -0.0926 l -0.0714,-0.240771 z m 3.7465,-5.516583 0.30427,0.674691 0.14023,0.0952 0.28046,-0.0714 0.0238,0.24077 -0.16404,0.0476 0.0476,0.19314 -0.23284,0.26459 -0.58473,0.362481 h -0.14022 l -0.0926,-0.24077 -0.18785,-0.0238 0.23548,0.362481 h 0.35189 l 0.0476,0.26459 -0.28046,0.362481 0.0238,0.14552 -0.23283,0.145521 -0.11642,-0.0476 -0.11642,0.16934 -0.0926,0.193141 0.11642,0.26458 -0.0714,0.338671 -0.60854,0.674692 V 37.5308 l 0.11641,0.169331 -0.28045,0.674691 -0.28046,-0.0238 -0.0476,-0.433921 -0.53975,0.0714 -0.14023,0.169331 -0.21166,-0.21696 -0.37571,0.26459 0.0476,-0.19315 -0.21166,-0.14552 -0.21167,-0.481542 -0.4445,0.193141 v 0.16934 l -0.16404,0.0714 0.11642,0.505361 -0.14023,0.362481 0.11641,0.216961 -0.25664,-0.169341 -0.0238,-0.14552 -0.28045,-0.0714 -0.14023,0.14553 -0.23284,-0.14553 -0.30427,0.14553 -0.4445,-0.0952 -0.30427,0.121701 -0.35189,-0.145521 -0.18786,0.0476 -0.37571,-0.216961 -0.30691,0.216961 v 0 L 24.64146,37.856241 24.27633,37.528149 23.36617,36.030607 22.50098,35.001375 22.27344,34.204983 21.90831,33.644061 21.86331,32.84766 21.649,32.260288 v 0 h 0.30162 v 0 l 0.50536,-0.34661 1.57162,-0.576791 1.68275,-0.116411 0.9525,-0.346612 1.06627,-0.0582 2.07698,0.806982 1.62719,0.288401 0.81756,0.579441 v 0 z"
     title="Praia"
     id="CV-PR"
     style="stroke-width:0.264584" />
  <path
     d="m 21.64637,32.247049 0.21432,0.590021 0.0476,0.796403 0.36248,0.56091 0.22754,0.796402 0.86519,1.029232 0.91017,1.497544 0.36512,0.328081 0.34661,0.735541 v 0 h -0.58473 l -0.23284,-0.48154 -0.23548,0.121709 -0.25664,-0.0503 -0.0714,-0.166692 -0.23283,0.166692 -0.16404,-0.142872 -0.0238,0.193141 -0.23283,0.0952 -0.0714,-0.264581 -0.46831,-0.0953 -0.16404,0.119059 h -0.32809 l -0.0688,0.193151 h -0.44714 l -0.045,-0.264591 -0.70379,-0.21696 -0.32809,0.0714 -0.39687,-0.362481 -0.23548,0.19315 -0.4445,-0.0714 -0.11642,0.119061 h -0.25929 l -0.0926,0.26723 -0.28046,-0.0238 -0.25929,-0.36248 0.11906,-0.145521 -0.0714,-0.288401 -0.93662,-0.14287 -0.37571,-0.169331 -0.77259,-0.457731 -0.70114,-0.772591 -0.21167,-0.0238 -0.23548,0.14552 -0.0212,-0.16933 -0.11907,-0.0238 -0.18785,0.1217 -0.0688,-0.169331 H 14.4471 l -0.18785,-0.28839 -0.20902,-0.0476 -0.65617,-0.748771 -0.51594,-0.119061 0.0238,-0.14552 -0.18785,-0.0238 -0.0476,-0.362481 h -0.11642 l -0.0926,-0.1905 -0.25929,-0.0265 -0.34925,-0.336021 -0.16404,-0.579442 -0.49212,-0.407461 v -0.31485 0 l 1.1086,-1.473734 0.50271,-0.113773 0.16933,-0.232841 -0.44979,-0.576791 0.0556,-0.635001 0.44979,-0.806982 -0.0556,-0.576792 0.33602,-0.46302 0.33602,-0.174631 h 1.4605 l 0.28046,-1.558393 0.50536,-0.346611 v 0 h 0.44714 v 0 l 0.28046,0.17463 0.44185,0.0609 v 0 l 0.90488,1.439344 0.38894,0.132289 v 0 l 0.11641,0.388941 0.50536,0.460371 0.22489,0.635002 -0.11377,1.444632 -0.44714,0.690562 0.16668,0.521232 1.79653,1.095371 0.67204,0.230192 v 0 z"
     title="Ribeira Grande de Santiago"
     id="CV-RS"
     style="stroke-width:0.264584" />
  <path
     d="m 29.7876,22.100257 0.11907,0.0714 -0.0952,0.338659 h 0.51593 l 0.11642,0.193151 -0.045,0.240771 0.34925,0.21696 -0.0926,0.481542 0.16404,0.0238 -0.0714,0.16934 h 0.3519 l -0.0238,0.26458 h 0.14023 v 0.216961 l 0.21167,0.14552 -0.25665,0.264581 0.16405,0.193151 0.20902,-0.0238 -0.0688,0.21695 h 0.14023 l 0.0688,-0.362481 0.18785,0.386301 0.18785,0.0476 -0.16404,-0.21696 0.32809,0.0476 v 0.362481 l -0.16405,0.264581 0.46832,-0.121711 0.39952,0.291041 0.32808,-0.0238 0.23283,0.26458 0.0714,0.433922 -0.21167,-0.121711 -0.16404,0.0979 -0.37571,-0.0476 0.0476,0.142881 -0.16404,0.121711 h 0.32808 l -0.0476,0.38629 0.35189,-0.362481 0.30427,0.0238 0.16404,-0.19314 0.16405,0.0714 -0.14023,0.267232 0.0476,0.0952 0.20902,-0.0476 -0.11641,0.24077 0.0953,0.410101 -0.0714,0.264592 0.16404,0.24077 -0.16404,0.38629 0.25664,0.0714 0.16405,-0.2884 0.18785,-0.0238 0.18785,0.193141 -0.0238,0.21696 0.23548,0.16669 -0.0952,0.0503 0.11906,0.1905 -0.0476,0.169331 -0.16404,0.0476 -0.21167,-0.11906 -0.14023,0.529161 0.11642,0.12171 h 0.37571 l 0.16404,0.216961 -0.82021,0.0714 0.32808,0.0714 0.11642,0.216961 0.30427,-0.0952 -0.25665,0.55298 0.23548,0.555632 -0.3757,0.4101 0.0238,0.142881 -0.23548,-0.26459 -0.16404,-0.0238 -0.18786,-0.31221 -0.0212,0.0952 h -0.28311 l -0.14023,0.41011 -0.23283,0.24077 -0.37571,0.0953 -0.23548,0.362481 -0.53446,-0.0529 v 0 l -0.8202,-0.579442 -1.62455,-0.28839 -2.07698,-0.809632 -1.06627,0.0582 -0.9525,0.346602 -1.68539,0.11642 -1.56898,0.576791 -0.50536,0.343961 v 0 H 21.2761 v 0 l -0.67204,-0.230191 -1.79653,-1.095372 -0.16668,-0.521232 0.44714,-0.690561 0.11377,-1.444633 -0.22489,-0.635002 -0.50536,-0.460371 -0.11641,-0.38894 v 0 l 1.23825,0.1561 1.17739,-0.230181 2.13254,-1.328212 0.50536,-0.865193 0.22489,-0.230189 0.39159,-0.0582 v 0 l 0.33866,0.34661 v 0 l 0.22225,0.402161 0.95515,0.463031 0.33602,0.751412 0.67469,0.0582 0.67204,-0.232831 1.06627,-0.865193 0.56092,-0.981601 0.61648,-1.616614 z"
     title="São Domingos"
     id="CV-SD"
     style="stroke-width:0.264584" />
  <path
     d="m 15.65356,8.5958965 0.0582,0.0952 h 0.18785 l 0.0238,-0.0952 0.74877,0.0952 0.25929,0.2169505 0.34925,-0.0714 0.0952,0.1190603 -0.0714,0.3148508 0.46831,0.1455202 -0.18785,0.2884007 0.3519,0.1931504 0.14022,0.0979 0.14023,0.1905006 0.3519,-0.11906 0.37571,0.31221 h 0.42069 l 0.0476,0.216961 0.25665,0.26723 0.0476,0.552971 h 0.32808 l 0.0238,0.121711 0.25664,0.0952 0.21167,0.555631 -0.0714,0.31485 0.11642,0.142881 0.16404,-0.142881 0.14288,0.0476 0.045,0.4101 0.23548,0.0952 -0.0714,0.603252 0.23548,-0.0238 0.0238,0.14552 0.18521,-0.0979 0.0238,0.12171 0.30427,0.14552 -0.11642,0.193151 0.005,0.359831 v 0 l -2.33362,2.039944 -0.39423,0.113774 h -0.84137 l -0.0794,0.11642 v 0 l -1.26735,1.616604 -0.89694,0.23283 h -0.50536 l -0.11112,-0.23283 0.0556,-0.288391 0.61648,-0.981612 0.11377,-0.518582 -0.39423,-0.695861 -1.01071,-0.923393 -0.39158,-0.116419 h -1.12183 l -0.28046,-0.230191 -0.16933,-1.502833 v 0 l 0.73025,-0.865192 0.0265,-0.653522 1.57163,-1.6642333 z"
     title="São Miguel"
     id="CV-SM"
     style="stroke-width:0.264584" />
  <path
     d="m 24.13875,24.338631 -0.11377,-0.113774 v 0 l -0.39159,0.0582 -0.73025,1.095383 -2.13254,1.328213 -1.17739,0.23018 -1.23825,-0.1561 v 0 L 17.96602,26.648442 17.06114,25.2091 v 0 l 1.69069,-1.272643 0.28046,-0.521232 v -0.576791 l 0.39423,-1.039823 0.78317,-0.463021 v 0 l 0.28045,-0.158749 v 0 l 0.18786,0.111128 0.18256,0.470961 0.3175,0.14023 0.0926,0.373062 0.54504,0.18785 h 0.18256 l 0.63765,-0.468311 0.22754,-0.0476 h 0.50006 l 0.36512,0.235471 0.3175,1.217092 z"
     title="São Lourenço dos Órgãos"
     id="CV-SO"
     style="stroke-width:0.264584" />
  <path
     d="m 16.04779,24.973633 0.0344,-0.873122 -0.18257,-0.796402 0.41011,-0.608541 v -0.375711 l -0.27252,-0.375701 0.045,-0.608551 1.18268,-0.420682 0.91546,-0.801691 v 0 l 0.0661,0.0688 v 0 h 2.63789 l 0.44715,0.346601 v 0.463031 l -0.61648,0.0556 v 0 l -0.50535,0.288391 v 0 l -0.78317,0.463022 -0.39423,1.039821 v 0.576791 l -0.28046,0.521232 -1.69069,1.272643 v 0 l -0.44185,-0.0609 -0.28046,-0.17463 v 0 z"
     title="São Salvador do Mundo"
     id="CV-SS"
     style="stroke-width:0.264584" />
  <path
     d="m 6.7185767,2.3464229 0.23548,0.2645807 0.28046,-0.1190603 V 2.2723328 l -0.16404,-0.1693304 0.4445,-0.0714 -0.23548,-0.3386607 0.0476,-0.433921 0.16405,-0.0476 0.0926,0.1217002 0.16669,-0.0741 V 1.1135013 l 0.2090201,0.1693304 0.28046,-0.1190602 0.18785,0.0476 -0.0688,-0.1931504 0.11642,-0.12171035 -0.0238,-0.2645806 0.4445,0.0953002 0.21167,0.38894095 0.32808,-0.12171035 0.0238,0.21696055 0.7011392,0.1217002 0.0714,0.3122108 0.164041,0.0741 0.16404,-0.2196104 0.21167,0.0741 -0.0714,-0.3624708 0.16404,-0.1217103 0.420693,0.1693304 0.3519,-0.0238 0.0238,0.1217102 0.18785,-0.0741 v 0.2434206 l -0.11906,0.0714 0.18785,0.1217103 h 0.28046 L 12.3621,1.4045509 h 0.14288 l 0.18521,0.1693303 -0.0688,0.1693404 0.32808,0.1931405 0.0238,0.1693404 0.42069,0.2169604 -0.0238,0.1190602 0.25664,0.3386608 -0.0688,0.2407806 0.21167,0.1217002 -0.25929,0.7223216 -0.42069,-0.0714 -0.16404,0.1455202 0.0926,0.2645807 0.28046,0.0476 -0.30427,1.0874419 0.0476,0.4815411 0.18786,0.1217103 -0.0238,0.5053511 0.23547,0.5556213 0.67734,0.8440318 h 0.2831 l 0.1614,0.2407706 0.37571,0.0714 -0.0238,0.1958004 0.30427,-0.2672305 0.43392,0.5080011 v 0 l -0.57679,1.354663 -1.57163,1.6642337 -0.0265,0.653521 -0.73025,0.865192 v 0 H 11.6265 l -0.33602,-0.346601 -0.16933,-0.40217 -0.505363,-0.17463 -0.28045,1.098032 -0.166691,0.0582 -0.3360192,-0.0582 -0.39423,-0.404822 -0.44979,-0.230179 -0.61648,0.28839 -1.0451101,-0.0159 v 0 l 0.14023,-0.732902 0.14023,-0.19315 -0.0926,-0.28839 0.0926,-0.989543 0.11906,-0.19315 0.3280901,-0.0952 0.5371,-0.4841903 0.0953,-0.1666804 -0.0476,-0.5556312 0.14023,-0.2910407 -0.0238,-0.3360207 -0.32808,-0.5318112 -0.60854,-0.410111 -0.3968801,0.0714 0.045,-0.2169605 -0.25664,-0.5529812 0.0238,-0.7725817 -0.0952,-0.1931505 0.51594,-0.2169604 0.0238,-0.2169506 -0.28046,-0.2645905 -0.14023,0.0476 -0.0238,-0.1455203 h -0.14023 l -0.11906,-0.3148603 -0.7964,-0.0952 -0.0926,-0.0979 0.0476,-0.3598408 -0.23548,-0.1217003 0.46832,-0.6270713 0.65616,0.1217103 0.11642,-0.1693304 -0.045,-0.2434206 0.18521,-0.2407706 -0.0212,-0.1693303 -0.30427,-0.1666904 -0.2831,0.0476 -0.11642,-0.3624708 z"
     title="Tarrafal"
     id="CV-TA"
     style="stroke-width:0.264584;fill:#000000;fill-opacity:1" />
</svg>
