<?xml version="1.0" encoding="UTF-8" standalone="no"?>
<!-- Created with Inkscape (http://www.inkscape.org/) -->

<svg
   width="150"
   height="150"
   viewBox="0 0 39.687494 39.687499"
   version="1.1"
   id="svg944"
   inkscape:version="1.1.1 (3bf5ae0d25, 2021-09-20)"
   sodipodi:docname="stt.svg"
   xmlns:inkscape="http://www.inkscape.org/namespaces/inkscape"
   xmlns:sodipodi="http://sodipodi.sourceforge.net/DTD/sodipodi-0.dtd"
   xmlns="http://www.w3.org/2000/svg"
   xmlns:svg="http://www.w3.org/2000/svg">
  <sodipodi:namedview
     id="namedview946"
     pagecolor="#ffffff"
     bordercolor="#666666"
     borderopacity="1.0"
     inkscape:pageshadow="2"
     inkscape:pageopacity="0.0"
     inkscape:pagecheckerboard="0"
     inkscape:document-units="mm"
     showgrid="false"
     units="px"
     inkscape:zoom="1.0482005"
     inkscape:cx="95.401596"
     inkscape:cy="58.194974"
     inkscape:window-width="1064"
     inkscape:window-height="1040"
     inkscape:window-x="769"
     inkscape:window-y="59"
     inkscape:window-maximized="0"
     inkscape:current-layer="svg944"
     height="151px" />
  <defs
     id="defs941" />
  <path
     d="m 32.919015,7.925369 0.396875,0.243416 -0.0926,0.219605 0.14023,0.341312 -0.04763,0.338667 0.187854,0.148166 -0.328084,0.388938 0.351896,0.3175 v 0.436562 l 0.140229,0.219605 0.53975,0.391583 0.04498,0.436562 0.259291,0.195792 0.187854,0.388938 0.256646,0.219604 h 0.328084 l 0.04763,0.121708 -0.119063,0.121708 0.211667,0.121709 0.468312,-0.291042 v 0.41275 h 0.164042 l 0.164041,0.148167 h 0.396875 l 0.23548,0.291041 0.256645,-0.291041 0.351896,0.216958 -0.02381,0.3175 0.164041,0.486833 -0.0926,0.73025 0.280459,0.0979 -0.187855,0.195792 0.14023,0.436562 -0.48948,0.513292 -0.02381,0.267229 -0.399521,0.219604 -0.06879,0.3175 h -0.119062 l -0.140229,0.264584 v 0 l -3.6195,-2.934229 -0.814917,-0.251355 h -1.296458 l -0.814917,0.150813 -0.431271,-0.198438 -0.09525,-0.34925 -0.425979,-0.309562 v 0 l 0.280459,-0.140229 0.767291,-1.248834 1.391709,-1.645708 1.008062,-0.600604 0.288396,-1.198563 z"
     title="Paul"
     id="CV-PA"
     style="stroke-width:0.264583" />
  <path
     d="m 6.1008487,15.452764 -0.047625,-0.513291 0.4233333,-0.07144 0.2090209,-0.415395 h 0.4683125 l 0.4471458,-0.291042 0.492125,-0.02646 0.4894791,-0.338667 0.2831042,-0.07408 0.2090208,0.02381 0.3757084,-0.41275 0.2354791,0.121708 0.1402292,-0.171979 0.677333,0.293688 0.703792,-0.171979 0.02381,-0.121709 0.560917,-0.365125 0.116416,-0.267229 0.235479,0.04763 0.4445,-0.145521 0.116417,-0.3175 0.679979,0.171979 0.4445,-0.02381 0.608542,-0.293688 0.211667,-0.341312 h 0.256645 l 0.328084,-0.267229 v 0 l 2.148416,2.344208 0.624417,0.399521 1.344083,0.34925 0.1905,0.34925 -0.04763,0.849312 0.193145,0.248709 h 0.383646 l 2.016125,-1.148292 0.574147,-0.100542 2.495021,0.150813 0.960436,-0.198438 2.886604,-1.706562 v 0 l 0.42598,0.309562 0.09525,0.34925 0.43127,0.198438 0.814918,-0.150813 h 1.296458 l 0.814917,0.251355 3.6195,2.934229 v 0 l -0.02381,0.148166 -0.304271,0.0979 -0.164041,0.341313 -0.209021,0.14552 v 0.608542 l -0.960437,0.388938 -0.351896,0.46302 -0.820209,0.388938 -0.211666,0.293687 -0.960438,0.582084 -0.468312,0.0979 -0.280459,0.219604 -0.20902,0.0979 -0.211667,-0.02381 -0.351896,0.558271 -0.632354,0.219604 h -0.584729 l -0.187854,0.02381 -0.58473,-0.09525 -0.611187,0.09525 -0.4445,0.293687 h -0.420692 l -0.30427,0.41275 -0.304271,0.169333 -0.164042,0.341313 -0.280458,0.148167 -0.07144,0.216958 -0.748771,0.391583 -0.211666,0.338667 -0.0926,0.195792 -0.751417,0.679979 -0.4445,0.682625 -0.187854,-0.02381 -0.185209,0.341313 -0.375708,0.216958 -0.04763,0.195792 0.187854,0.07408 -0.116416,0.216958 -1.42875,0.391584 -0.259292,0.510646 -0.209021,0.169333 -0.09525,0.439208 -0.256646,0.121709 -0.492125,0.899583 -0.701145,0.584729 -0.09525,0.314854 -0.4445,0.05027 0.04763,0.193146 -0.09525,0.0979 -0.164042,-0.145521 -0.584729,0.07144 -0.164042,0.195792 -0.679979,0.145521 -0.140229,0.41275 -0.560916,0.219604 -0.02381,-0.219604 -0.256646,0.07408 -0.328084,-0.341312 -0.53975,-0.04763 -0.703791,0.169333 -0.34925,-0.219604 -0.187854,0.05027 -0.09525,-0.195792 -0.185209,0.02646 -0.164041,-0.3175 -0.23548,0.04762 -0.164038,-0.121718 h -0.280458 l -0.0926,0.219604 -0.351896,-0.02381 -0.09525,0.243416 -0.209021,0.02381 0.04498,-0.486834 -0.280458,-0.169333 -0.0926,0.121708 -0.328083,-0.05027 -0.468313,0.121708 -0.140229,0.365125 -0.939271,0.171979 -0.325437,0.365125 L 9.4504738,31.298659 8.7704946,30.785367 8.4900363,30.422888 8.4662233,30.031305 8.3498066,29.885784 7.8814941,29.66618 8.0455358,29.303701 7.7412649,29.060284 7.6460149,28.816867 7.7412649,28.158055 7.9979108,27.79293 8.2095774,27.623597 8.3974316,27.501888 8.5138483,27.136763 8.3021816,26.771638 v -0.41275 L 7.8576816,25.821784 7.646015,25.530743 7.5057858,25.141805 7.6698275,24.750222 7.7862441,23.850638 7.5057858,22.318701 7.15389,21.683701 6.70939,21.342388 6.5453483,21.466743 6.0320566,21.270951 6.0770356,21.149243 5.9844316,21.098973 5.1642233,20.953452 4.788515,20.466619 4.6720983,20.030056 4.3202025,19.736369 4.1799733,19.249535 l 0.023813,-0.41275 0.1640417,-0.0979 -0.2566458,-0.341312 0.021167,-0.195792 0.3518959,-0.216958 -0.1402292,-0.293688 0.3280833,-0.291041 0.1640417,-0.584729 0.7725833,-0.486834 -0.1164167,-0.584729 0.53975,-0.121708 z"
     title="Porto Novo"
     id="CV-PN"
     style="stroke-width:0.264583" />
  <path
     d="m 26.26739,5.8536814 0.280458,-0.2434167 0.211667,-0.5609166 0.328083,0.023813 0.140229,0.097896 0.187854,0.6588125 0.34925,0.071438 1.148292,0.8281458 1.312333,0.5371036 0.679979,0.145521 h 0.796396 l 0.140229,-0.2672287 0.256646,0.2672287 0.608542,0.0979 0.211667,0.415396 v 0 l -0.179917,0.259291 -0.288396,1.198563 -1.008062,0.600604 -1.391709,1.645708 -0.767291,1.248834 -0.280459,0.140229 v 0 l -2.886604,1.706562 -0.960437,0.198438 -2.495021,-0.150813 -0.574146,0.100542 -2.016125,1.148292 h -0.383646 l -0.193145,-0.248709 0.04763,-0.849312 -0.1905,-0.34925 -1.344083,-0.34925 -0.624417,-0.399521 -2.148417,-2.344208 v 0 l 0.235479,-0.195792 -0.02381,-0.801687 0.844021,-0.05027 0.256646,-0.267229 0.04763,-0.58473 0.608542,0.195792 0.04763,0.121708 0.164041,-0.07408 0.14023,-0.267229 -0.187855,-0.195792 0.396875,-0.293687 V 8.946669 l 0.23548,0.269875 0.539749,0.121709 1.285876,-0.3175 0.328083,-0.169334 0.07144,-0.439208 0.304271,-0.219604 -0.116416,-0.267229 0.396875,-0.148167 0.211666,-0.243416 h 1.381125 l 0.563563,-0.26723 0.164041,-0.2672286 0.232834,-0.1217083 0.351895,-0.023813 0.375709,-0.269875 1.404937,-0.5847292 0.304271,0.074083 z"
     title="Ribeira Grande"
     id="CV-RG"
     style="stroke-width:0.264583" />
</svg>
