<?xml version="1.0" encoding="UTF-8" standalone="no"?>
<!-- Created with Inkscape (http://www.inkscape.org/) -->

<svg
   width="150"
   height="150"
   viewBox="0 0 39.687494 39.687499"
   version="1.1"
   id="svg944"
   inkscape:version="1.1.1 (3bf5ae0d25, 2021-09-20)"
   sodipodi:docname="stt.svg"
   xmlns:inkscape="http://www.inkscape.org/namespaces/inkscape"
   xmlns:sodipodi="http://sodipodi.sourceforge.net/DTD/sodipodi-0.dtd"
   xmlns="http://www.w3.org/2000/svg"
   xmlns:svg="http://www.w3.org/2000/svg">
  <sodipodi:namedview
     id="namedview946"
     pagecolor="#ffffff"
     bordercolor="#666666"
     borderopacity="1.0"
     inkscape:pageshadow="2"
     inkscape:pageopacity="0.0"
     inkscape:pagecheckerboard="0"
     inkscape:document-units="mm"
     showgrid="false"
     units="px"
     inkscape:zoom="1.0482005"
     inkscape:cx="96.355611"
     inkscape:cy="58.194973"
     inkscape:window-width="1064"
     inkscape:window-height="1040"
     inkscape:window-x="769"
     inkscape:window-y="0"
     inkscape:window-maximized="0"
     inkscape:current-layer="svg944"
     height="151px" />
  <defs
     id="defs941" />
  <path
     d="m 32.919015,7.925369 0.396875,0.243416 -0.0926,0.219605 0.14023,0.341312 -0.04763,0.338667 0.187854,0.148166 -0.328084,0.388938 0.351896,0.3175 v 0.436562 l 0.140229,0.219605 0.53975,0.391583 0.04498,0.436562 0.259291,0.195792 0.187854,0.388938 0.256646,0.219604 h 0.328084 l 0.04763,0.121708 -0.119063,0.121708 0.211667,0.121709 0.468312,-0.291042 v 0.41275 h 0.164042 l 0.164041,0.148167 h 0.396875 l 0.23548,0.291041 0.256645,-0.291041 0.351896,0.216958 -0.02381,0.3175 0.164041,0.486833 -0.0926,0.73025 0.280459,0.0979 -0.187855,0.195792 0.14023,0.436562 -0.48948,0.513292 -0.02381,0.267229 -0.399521,0.219604 -0.06879,0.3175 h -0.119062 l -0.140229,0.264584 v 0 l -3.6195,-2.934229 -0.814917,-0.251355 h -1.296458 l -0.814917,0.150813 -0.431271,-0.198438 -0.09525,-0.34925 -0.425979,-0.309562 v 0 l 0.280459,-0.140229 0.767291,-1.248834 1.391709,-1.645708 1.008062,-0.600604 0.288396,-1.198563 z"
     title="Paul"
     id="CV-PA"
     style="stroke-width:0.264583" />
  <path
     d="m 6.1008487,15.452764 -0.047625,-0.513291 0.4233333,-0.07144 0.2090209,-0.415395 h 0.4683125 l 0.4471458,-0.291042 0.492125,-0.02646 0.4894791,-0.338667 0.2831042,-0.07408 0.2090208,0.02381 0.3757084,-0.41275 0.2354791,0.121708 0.1402292,-0.171979 0.677333,0.293688 0.703792,-0.171979 0.02381,-0.121709 0.560917,-0.365125 0.116416,-0.267229 0.235479,0.04763 0.4445,-0.145521 0.116417,-0.3175 0.679979,0.171979 0.4445,-0.02381 0.608542,-0.293688 0.211667,-0.341312 h 0.256645 l 0.328084,-0.267229 v 0 l 2.148416,2.344208 0.624417,0.399521 1.344083,0.34925 0.1905,0.34925 -0.04763,0.849312 0.193145,0.248709 h 0.383646 l 2.016125,-1.148292 0.574147,-0.100542 2.495021,0.150813 0.960436,-0.198438 2.886604,-1.706562 v 0 l 0.42598,0.309562 0.09525,0.34925 0.43127,0.198438 0.814918,-0.150813 h 1.296458 l 0.814917,0.251355 3.6195,2.934229 v 0 l -0.02381,0.148166 -0.304271,0.0979 -0.164041,0.341313 -0.209021,0.14552 v 0.608542 l -0.960437,0.388938 -0.351896,0.46302 -0.820209,0.388938 -0.211666,0.293687 -0.960438,0.582084 -0.468312,0.0979 -0.280459,0.219604 -0.20902,0.0979 -0.211667,-0.02381 -0.351896,0.558271 -0.632354,0.219604 h -0.584729 l -0.187854,0.02381 -0.58473,-0.09525 -0.611187,0.09525 -0.4445,0.293687 h -0.420692 l -0.30427,0.41275 -0.304271,0.169333 -0.164042,0.341313 -0.280458,0.148167 -0.07144,0.216958 -0.748771,0.391583 -0.211666,0.338667 -0.0926,0.195792 -0.751417,0.679979 -0.4445,0.682625 -0.187854,-0.02381 -0.185209,0.341313 -0.375708,0.216958 -0.04763,0.195792 0.187854,0.07408 -0.116416,0.216958 -1.42875,0.391584 -0.259292,0.510646 -0.209021,0.169333 -0.09525,0.439208 -0.256646,0.121709 -0.492125,0.899583 -0.701145,0.584729 -0.09525,0.314854 -0.4445,0.05027 0.04763,0.193146 -0.09525,0.0979 -0.164042,-0.145521 -0.584729,0.07144 -0.164042,0.195792 -0.679979,0.145521 -0.140229,0.41275 -0.560916,0.219604 -0.02381,-0.219604 -0.256646,0.07408 -0.328084,-0.341312 -0.53975,-0.04763 -0.703791,0.169333 -0.34925,-0.219604 -0.187854,0.05027 -0.09525,-0.195792 -0.185209,0.02646 -0.164041,-0.3175 -0.23548,0.04762 -0.164038,-0.121718 h -0.280458 l -0.0926,0.219604 -0.351896,-0.02381 -0.09525,0.243416 -0.209021,0.02381 0.04498,-0.486834 -0.280458,-0.169333 -0.0926,0.121708 -0.328083,-0.05027 -0.468313,0.121708 -0.140229,0.365125 -0.939271,0.171979 -0.325437,0.365125 L 9.4504738,31.298659 8.7704946,30.785367 8.4900363,30.422888 8.4662233,30.031305 8.3498066,29.885784 7.8814941,29.66618 8.0455358,29.303701 7.7412649,29.060284 7.6460149,28.816867 7.7412649,28.158055 7.9979108,27.79293 8.2095774,27.623597 8.3974316,27.501888 8.5138483,27.136763 8.3021816,26.771638 v -0.41275 L 7.8576816,25.821784 7.646015,25.530743 7.5057858,25.141805 7.6698275,24.750222 7.7862441,23.850638 7.5057858,22.318701 7.15389,21.683701 6.70939,21.342388 6.5453483,21.466743 6.0320566,21.270951 6.0770356,21.149243 5.9844316,21.098973 5.1642233,20.953452 4.788515,20.466619 4.6720983,20.030056 4.3202025,19.736369 4.1799733,19.249535 l 0.023813,-0.41275 0.1640417,-0.0979 -0.2566458,-0.341312 0.021167,-0.195792 0.3518959,-0.216958 -0.1402292,-0.293688 0.3280833,-0.291041 0.1640417,-0.584729 0.7725833,-0.486834 -0.1164167,-0.584729 0.53975,-0.121708 z"
     title="Porto Novo"
     id="CV-PN"
     style="stroke-width:0.264583" />
  <path
     d="m 26.26739,5.8536814 0.280458,-0.2434167 0.211667,-0.5609166 0.328083,0.023813 0.140229,0.097896 0.187854,0.6588125 0.34925,0.071438 1.148292,0.8281458 1.312333,0.5371036 0.679979,0.145521 h 0.796396 l 0.140229,-0.2672287 0.256646,0.2672287 0.608542,0.0979 0.211667,0.415396 v 0 l -0.179917,0.259291 -0.288396,1.198563 -1.008062,0.600604 -1.391709,1.645708 -0.767291,1.248834 -0.280459,0.140229 v 0 l -2.886604,1.706562 -0.960437,0.198438 -2.495021,-0.150813 -0.574146,0.100542 -2.016125,1.148292 h -0.383646 l -0.193145,-0.248709 0.04763,-0.849312 -0.1905,-0.34925 -1.344083,-0.34925 -0.624417,-0.399521 -2.148417,-2.344208 v 0 l 0.235479,-0.195792 -0.02381,-0.801687 0.844021,-0.05027 0.256646,-0.267229 0.04763,-0.58473 0.608542,0.195792 0.04763,0.121708 0.164041,-0.07408 0.14023,-0.267229 -0.187855,-0.195792 0.396875,-0.293687 V 8.946669 l 0.23548,0.269875 0.539749,0.121709 1.285876,-0.3175 0.328083,-0.169334 0.07144,-0.439208 0.304271,-0.219604 -0.116416,-0.267229 0.396875,-0.148167 0.211666,-0.243416 h 1.381125 l 0.563563,-0.26723 0.164041,-0.2672286 0.232834,-0.1217083 0.351895,-0.023813 0.375709,-0.269875 1.404937,-0.5847292 0.304271,0.074083 z"
     title="Ribeira Grande"
     id="CV-RG"
     style="stroke-width:0.264583" />
  <path
     style="fill:#808000;stroke-width:0"
     d="m 132.06007,58.304746 c -7.64808,-6.179571 -8.99691,-6.787884 -15.0509,-6.787884 -3.32688,0 -5.38134,-0.433983 -5.64532,-1.19252 -0.57173,-1.642788 4.00395,-8.103207 8.73457,-12.332402 2.38364,-2.130976 3.92365,-4.346455 3.92365,-5.644595 0,-3.716398 1.31314,-0.994291 1.52535,3.162011 0.11961,2.342621 0.82793,4.433476 1.72388,5.08861 0.83647,0.611641 1.52085,1.526546 1.52085,2.033123 0,1.752323 4.30936,4.893126 8.34764,6.084041 3.08811,0.910701 4.05768,1.671379 4.0676,3.191245 0.007,1.097539 0.2349,2.854141 0.50608,3.903558 0.30537,1.181736 -0.36218,2.889031 -1.7537,4.485187 l -2.24674,2.577155 z"
     id="path2763"
     transform="scale(0.26458333)" />
  <path
     style="fill:#008000;stroke-width:0"
     d="M 74.238108,57.553034 C 74.016386,55.680103 73.176336,54.763703 71.074189,54.10155 66.895888,52.785435 58.301192,44.161632 58.897028,41.883152 c 0.260974,-0.997964 1.081861,-1.814482 1.824195,-1.814482 0.742333,0 1.606276,-0.668633 1.919872,-1.485852 0.313596,-0.817218 1.174988,-1.253763 1.914204,-0.970099 0.739216,0.283663 1.588362,-0.120971 1.886992,-0.899189 0.348826,-0.909024 1.846548,-1.41494 4.188814,-1.41494 3.555111,0 4.397697,-0.50202 7.82737,-4.66362 1.010646,-1.226327 2.770367,-2.014491 4.497725,-2.014491 1.560643,0 4.72578,-1.054197 7.033637,-2.34266 2.307858,-1.288463 5.434648,-2.567251 6.948424,-2.841751 1.513777,-0.2745 3.229879,-1.152185 3.813549,-1.950412 1.30915,-1.790369 2.28191,-1.866891 2.28191,-0.179507 0,2.103128 11.19729,7.31433 15.71627,7.31433 2.20003,0 4.25886,0.258796 4.57516,0.575102 1.16407,1.164068 -1.16269,4.930111 -6.29162,10.183484 -2.8948,2.965037 -5.52152,6.157722 -5.83715,7.094858 -0.31562,0.937135 -3.46194,3.367498 -6.9918,5.400804 -5.958435,3.43223 -6.915799,3.687043 -13.371441,3.558958 -5.862061,-0.116308 -7.597277,0.239317 -11.055001,2.265679 -5.08234,2.978449 -5.170386,2.976123 -5.54003,-0.14633 z"
     id="path2839"
     transform="scale(0.26458333)" />
  <path
     style="fill:#00ff00;stroke-width:0"
     d="m 33.736074,116.15144 c -4.043737,-5.72625 -5.106051,-9.95312 -2.730555,-10.86469 1.850013,-0.70991 1.807051,-2.96522 -0.1247,-6.546099 -0.895772,-1.66049 -1.475704,-4.733389 -1.381367,-7.319488 0.08943,-2.451591 -0.468473,-5.967808 -1.239783,-7.813816 -1.135383,-2.717352 -2.068788,-3.481394 -4.90257,-4.013016 -7.818906,-1.466834 -8.988803,-11.045964 -2.185536,-17.895184 1.47336,-1.483311 2.678836,-3.262214 2.678836,-3.953117 0,-1.560461 11.416194,-6.229168 15.231925,-6.229168 1.545304,0 4.35687,-1.049977 6.247924,-2.333281 1.891055,-1.283304 4.034428,-2.104516 4.763052,-1.824917 0.728625,0.279599 2.634049,-0.265047 4.234278,-1.210324 l 2.909505,-1.718688 4.75341,4.681935 c 2.614377,2.575064 6.157032,5.135627 7.872569,5.69014 2.383067,0.77028 3.190398,1.627337 3.42103,3.63175 0.373019,3.24188 1.619675,3.281487 7.087993,0.225185 3.559912,-1.989673 5.411193,-2.368272 10.864166,-2.221792 5.845375,0.15702 7.24446,-0.184748 12.638099,-3.087233 4.27313,-2.299509 6.19586,-2.911469 6.50778,-2.071279 0.28983,0.780677 2.51486,1.192519 6.44272,1.192519 5.77701,0 6.22614,0.179996 12.08421,4.842925 3.34631,2.663609 6.41874,5.166158 6.82763,5.561219 2.14507,2.072511 -8.00347,11.837011 -14.41876,13.873149 -1.13006,0.358663 -2.7618,1.359275 -3.6261,2.223583 -0.94106,0.94105 -3.98009,1.820768 -7.57552,2.192909 -6.00103,0.621128 -6.00818,0.625534 -14.175448,8.737846 -4.494268,4.464022 -8.171394,8.547113 -8.171394,9.073534 0,0.526421 -1.206722,1.198478 -2.681604,1.493448 -1.520866,0.30417 -3.129559,1.4914 -3.716496,2.7428 -2.196773,4.6837 -7.826863,10.08726 -11.162058,10.71295 -1.809129,0.3394 -3.435117,1.05445 -3.613304,1.58901 -0.322375,0.96713 -2.36197,0.71007 -16.467325,-2.07549 -4.222714,-0.8339 -5.773892,-0.84402 -6.042101,-0.0394 -0.198467,0.5954 -1.076361,1.0962 -1.950875,1.11289 -0.874515,0.0167 -2.423368,0.66065 -3.441896,1.43103 -2.267077,1.71473 -3.846988,1.78106 -4.957735,0.20816 z"
     id="path2878"
     transform="scale(0.26458333)" />
</svg>
