<?xml version="1.0" encoding="UTF-8" standalone="no"?>
<!-- Created with Inkscape (http://www.inkscape.org/) -->

<svg
   width="172"
   height="150"
   viewBox="0 0 45.508326 39.687499"
   version="1.1"
   id="svg944"
   inkscape:version="1.1.1 (3bf5ae0d25, 2021-09-20)"
   sodipodi:docname="svct.svg"
   xmlns:inkscape="http://www.inkscape.org/namespaces/inkscape"
   xmlns:sodipodi="http://sodipodi.sourceforge.net/DTD/sodipodi-0.dtd"
   xmlns="http://www.w3.org/2000/svg"
   xmlns:svg="http://www.w3.org/2000/svg">
  <sodipodi:namedview
     id="namedview946"
     pagecolor="#ffffff"
     bordercolor="#666666"
     borderopacity="1.0"
     inkscape:pageshadow="2"
     inkscape:pageopacity="0.0"
     inkscape:pagecheckerboard="0"
     inkscape:document-units="mm"
     showgrid="false"
     units="px"
     inkscape:zoom="1.0482005"
     inkscape:cx="171.72287"
     inkscape:cy="134.51625"
     inkscape:window-width="1064"
     inkscape:window-height="1040"
     inkscape:window-x="769"
     inkscape:window-y="0"
     inkscape:window-maximized="0"
     inkscape:current-layer="svg944"
     height="151px" />
  <defs
     id="defs941" />
  <path
     d="m 43.483328,29.677024 0.280458,0.341313 0.4445,0.04762 0.187854,0.314854 -0.211666,0.703791 -0.351896,0.291042 -0.04762,0.291042 -0.563563,0.07408 -0.375708,-0.169333 -0.820208,0.02381 -0.0926,-0.365125 -0.304271,-0.41275 0.235479,-0.608541 0.140229,-0.145521 0.515938,0.121708 z m -8.172979,-3.545417 0.679979,0.632355 0.656167,0.41275 0.727604,1.214437 -0.608542,-0.314854 -0.351896,0.02381 -0.772583,-0.703791 v -0.145521 l -0.211667,-0.0979 -0.492125,-0.582083 0.164042,-0.388938 z m -8.151813,-11.863916 0.492125,0.388937 0.304271,-0.02381 0.0926,0.195792 0.280459,0.121708 1.148291,0.341312 0.116417,0.121709 -0.07144,0.436562 0.256645,0.365125 0.0926,0.486834 0.74877,0.267229 0.304271,0.703791 0.187854,0.145521 -0.116416,0.219604 0.140229,0.26723 0.563562,0.632354 0.492125,0.195791 h 0.515938 l 0.889,-0.436562 1.193271,-0.02381 0.235479,0.219605 v 0.388937 l -0.140229,0.243417 -0.492125,0.486833 -0.02381,0.193146 -0.608541,-0.0979 -0.328084,0.291042 -1.008062,-0.169334 -0.164042,0.219605 -0.396875,-0.02381 -0.02381,0.121708 -0.844021,-0.14552 h -0.703792 l -0.235479,0.121708 -0.256646,-0.07408 -0.0926,-0.947209 -0.211667,-0.341312 -0.679979,-0.510646 -0.164042,-0.267229 -1.336145,-0.679979 -0.4445,0.121708 -0.53975,-0.243417 -0.4445,-1.336146 0.280458,-0.121708 0.256646,-0.486833 0.04763,-0.534459 0.256646,-0.0979 0.351895,-0.534459 -0.04762,-0.169333 z M 15.143807,4.1024002 l 0.889,0.6085417 0.351896,0.6323542 0.02381,0.4630203 -0.187854,-0.1455203 -0.164042,0.1957911 0.0926,0.3413125 -0.187854,-0.050271 -0.04763,-0.1693334 -0.351896,0.1693334 0.351896,0.365125 -0.187854,0.023813 -0.211667,0.3651249 0.02381,0.4868327 0.468312,0.73025 1.076854,0.875771 0.936625,0.436563 0.724959,0.0979 0.235479,-0.291042 0.584729,-0.0979 0.515937,0.291042 0.0926,0.314854 -0.0926,0.3413117 -0.280458,0.04763 -0.4445,0.341313 0.116417,0.463021 0.235479,0.195791 -0.140229,0.219604 0.164041,0.291042 0.256646,-0.04763 0.187854,0.121708 -0.211666,0.341313 -0.04763,1.288521 -0.187854,0.3175 -0.58473,0.145521 -0.256645,0.267229 -0.53975,-0.193146 -0.58473,0.145521 -0.492125,-0.145521 -0.537104,0.193146 -0.0926,0.195791 -0.375708,0.145521 v 0.121709 l -0.844021,0.46302 -0.04763,0.169334 -0.351896,-0.02381 -0.187854,0.169334 -0.724958,0.02381 -0.116417,0.121708 -0.375708,-0.02381 -0.375709,0.169333 -0.560916,-0.121708 -0.164042,0.169333 -0.4445,0.121709 -0.07144,0.314854 -1.312333,0.02381 -0.211667,0.193146 v 0.436563 l -0.116416,0.0979 -0.7276041,0.07408 -0.396875,-0.243417 -0.164042,-0.0979 -0.515937,-0.314854 -0.396875,-0.121708 -0.280459,-0.291042 -0.256646,-0.195792 -0.140229,-0.195791 -0.468312,0.04763 -0.560917,-0.534459 -0.492125,-0.02381 -0.492102,-0.36513 L 4.97587,14.730712 4.9520575,14.561378 4.53137,14.294149 4.5075575,14.172441 3.8990158,14.585191 3.5233075,14.074545 3.1714116,13.854941 3.1237866,12.759566 2.8671408,12.418253 2.3750158,12.296545 1.03887,12.563774 1.0626825,12.367983 1.48337,11.833524 1.4595575,11.664191 1.6950367,11.542483 1.6712242,11.373149 1.2029117,11.129733 1.1790992,10.886316 1.5071825,10.690524 h 0.2566458 l 0.1402292,-0.341312 0.3042708,-0.145521 0.023813,-0.6799787 0.071438,-0.0979 0.3042708,0.04763 0.092604,-0.365125 0.2566458,0.267229 0.3280834,-0.04763 0.3042708,-0.219604 0.023813,-0.291042 -0.1640417,-0.267229 0.2328334,-0.243416 -0.023813,-0.169334 0.4445,-0.02381 -0.2328334,-0.584729 0.7037917,0.341312 v -0.41275 l 0.492125,0.195792 0.4444998,-0.439209 0.58473,0.02381 0.164041,0.243417 0.04763,0.436562 0.116417,-0.02381 0.140229,0.219604 0.936625,0.463021 0.0926,-0.243417 0.515938,-0.169333 0.280458,0.04763 0.748771,-0.777875 -0.04763,-0.341313 -0.164042,0.04763 0.02381,0.145521 -0.235479,-0.04763 -0.09261,-0.219604 -0.164041,0.169333 -0.116417,-0.0979 -0.0926,0.07408 V 6.9678372 l 0.187854,-0.1957917 0.304271,0.097896 0.187854,-0.1957916 -0.04763,-0.3889375 -0.468312,-0.2196042 0.02381,-0.2196041 -0.0926,-0.2434162 h 0.679979 l 0.116427,-0.2196043 -0.071438,-0.2672292 0.351896,0.1217083 h 0.7725831 l 0.256646,-0.6799791 0.351896,-0.1455209 0.256646,0.047625 0.328083,-0.3413125 0.187854,0.1957917 -0.4445,0.4630208 0.02381,0.1693334 0.351896,-0.1455209 0.164041,0.4630209 0.796396,0.3889375 0.420688,0.047625 0.772583,-0.3889375 -0.0926,-0.2196042 H 13.450474 V 4.9226086 l 0.396875,-0.1455209 0.116417,-0.2196041 0.164041,0.023813 0.04763,-0.1957917 -0.164041,0.023813 -0.04763,-0.1693333 h 0.679979 l 0.140229,-0.1217094 z"
     title="São Vicente"
     id="CV-SV"
     style="stroke-width:0.264583" />
  <path
     style="fill:#ffff00;stroke-width:0"
     d="m 32.331169,60.787625 c -3.290311,-2.215559 -9.759214,-5.471364 -11.702309,-5.889784 -0.589344,-0.126907 -1.841336,-0.563273 -2.782206,-0.969702 -0.94087,-0.406428 -1.957919,-0.491714 -2.260109,-0.189525 -0.897553,0.897553 -3.184338,-1.935365 -3.184338,-3.944826 0,-2.707255 -2.257918,-4.189001 -5.2420137,-3.440041 -2.4294029,0.609741 -2.4960711,0.536048 -1.2837747,-1.419054 1.0873696,-1.753629 1.0645776,-2.198402 -0.1523229,-2.972492 -1.2241448,-0.778698 -1.1922926,-0.912409 0.2203281,-0.924906 0.9388937,-0.0083 1.8983772,-0.998836 2.2239126,-2.295872 0.3894979,-1.551883 1.4628932,-2.45933 3.3572316,-2.838197 1.866018,-0.373204 2.784671,-1.135964 2.784671,-2.312122 0,-1.512865 1.823042,-2.842572 7.870632,-5.74075 0.393532,-0.188592 0.715512,0.321738 0.715512,1.134065 0,2.117104 3.472674,3.679148 6.635142,2.984554 3.075168,-0.675421 6.892601,-4.353436 5.15283,-4.964642 -0.600184,-0.210853 -0.872094,-1.221399 -0.604244,-2.245659 0.299673,-1.14595 0.0071,-1.862289 -0.760625,-1.862289 -1.679274,0 2.049746,-2.792067 3.781963,-2.831707 0.729218,-0.01669 1.836249,-0.728352 2.460068,-1.581476 1.019732,-1.394565 1.387085,-1.298268 3.639369,0.954016 3.662221,3.66222 7.548174,3.333048 9.844431,-0.833905 1.441564,-2.615967 4.422986,-2.861233 6.52648,-0.536899 1.484697,1.640573 1.555046,2.165299 0.466185,3.477295 -3.145696,3.790332 -1.970806,8.188595 3.185955,11.926792 3.512307,2.546113 4.558706,2.845955 8.088756,2.317806 4.335617,-0.648675 5.470912,0.649323 2.480487,2.835974 -1.45282,1.062328 -1.455744,1.388208 -0.03795,4.230241 1.959213,3.927336 1.190652,8.295498 -1.590873,9.04182 -1.124301,0.301666 -3.596191,0.554346 -5.493087,0.56151 -2.084728,0.0079 -4.496205,0.836836 -6.096692,2.095779 -2.302222,1.810928 -6.114814,2.927036 -17.958123,5.257109 -1.484617,0.292086 -2.925797,1.121296 -3.202621,1.84269 -0.740282,1.929144 -3.418034,1.601809 -7.082664,-0.865803 z"
     id="path2478"
     transform="scale(0.26458333)" />
  <path
     style="fill:#ffff00;stroke-width:0"
     d="m 115.67443,76.522788 c -2.20319,-0.229093 -3.10055,-0.808997 -3.10055,-2.00369 0,-2.916089 -6.46026,-7.737981 -10.36717,-7.737981 -2.300352,0 -3.309946,-2.682352 -2.389669,-6.349029 1.141409,-4.547731 2.350409,-5.1228 7.326129,-3.484726 2.42482,0.798282 4.37321,1.727544 4.32975,2.065028 -0.23329,1.811898 0.34484,3.108684 2.12551,4.767633 1.08821,1.013822 2.69811,3.284409 3.57756,5.045747 1.42915,2.862274 2.00434,3.193773 5.41506,3.120887 2.09884,-0.04485 4.88933,-0.259506 6.2011,-0.477008 1.65177,-0.273878 2.38504,0.04055 2.38504,1.022708 0,2.702029 -8.07886,4.802383 -15.50276,4.030431 z"
     id="path2522"
     transform="scale(0.26458333)" />
</svg>
