<?xml version="1.0" encoding="UTF-8" standalone="no"?>
<!-- Created with Inkscape (http://www.inkscape.org/) -->

<svg
   width="172"
   height="150"
   viewBox="0 0 45.508326 39.687499"
   version="1.1"
   id="svg944"
   inkscape:version="1.1.1 (3bf5ae0d25, 2021-09-20)"
   sodipodi:docname="svct.svg"
   xmlns:inkscape="http://www.inkscape.org/namespaces/inkscape"
   xmlns:sodipodi="http://sodipodi.sourceforge.net/DTD/sodipodi-0.dtd"
   xmlns="http://www.w3.org/2000/svg"
   xmlns:svg="http://www.w3.org/2000/svg">
  <sodipodi:namedview
     id="namedview946"
     pagecolor="#ffffff"
     bordercolor="#666666"
     borderopacity="1.0"
     inkscape:pageshadow="2"
     inkscape:pageopacity="0.0"
     inkscape:pagecheckerboard="0"
     inkscape:document-units="mm"
     showgrid="false"
     units="px"
     inkscape:zoom="1.0482005"
     inkscape:cx="171.72287"
     inkscape:cy="134.51625"
     inkscape:window-width="1064"
     inkscape:window-height="1040"
     inkscape:window-x="769"
     inkscape:window-y="59"
     inkscape:window-maximized="0"
     inkscape:current-layer="svg944"
     height="151px" />
  <defs
     id="defs941" />
  <path
     d="m 43.483328,29.677024 0.280458,0.341313 0.4445,0.04762 0.187854,0.314854 -0.211666,0.703791 -0.351896,0.291042 -0.04762,0.291042 -0.563563,0.07408 -0.375708,-0.169333 -0.820208,0.02381 -0.0926,-0.365125 -0.304271,-0.41275 0.235479,-0.608541 0.140229,-0.145521 0.515938,0.121708 z m -8.172979,-3.545417 0.679979,0.632355 0.656167,0.41275 0.727604,1.214437 -0.608542,-0.314854 -0.351896,0.02381 -0.772583,-0.703791 v -0.145521 l -0.211667,-0.0979 -0.492125,-0.582083 0.164042,-0.388938 z m -8.151813,-11.863916 0.492125,0.388937 0.304271,-0.02381 0.0926,0.195792 0.280459,0.121708 1.148291,0.341312 0.116417,0.121709 -0.07144,0.436562 0.256645,0.365125 0.0926,0.486834 0.74877,0.267229 0.304271,0.703791 0.187854,0.145521 -0.116416,0.219604 0.140229,0.26723 0.563562,0.632354 0.492125,0.195791 h 0.515938 l 0.889,-0.436562 1.193271,-0.02381 0.235479,0.219605 v 0.388937 l -0.140229,0.243417 -0.492125,0.486833 -0.02381,0.193146 -0.608541,-0.0979 -0.328084,0.291042 -1.008062,-0.169334 -0.164042,0.219605 -0.396875,-0.02381 -0.02381,0.121708 -0.844021,-0.14552 h -0.703792 l -0.235479,0.121708 -0.256646,-0.07408 -0.0926,-0.947209 -0.211667,-0.341312 -0.679979,-0.510646 -0.164042,-0.267229 -1.336145,-0.679979 -0.4445,0.121708 -0.53975,-0.243417 -0.4445,-1.336146 0.280458,-0.121708 0.256646,-0.486833 0.04763,-0.534459 0.256646,-0.0979 0.351895,-0.534459 -0.04762,-0.169333 z M 15.143807,4.1024002 l 0.889,0.6085417 0.351896,0.6323542 0.02381,0.4630203 -0.187854,-0.1455203 -0.164042,0.1957911 0.0926,0.3413125 -0.187854,-0.050271 -0.04763,-0.1693334 -0.351896,0.1693334 0.351896,0.365125 -0.187854,0.023813 -0.211667,0.3651249 0.02381,0.4868327 0.468312,0.73025 1.076854,0.875771 0.936625,0.436563 0.724959,0.0979 0.235479,-0.291042 0.584729,-0.0979 0.515937,0.291042 0.0926,0.314854 -0.0926,0.3413117 -0.280458,0.04763 -0.4445,0.341313 0.116417,0.463021 0.235479,0.195791 -0.140229,0.219604 0.164041,0.291042 0.256646,-0.04763 0.187854,0.121708 -0.211666,0.341313 -0.04763,1.288521 -0.187854,0.3175 -0.58473,0.145521 -0.256645,0.267229 -0.53975,-0.193146 -0.58473,0.145521 -0.492125,-0.145521 -0.537104,0.193146 -0.0926,0.195791 -0.375708,0.145521 v 0.121709 l -0.844021,0.46302 -0.04763,0.169334 -0.351896,-0.02381 -0.187854,0.169334 -0.724958,0.02381 -0.116417,0.121708 -0.375708,-0.02381 -0.375709,0.169333 -0.560916,-0.121708 -0.164042,0.169333 -0.4445,0.121709 -0.07144,0.314854 -1.312333,0.02381 -0.211667,0.193146 v 0.436563 l -0.116416,0.0979 -0.7276041,0.07408 -0.396875,-0.243417 -0.164042,-0.0979 -0.515937,-0.314854 -0.396875,-0.121708 -0.280459,-0.291042 -0.256646,-0.195792 -0.140229,-0.195791 -0.468312,0.04763 -0.560917,-0.534459 -0.492125,-0.02381 -0.492102,-0.36513 L 4.97587,14.730712 4.9520575,14.561378 4.53137,14.294149 4.5075575,14.172441 3.8990158,14.585191 3.5233075,14.074545 3.1714116,13.854941 3.1237866,12.759566 2.8671408,12.418253 2.3750158,12.296545 1.03887,12.563774 1.0626825,12.367983 1.48337,11.833524 1.4595575,11.664191 1.6950367,11.542483 1.6712242,11.373149 1.2029117,11.129733 1.1790992,10.886316 1.5071825,10.690524 h 0.2566458 l 0.1402292,-0.341312 0.3042708,-0.145521 0.023813,-0.6799787 0.071438,-0.0979 0.3042708,0.04763 0.092604,-0.365125 0.2566458,0.267229 0.3280834,-0.04763 0.3042708,-0.219604 0.023813,-0.291042 -0.1640417,-0.267229 0.2328334,-0.243416 -0.023813,-0.169334 0.4445,-0.02381 -0.2328334,-0.584729 0.7037917,0.341312 v -0.41275 l 0.492125,0.195792 0.4444998,-0.439209 0.58473,0.02381 0.164041,0.243417 0.04763,0.436562 0.116417,-0.02381 0.140229,0.219604 0.936625,0.463021 0.0926,-0.243417 0.515938,-0.169333 0.280458,0.04763 0.748771,-0.777875 -0.04763,-0.341313 -0.164042,0.04763 0.02381,0.145521 -0.235479,-0.04763 -0.09261,-0.219604 -0.164041,0.169333 -0.116417,-0.0979 -0.0926,0.07408 V 6.9678372 l 0.187854,-0.1957917 0.304271,0.097896 0.187854,-0.1957916 -0.04763,-0.3889375 -0.468312,-0.2196042 0.02381,-0.2196041 -0.0926,-0.2434162 h 0.679979 l 0.116427,-0.2196043 -0.071438,-0.2672292 0.351896,0.1217083 h 0.7725831 l 0.256646,-0.6799791 0.351896,-0.1455209 0.256646,0.047625 0.328083,-0.3413125 0.187854,0.1957917 -0.4445,0.4630208 0.02381,0.1693334 0.351896,-0.1455209 0.164041,0.4630209 0.796396,0.3889375 0.420688,0.047625 0.772583,-0.3889375 -0.0926,-0.2196042 H 13.450474 V 4.9226086 l 0.396875,-0.1455209 0.116417,-0.2196041 0.164041,0.023813 0.04763,-0.1957917 -0.164041,0.023813 -0.04763,-0.1693333 h 0.679979 l 0.140229,-0.1217094 z"
     title="São Vicente"
     id="CV-SV"
     style="stroke-width:0.264583" />
</svg>
